<?xml version="1.0" encoding="UTF-8" standalone="no"?>
<svg
   xmlns:dc="http://purl.org/dc/elements/1.1/"
   xmlns:cc="http://creativecommons.org/ns#"
   xmlns:rdf="http://www.w3.org/1999/02/22-rdf-syntax-ns#"
   xmlns:svg="http://www.w3.org/2000/svg"
   xmlns="http://www.w3.org/2000/svg"
   xmlns:sodipodi="http://sodipodi.sourceforge.net/DTD/sodipodi-0.dtd"
   xmlns:inkscape="http://www.inkscape.org/namespaces/inkscape"
   version="1.1"
   x="0px"
   y="0px"
   viewBox="0 0 300 476.81439"
   xml:space="preserve"
   id="svg18"
   sodipodi:docname="avatar.svg"
   width="300"
   height="476.81439"
   inkscape:version="0.92.4 (5da689c313, 2019-01-14)"><metadata
     id="metadata24"><rdf:RDF><cc:Work
         rdf:about=""><dc:format>image/svg+xml</dc:format><dc:type
           rdf:resource="http://purl.org/dc/dcmitype/StillImage" /><dc:title></dc:title></cc:Work></rdf:RDF></metadata><defs
     id="defs22" /><sodipodi:namedview
     pagecolor="#ffffff"
     bordercolor="#666666"
     borderopacity="1"
     objecttolerance="10"
     gridtolerance="10"
     guidetolerance="10"
     inkscape:pageopacity="0"
     inkscape:pageshadow="2"
     inkscape:window-width="1422"
     inkscape:window-height="772"
     id="namedview20"
     showgrid="false"
     fit-margin-top="-0.2"
     fit-margin-left="0"
     fit-margin-right="0"
     fit-margin-bottom="0"
     inkscape:zoom="0.36875"
     inkscape:cx="1336.8101"
     inkscape:cy="348.68729"
     inkscape:window-x="0"
     inkscape:window-y="30"
     inkscape:window-maximized="0"
     inkscape:current-layer="svg18" /><g
     id="g12"
     transform="translate(-106,-17.785599)"><path
       d="m 348.8,210.7 v -41.6 l 0.1,-9.8 c 0.3,-21.2 -9.7,-40.6 -26.7,-51.9 -5.4,-3.6 -11.2,-6.2 -17.1,-7.7 -46.6,80.2 -123,96.4 -142.6,99.4 V 212 c 0,25 9.8,48.5 27.5,66.1 17.6,17.5 40.9,27 65.6,27 0.2,0 0.5,0 0.7,0 51.1,-0.4 92.5,-42.7 92.5,-94.4 z"
       id="path2"
       inkscape:connector-curvature="0" /><path
       d="m 329.3,337.9 h -16.8 c -0.1,0.1 -0.2,0.2 -0.2,0.3 l -43.2,54 c 12.9,7 28.8,13.3 48.3,17.9 3.6,0.8 6.2,4.1 6.2,7.8 v 76.7 h 15.2 v -40.4 h 16 v 40.4 H 406 v -79.9 c 0,-42.4 -34.4,-76.8 -76.7,-76.8 z"
       id="path4"
       inkscape:connector-curvature="0" /><path
       d="m 256.5,321.1 c -0.3,0 -0.6,0 -0.8,0 -14.8,0 -29.2,-2.9 -42.4,-8.5 v 17.4 0 2.2 c 1,3.3 5.6,16.1 18.3,30.7 5.6,6.5 13.4,13.8 23.9,21 l 42.7,-53.4 v -0.5 0 0 -17.6 c -12.9,5.5 -27,8.6 -41.7,8.7 z"
       id="path6"
       inkscape:connector-curvature="0" /><path
       d="m 218.8,372.4 c -13,-15.2 -18.5,-28.8 -20.4,-34.5 h -15.7 c -42.3,0 -76.7,34.4 -76.7,76.7 v 79.9 h 50.8 v -40.4 h 16 v 40.4 h 134.9 v -7 h -29.4 v -16 h 29.4 v -20.4 h -29.4 v -16 h 29.4 v -11 C 280,416.9 244.2,402.2 218.8,372.4 Z"
       id="path8"
       inkscape:connector-curvature="0" /><path
       d="m 364.8,210.7 c 0,20.6 -5.7,39.9 -15.5,56.5 14.9,-17.7 26.3,-35.8 33.9,-54.2 13.9,-33.2 14.6,-68.8 2,-100.2 -2.4,-6 -15.9,-35.8 -41.2,-29.8 -4,1 -8.1,-1.3 -9.4,-5.2 L 334,76 C 324.4,53.6 308.6,36.5 288.2,26.6 267.6,16.6 244.4,14.9 221.1,21.6 181.6,33 149,59.4 131.8,93.9 c -10.1,20.2 -14.9,43.1 -13.9,66.4 1.8,44.5 20.6,86.7 50.4,117 -14,-18.7 -21.6,-41.4 -21.6,-65.2 v -17.8 c 0,-5.7 4.5,-10.3 10.2,-10.5 5.8,-0.6 89.9,-10 137.3,-96.7 l 2.6,-4.8 5.5,0.8 c 10.2,1.4 19.9,5.2 28.9,11.2 21.6,14.4 34.3,38.8 33.9,65.5 l -0.1,9.7 v 41.2 z"
       id="path10"
       inkscape:connector-curvature="0" /></g></svg>