<?xml version="1.0" encoding="UTF-8" standalone="no"?>
<svg
   xmlns:dc="http://purl.org/dc/elements/1.1/"
   xmlns:cc="http://creativecommons.org/ns#"
   xmlns:rdf="http://www.w3.org/1999/02/22-rdf-syntax-ns#"
   xmlns:svg="http://www.w3.org/2000/svg"
   xmlns="http://www.w3.org/2000/svg"
   xmlns:sodipodi="http://sodipodi.sourceforge.net/DTD/sodipodi-0.dtd"
   xmlns:inkscape="http://www.inkscape.org/namespaces/inkscape"
   version="1.1"
   x="0px"
   y="0px"
   viewBox="0 0 73.046997 83.5"
   enable-background="new 0 0 96 96"
   xml:space="preserve"
   id="svg44"
   sodipodi:docname="media.svg"
   width="73.046997"
   height="83.5"
   inkscape:version="0.92.4 (5da689c313, 2019-01-14)"><metadata
     id="metadata50"><rdf:RDF><cc:Work
         rdf:about=""><dc:format>image/svg+xml</dc:format><dc:type
           rdf:resource="http://purl.org/dc/dcmitype/StillImage" /><dc:title></dc:title></cc:Work></rdf:RDF></metadata><defs
     id="defs48" /><sodipodi:namedview
     pagecolor="#ffffff"
     bordercolor="#666666"
     borderopacity="1"
     objecttolerance="10"
     gridtolerance="10"
     guidetolerance="10"
     inkscape:pageopacity="0"
     inkscape:pageshadow="2"
     inkscape:window-width="640"
     inkscape:window-height="480"
     id="namedview46"
     showgrid="false"
     fit-margin-top="0"
     fit-margin-left="0"
     fit-margin-right="0"
     fit-margin-bottom="0"
     inkscape:zoom="1.9666667"
     inkscape:cx="36.523"
     inkscape:cy="29.750007"
     inkscape:window-x="0"
     inkscape:window-y="0"
     inkscape:window-maximized="0"
     inkscape:current-layer="svg44" /><path
     d="M 15.675,83.5 H 57.37 V 0 H 15.675 Z M 36.523,26.195 c 8.577,0 15.555,6.978 15.555,15.555 0,8.577 -6.978,15.555 -15.555,15.555 -8.577,0 -15.555,-6.978 -15.555,-15.555 0,-8.577 6.978,-15.555 15.555,-15.555 z"
     id="path2"
     inkscape:connector-curvature="0" /><rect
     x="58.870998"
     y="66.015999"
     width="14.176"
     height="10.257"
     id="rect4" /><rect
     x="58.870998"
     y="77.772003"
     width="14.176"
     height="5.7280002"
     id="rect6" /><polygon
     points="46.441,51.604 51.537,48.001 46.441,44.396 "
     id="polygon8"
     transform="translate(-11.477,-6.25)" /><path
     d="m 36.523,55.805 c 7.75,0 14.055,-6.305 14.055,-14.055 0,-7.75 -6.305,-14.055 -14.055,-14.055 -7.75,0 -14.055,6.305 -14.055,14.055 0,7.75 6.305,14.055 14.055,14.055 z m -3.059,-20.557 9.193,6.503 -9.193,6.501 z"
     id="path10"
     inkscape:connector-curvature="0" /><rect
     x="58.870998"
     y="30.743999"
     width="14.176"
     height="10.257"
     id="rect12" /><rect
     x="58.870998"
     y="54.257999"
     width="14.176"
     height="10.258"
     id="rect14" /><rect
     x="58.870998"
     y="42.500999"
     width="14.176"
     height="10.257"
     id="rect16" /><polygon
     points="22.918,6.25 11.477,6.25 11.477,11.98 25.652,11.98 25.652,6.25 "
     id="polygon18"
     transform="translate(-11.477,-6.25)" /><rect
     x="2.3651123e-07"
     y="54.257999"
     width="14.176"
     height="10.258"
     id="rect20" /><rect
     x="2.3651123e-07"
     y="66.015999"
     width="14.176"
     height="10.257"
     id="rect22" /><rect
     x="2.3651123e-07"
     y="77.772003"
     width="14.176"
     height="5.7280002"
     id="rect24" /><rect
     x="2.3651123e-07"
     y="18.986"
     width="14.176"
     height="10.258"
     id="rect26" /><rect
     x="2.3651123e-07"
     y="7.2299995"
     width="14.176"
     height="10.256"
     id="rect28" /><rect
     x="58.870998"
     y="18.986"
     width="14.176"
     height="10.258"
     id="rect30" /><rect
     x="2.3651123e-07"
     y="30.743999"
     width="14.176"
     height="10.257"
     id="rect32" /><rect
     x="58.870998"
     y="7.2299995"
     width="14.176"
     height="10.256"
     id="rect34" /><polygon
     points="70.816,6.25 70.348,6.25 70.348,11.98 84.523,11.98 84.523,6.25 "
     id="polygon36"
     transform="translate(-11.477,-6.25)" /><rect
     x="2.3651123e-07"
     y="42.500999"
     width="14.176"
     height="10.257"
     id="rect38" /></svg>