<?xml version="1.0" encoding="UTF-8" standalone="no"?>
<svg
   xmlns:dc="http://purl.org/dc/elements/1.1/"
   xmlns:cc="http://creativecommons.org/ns#"
   xmlns:rdf="http://www.w3.org/1999/02/22-rdf-syntax-ns#"
   xmlns:svg="http://www.w3.org/2000/svg"
   xmlns="http://www.w3.org/2000/svg"
   xmlns:sodipodi="http://sodipodi.sourceforge.net/DTD/sodipodi-0.dtd"
   xmlns:inkscape="http://www.inkscape.org/namespaces/inkscape"
   version="1.1"
   x="0px"
   y="0px"
   viewBox="0 0 95 118.75"
   enable-background="new 0 0 95 95"
   xml:space="preserve"
   id="svg4384"
   sodipodi:docname="video.svg"
   inkscape:version="0.92.4 (unknown)"><metadata
     id="metadata4390"><rdf:RDF><cc:Work
         rdf:about=""><dc:format>image/svg+xml</dc:format><dc:type
           rdf:resource="http://purl.org/dc/dcmitype/StillImage" /></cc:Work></rdf:RDF></metadata><defs
     id="defs4388" /><sodipodi:namedview
     pagecolor="#ffffff"
     bordercolor="#666666"
     borderopacity="1"
     objecttolerance="10"
     gridtolerance="10"
     guidetolerance="10"
     inkscape:pageopacity="0"
     inkscape:pageshadow="2"
     inkscape:window-width="1920"
     inkscape:window-height="1029"
     id="namedview4386"
     showgrid="false"
     inkscape:zoom="1.9873684"
     inkscape:cx="47.5"
     inkscape:cy="59.375"
     inkscape:window-x="0"
     inkscape:window-y="25"
     inkscape:window-maximized="1"
     inkscape:current-layer="svg4384" /><g
     id="g4378"><path
       d="M56.419,46.813l-11.313-5.375c-0.794-0.379-1.442,0.033-1.442,0.912v10.299c0,0.877,0.648,1.289,1.442,0.912l11.313-5.377   C57.213,47.808,57.213,47.19,56.419,46.813z"
       id="path4374" /><path
       d="M84.063,12.792H10.935c-2.366,0-4.284,1.918-4.284,4.285v60.846c0,2.367,1.918,4.285,4.284,4.285h73.129   c2.368,0,4.286-1.918,4.286-4.285V17.077C88.35,14.71,86.432,12.792,84.063,12.792z M42.643,18.29c0-1.182,0.961-2.143,2.143-2.143   h5.429c1.183,0,2.142,0.961,2.142,2.143v5.428c0,1.184-0.959,2.143-2.142,2.143h-5.429c-1.182,0-2.143-0.959-2.143-2.143V18.29z    M27.324,18.29c0-1.182,0.959-2.143,2.142-2.143h5.429c1.182,0,2.143,0.961,2.143,2.143v5.428c0,1.184-0.961,2.143-2.143,2.143   h-5.429c-1.183,0-2.142-0.959-2.142-2.143V18.29z M21.717,76.708c0,1.184-0.959,2.143-2.142,2.143h-5.427   c-1.182,0-2.143-0.959-2.143-2.143V71.28c0-1.182,0.961-2.143,2.143-2.143h5.427c1.183,0,2.142,0.961,2.142,2.143V76.708z    M21.717,23.718c0,1.184-0.959,2.143-2.142,2.143h-5.427c-1.182,0-2.143-0.959-2.143-2.143V18.29c0-1.182,0.961-2.143,2.143-2.143   h5.427c1.183,0,2.142,0.961,2.142,2.143V23.718z M37.037,76.708c0,1.184-0.961,2.143-2.143,2.143h-5.429   c-1.183,0-2.142-0.959-2.142-2.143V71.28c0-1.182,0.959-2.143,2.142-2.143h5.429c1.182,0,2.143,0.961,2.143,2.143V76.708z    M33.111,47.499c0-8.551,6.935-15.486,15.485-15.486c8.554,0,15.487,6.936,15.487,15.486c0,8.553-6.934,15.486-15.487,15.486   C40.046,62.985,33.111,56.052,33.111,47.499z M52.355,76.708c0,1.184-0.959,2.143-2.142,2.143h-5.429   c-1.182,0-2.143-0.959-2.143-2.143V71.28c0-1.182,0.961-2.143,2.143-2.143h5.429c1.183,0,2.142,0.961,2.142,2.143V76.708z    M67.674,76.708c0,1.184-0.958,2.143-2.143,2.143h-5.428c-1.184,0-2.143-0.959-2.143-2.143V71.28c0-1.182,0.959-2.143,2.143-2.143   h5.428c1.185,0,2.143,0.961,2.143,2.143V76.708z M67.674,23.718c0,1.184-0.958,2.143-2.143,2.143h-5.428   c-1.184,0-2.143-0.959-2.143-2.143V18.29c0-1.182,0.959-2.143,2.143-2.143h5.428c1.185,0,2.143,0.961,2.143,2.143V23.718z    M82.993,76.708c0,1.184-0.96,2.143-2.145,2.143h-5.427c-1.182,0-2.143-0.959-2.143-2.143V71.28c0-1.182,0.961-2.143,2.143-2.143   h5.427c1.185,0,2.145,0.961,2.145,2.143V76.708z M82.993,23.718c0,1.184-0.96,2.143-2.145,2.143h-5.427   c-1.182,0-2.143-0.959-2.143-2.143V18.29c0-1.182,0.961-2.143,2.143-2.143h5.427c1.185,0,2.145,0.961,2.145,2.143V23.718z"
       id="path4376" /></g></svg>