<?xml version="1.0" encoding="UTF-8" standalone="no"?>
<svg
   xmlns:dc="http://purl.org/dc/elements/1.1/"
   xmlns:cc="http://creativecommons.org/ns#"
   xmlns:rdf="http://www.w3.org/1999/02/22-rdf-syntax-ns#"
   xmlns:svg="http://www.w3.org/2000/svg"
   xmlns="http://www.w3.org/2000/svg"
   xmlns:sodipodi="http://sodipodi.sourceforge.net/DTD/sodipodi-0.dtd"
   xmlns:inkscape="http://www.inkscape.org/namespaces/inkscape"
   version="1.1"
   x="0px"
   y="0px"
   viewBox="0 0 53.866955 48.002472"
   enable-background="new 0 0 50 50"
   xml:space="preserve"
   id="svg12"
   sodipodi:docname="documentation.svg"
   width="53.866955"
   height="48.002472"
   inkscape:version="0.92.4 (unknown)"><metadata
     id="metadata18"><rdf:RDF><cc:Work
         rdf:about=""><dc:format>image/svg+xml</dc:format><dc:type
           rdf:resource="http://purl.org/dc/dcmitype/StillImage" /><dc:title></dc:title></cc:Work></rdf:RDF></metadata><defs
     id="defs16" /><sodipodi:namedview
     pagecolor="#ffffff"
     bordercolor="#666666"
     borderopacity="1"
     objecttolerance="10"
     gridtolerance="10"
     guidetolerance="10"
     inkscape:pageopacity="0"
     inkscape:pageshadow="2"
     inkscape:window-width="1436"
     inkscape:window-height="857"
     id="namedview14"
     showgrid="false"
     fit-margin-top="0"
     fit-margin-left="0"
     fit-margin-right="0"
     fit-margin-bottom="0"
     inkscape:zoom="21.360282"
     inkscape:cx="12.704569"
     inkscape:cy="11.151002"
     inkscape:window-x="0"
     inkscape:window-y="25"
     inkscape:window-maximized="0"
     inkscape:current-layer="svg12" /><g
     id="g6"
     transform="translate(10.917493,-0.99872973)"><path
       d="M 21.1562,1.7327 H 8.277 c -0.6773,0 -1.2264,0.5491 -1.2264,1.2264 v 44.8157 c 0,0.6774 0.5491,1.2264 1.2264,1.2264 h 12.8792 c 0.6774,0 1.2264,-0.5491 1.2264,-1.2264 V 2.9592 c 0,-0.6774 -0.5491,-1.2265 -1.2264,-1.2265 z m -6.4396,40.7592 c -1.7217,0 -3.1174,-1.3957 -3.1174,-3.1174 0,-1.7217 1.3958,-3.1174 3.1174,-3.1174 1.7216,0 3.1174,1.3957 3.1174,3.1174 0,1.7217 -1.3957,3.1174 -3.1174,3.1174 z m 5.1047,-23.2843 c 0,0.313 -0.2537,0.5667 -0.5668,0.5667 h -9.0703 c -0.313,0 -0.5668,-0.2537 -0.5668,-0.5667 V 18.035 c 0,-0.313 0.2538,-0.5668 0.5668,-0.5668 h 9.0703 c 0.313,0 0.5668,0.2537 0.5668,0.5668 z m 0,-5.4515 c 0,0.313 -0.2537,0.5668 -0.5668,0.5668 h -9.0703 c -0.313,0 -0.5668,-0.2537 -0.5668,-0.5668 v -1.1726 c 0,-0.313 0.2538,-0.5667 0.5668,-0.5667 h 9.0703 c 0.313,0 0.5668,0.2537 0.5668,0.5667 z m 0,-5.4515 c 0,0.313 -0.2537,0.5668 -0.5668,0.5668 h -9.0703 c -0.313,0 -0.5668,-0.2538 -0.5668,-0.5668 V 7.132 c 0,-0.313 0.2538,-0.5668 0.5668,-0.5668 h 9.0703 c 0.313,0 0.5668,0.2538 0.5668,0.5668 z"
       id="path2"
       inkscape:connector-curvature="0" /><path
       d="M 40.374,2.1547 C 40.3351,1.4785 39.7554,0.9618 39.0792,1.0008 L 26.2213,1.7403 c -0.6762,0.0389 -1.1929,0.6186 -1.154,1.2948 l 2.5734,44.7418 c 0.0389,0.6762 0.6186,1.1929 1.2948,1.154 l 12.8579,-0.7396 c 0.6762,-0.0389 1.1929,-0.6186 1.154,-1.2948 z M 27.9496,8.4435 27.857,6.8345 C 27.846,6.643 27.9923,6.4789 28.1837,6.4679 l 9.4936,-0.5461 c 0.1915,-0.011 0.3557,0.1353 0.3666,0.3268 l 0.0925,1.6089 c 0.011,0.1915 -0.1353,0.3556 -0.3267,0.3666 L 28.3161,8.7702 C 28.1247,8.7812 27.9606,8.6349 27.9496,8.4435 Z m 0.313,5.4425 -0.0925,-1.6089 c -0.011,-0.1915 0.1353,-0.3556 0.3267,-0.3666 l 9.4936,-0.5461 c 0.1915,-0.011 0.3556,0.1353 0.3666,0.3268 l 0.0925,1.6089 c 0.011,0.1915 -0.1353,0.3556 -0.3268,0.3666 l -9.4935,0.546 c -0.1915,0.011 -0.3556,-0.1353 -0.3666,-0.3267 z m 6.728,28.1765 c -1.7188,0.0989 -3.1924,-1.2144 -3.2913,-2.9333 -0.0989,-1.7188 1.2144,-3.1924 2.9333,-3.2913 1.7189,-0.0989 3.1924,1.2144 3.2913,2.9333 0.0989,1.7188 -1.2144,3.1924 -2.9333,3.2913 z m 3.4452,-22.9533 -9.4936,0.546 c -0.1915,0.011 -0.3556,-0.1353 -0.3666,-0.3268 l -0.0925,-1.6089 c -0.011,-0.1915 0.1353,-0.3556 0.3268,-0.3666 l 9.4936,-0.5461 c 0.1915,-0.011 0.3556,0.1353 0.3666,0.3268 l 0.0926,1.6089 c 0.0109,0.1916 -0.1354,0.3557 -0.3269,0.3667 z"
       id="path4"
       inkscape:connector-curvature="0" /></g><path
     id="path2-6"
     d="M 14.1056,0.66446017 H 1.2263999 C 0.5491,0.66446017 0,1.2135602 0,1.8908602 V 46.70656 c 0,0.6774 0.5491,1.2264 1.2263999,1.2264 H 14.1056 c 0.6774,0 1.2264,-0.5491 1.2264,-1.2264 V 1.8909602 c 0,-0.6774 -0.5491,-1.22650003 -1.2264,-1.22650003 z M 7.6659999,41.42366 c -1.7217,0 -3.1174,-1.3957 -3.1174,-3.1174 0,-1.7217 1.3958,-3.1174 3.1174,-3.1174 1.7216,0 3.1174001,1.3957 3.1174001,3.1174 0,1.7217 -1.3957001,3.1174 -3.1174001,3.1174 z M 12.7707,18.13936 c 0,0.313 -0.2537,0.5667 -0.5668,0.5667 H 3.1335999 c -0.313,0 -0.5668,-0.2537 -0.5668,-0.5667 v -1.1726 c 0,-0.313 0.2538,-0.5668 0.5668,-0.5668 H 12.2039 c 0.313,0 0.5668,0.2537 0.5668,0.5668 z m 0,-5.4515 c 0,0.313 -0.2537,0.5668 -0.5668,0.5668 H 3.1335999 c -0.313,0 -0.5668,-0.2537 -0.5668,-0.5668 v -1.1726 c 0,-0.313 0.2538,-0.5667 0.5668,-0.5667 H 12.2039 c 0.313,0 0.5668,0.2537 0.5668,0.5667 z m 0,-5.4514998 c 0,0.313 -0.2537,0.5668 -0.5668,0.5668 H 3.1335999 c -0.313,0 -0.5668,-0.2538 -0.5668,-0.5668 v -1.1726 c 0,-0.313 0.2538,-0.5668 0.5668,-0.5668 H 12.2039 c 0.313,0 0.5668,0.2538 0.5668,0.5668 z"
     inkscape:connector-curvature="0" /></svg>