<svg xmlns:dc="http://purl.org/dc/elements/1.1/" xmlns:cc="http://creativecommons.org/ns#" xmlns:rdf="http://www.w3.org/1999/02/22-rdf-syntax-ns#" xmlns:svg="http://www.w3.org/2000/svg" xmlns="http://www.w3.org/2000/svg" xmlns:sodipodi="http://sodipodi.sourceforge.net/DTD/sodipodi-0.dtd" xmlns:inkscape="http://www.inkscape.org/namespaces/inkscape" version="1.1" x="0px" y="0px" viewBox="0 0 100 125"><g transform="translate(0,-952.36218)"><path style="font-size:medium;font-style:normal;font-variant:normal;font-weight:normal;font-stretch:normal;text-indent:0;text-align:start;text-decoration:none;line-height:normal;letter-spacing:normal;word-spacing:normal;text-transform:none;direction:ltr;block-progression:tb;writing-mode:lr-tb;text-anchor:start;baseline-shift:baseline;opacity:1;color:#000000;fill:#000000;fill-opacity:1;stroke:none;stroke-width:3.99999905000000000;marker:none;visibility:visible;display:inline;overflow:visible;enable-background:accumulate;font-family:Sans;-inkscape-font-specification:Sans" d="M 50 3 C 24.066302 3 3 24.0663 3 50 C 3 75.9337 24.066302 97 50 97 C 75.933699 97 97 75.9337 97 50 C 97 24.0663 75.933699 3 50 3 z M 50 7 C 73.771937 7 93 26.22806 93 50 C 93 61.158877 88.767443 71.331205 81.8125 78.96875 C 76.964887 66.112508 64.560836 57 50 57 C 35.439164 57 23.035113 66.112508 18.1875 78.96875 C 11.232557 71.331205 7 61.158877 7 50 C 7 26.22806 26.228064 7 50 7 z M 50 17 C 40.082566 17 32 25.08256 32 35 C 32 44.91744 40.082563 53 50 53 C 59.917437 53 68 44.91744 68 35 C 68 25.08256 59.917434 17 50 17 z M 50 21 C 57.755676 21 64 27.24432 64 35 C 64 42.75568 57.755673 49 50 49 C 42.244327 49 36 42.75568 36 35 C 36 27.24432 42.244324 21 50 21 z M 50 61 C 63.53199 61 74.872606 69.83481 78.65625 82.0625 C 71.051565 88.86599 61.021963 93 50 93 C 38.978037 93 28.948435 88.86599 21.34375 82.0625 C 25.127394 69.83481 36.46801 61 50 61 z " transform="translate(0,952.36218)"/></g><text x="0" y="115" fill="#000000" font-size="5px" font-weight="bold" font-family="'Helvetica Neue', Helvetica, Arial-Unicode, Arial, Sans-serif">Created by beth bolton</text><text x="0" y="120" fill="#000000" font-size="5px" font-weight="bold" font-family="'Helvetica Neue', Helvetica, Arial-Unicode, Arial, Sans-serif">from the Noun Project</text></svg>