<?xml version="1.0" encoding="UTF-8" standalone="no"?>
<svg
   xmlns:dc="http://purl.org/dc/elements/1.1/"
   xmlns:cc="http://creativecommons.org/ns#"
   xmlns:rdf="http://www.w3.org/1999/02/22-rdf-syntax-ns#"
   xmlns:svg="http://www.w3.org/2000/svg"
   xmlns="http://www.w3.org/2000/svg"
   xmlns:sodipodi="http://sodipodi.sourceforge.net/DTD/sodipodi-0.dtd"
   xmlns:inkscape="http://www.inkscape.org/namespaces/inkscape"
   data-name="Layer 1"
   viewBox="0 0 166.42 126.25018"
   x="0px"
   y="0px"
   version="1.1"
   id="svg24"
   sodipodi:docname="vault.svg"
   width="166.42"
   height="126.25018"
   inkscape:version="0.92.4 (unknown)">
  <metadata
     id="metadata30">
    <rdf:RDF>
      <cc:Work
         rdf:about="">
        <dc:format>image/svg+xml</dc:format>
        <dc:type
           rdf:resource="http://purl.org/dc/dcmitype/StillImage" />
        <dc:title>Safe</dc:title>
      </cc:Work>
    </rdf:RDF>
  </metadata>
  <defs
     id="defs28" />
  <sodipodi:namedview
     pagecolor="#ffffff"
     bordercolor="#666666"
     borderopacity="1"
     objecttolerance="10"
     gridtolerance="10"
     guidetolerance="10"
     inkscape:pageopacity="0"
     inkscape:pageshadow="2"
     inkscape:window-width="640"
     inkscape:window-height="480"
     id="namedview26"
     showgrid="false"
     fit-margin-top="0"
     fit-margin-left="0"
     fit-margin-right="0"
     fit-margin-bottom="0"
     inkscape:zoom="1.4954455"
     inkscape:cx="83.184998"
     inkscape:cy="47.34375"
     inkscape:window-x="51"
     inkscape:window-y="27"
     inkscape:window-maximized="0"
     inkscape:current-layer="svg24" />
  <title
     id="title2">Safe</title>
  <path
     d="M 159.37,1.7857372e-4 H 7 A 7,7 0 0 0 0,7.0001786 V 124.25018 a 2,2 0 0 0 2,2 h 35.71 a 2,2 0 0 0 2,-2 v -4.25 h 87 v 4.25 a 2,2 0 0 0 2,2 h 35.71 a 2,2 0 0 0 2,-2 V 7.0001786 A 7,7 0 0 0 159.37,1.7857372e-4 Z M 159.92,40.340179 a 5.15,5.15 0 0 1 -5.14,5.14 h -4.59 v 28.77 h 4.59 a 5.15,5.15 0 0 1 5.14,5.14 v 6.36 a 5.15,5.15 0 0 1 -5.14,5.14 h -4.59 v 10.000001 a 4.17,4.17 0 0 1 -4.17,4.17 H 14.33 a 4.17,4.17 0 0 1 -4.17,-4.17 V 15.890179 a 4.17,4.17 0 0 1 4.17,-4.17 h 131.69 a 4.17,4.17 0 0 1 4.17,4.17 v 12.9 h 4.59 a 5.15,5.15 0 0 1 5.14,5.14 z"
     id="path4"
     inkscape:connector-curvature="0" />
  <rect
     x="140.46001"
     y="76.700172"
     width="16.959999"
     height="11.69"
     rx="2.6400001"
     ry="2.6400001"
     id="rect6" />
  <rect
     x="140.46001"
     y="31.29018"
     width="16.959999"
     height="11.69"
     rx="2.6400001"
     ry="2.6400001"
     id="rect8" />
  <path
     d="m 40.47,41.940179 a 9.93,9.93 0 0 0 -7.3,16.67 v -5.36 a 7.3,7.3 0 0 1 14.6,0 v 5.31 a 9.93,9.93 0 0 0 -7.3,-16.62 z"
     id="path10"
     inkscape:connector-curvature="0" />
  <path
     d="m 40.47,47.940179 a 5.36,5.36 0 0 0 -5.35,5.31 v 27.22 a 5.35,5.35 0 1 0 10.7,0 v -27.22 a 5.36,5.36 0 0 0 -5.35,-5.31 z"
     id="path12"
     inkscape:connector-curvature="0" />
  <path
     d="m 137.96,85.750179 v -6.4 a 5.15,5.15 0 0 1 5.14,-5.1 h 4.61 v -28.76 h -4.59 a 5.15,5.15 0 0 1 -5.14,-5.14 v -6.41 a 5.15,5.15 0 0 1 5.14,-5.14 h 4.59 v -12.87 a 1.67,1.67 0 0 0 -1.69,-1.68 H 14.33 a 1.67,1.67 0 0 0 -1.62,1.68 v 85.000001 a 1.67,1.67 0 0 0 1.67,1.67 h 131.64 a 1.67,1.67 0 0 0 1.67,-1.67 V 90.930179 h -4.59 a 5.15,5.15 0 0 1 -5.14,-5.18 z m -90.19,-24.5 v 19.22 a 7.3,7.3 0 0 1 -14.6,0 v -19.22 a 11.89,11.89 0 1 1 14.6,0 z m 68.52,14.39 a 24.16,24.16 0 0 1 -17.2,7.12 25.93,25.93 0 0 1 -6.9,-0.95 23.72,23.72 0 0 1 -16.48,-16.49 24.42,24.42 0 0 1 30.28,-30.28 23.72,23.72 0 0 1 16.47,16.47 24.45,24.45 0 0 1 -6.18,24.11 z"
     id="path14"
     inkscape:connector-curvature="0" />
  <path
     d="m 118.39,56.710179 h 3 a 24.18,24.18 0 0 0 -0.81,-4.68 21.38,21.38 0 0 0 -1.24,-3.34 l -2.68,1.56 a 0.46,0.46 0 0 1 -0.63,-0.17 l -1.25,-2.16 a 0.46,0.46 0 0 1 0.17,-0.63 l 2.76,-1.58 a 21.89,21.89 0 0 0 -5.88,-5.88 l -1.57,2.72 a 0.46,0.46 0 0 1 -0.63,0.17 l -2.16,-1.25 a 0.46,0.46 0 0 1 -0.17,-0.63 l 1.55,-2.68 a 21.38,21.38 0 0 0 -3.34,-1.24 24.23,24.23 0 0 0 -4.67,-0.81 v 3 a 0.46,0.46 0 0 1 -0.46,0.46 h -2.49 a 0.46,0.46 0 0 1 -0.46,-0.46 v -3 a 22.23,22.23 0 0 0 -8,2.13 l 1.5,2.59 a 0.46,0.46 0 0 1 -0.17,0.63 l -2.16,1.25 a 0.46,0.46 0 0 1 -0.63,-0.17 l -1.5,-2.6 a 22,22 0 0 0 -5.83,5.83 l 2.6,1.5 a 0.46,0.46 0 0 1 0.17,0.63 l -1.25,2.16 a 0.46,0.46 0 0 1 -0.63,0.17 l -2.61,-1.51 a 22.26,22.26 0 0 0 -2.11,8 h 3 a 0.46,0.46 0 0 1 0.46,0.46 v 2.49 a 0.46,0.46 0 0 1 -0.46,0.46 h -3 a 24.18,24.18 0 0 0 0.81,4.68 21.38,21.38 0 0 0 1.24,3.34 l 2.68,-1.55 a 0.46,0.46 0 0 1 0.63,0.17 l 1.25,2.16 a 0.46,0.46 0 0 1 -0.17,0.63 l -2.72,1.57 a 21.88,21.88 0 0 0 5.88,5.88 l 1.54,-2.76 a 0.46,0.46 0 0 1 0.63,-0.17 l 2.13,1.28 a 0.46,0.46 0 0 1 0.17,0.63 l -1.55,2.68 a 21.38,21.38 0 0 0 3.38,1.25 24.18,24.18 0 0 0 4.67,0.81 v -3 a 0.46,0.46 0 0 1 0.46,-0.46 h 2.49 a 0.46,0.46 0 0 1 0.46,0.46 v 3 a 22.25,22.25 0 0 0 8,-2.11 l -1.51,-2.61 a 0.46,0.46 0 0 1 0.17,-0.63 l 2.16,-1.25 a 0.46,0.46 0 0 1 0.63,0.17 l 1.5,2.6 a 22.17,22.17 0 0 0 5.83,-5.83 l -2.6,-1.5 a 0.46,0.46 0 0 1 -0.17,-0.63 l 1.25,-2.16 a 0.46,0.46 0 0 1 0.63,-0.17 l 2.61,1.51 a 22.26,22.26 0 0 0 2.11,-8 h -3 a 0.46,0.46 0 0 1 -0.46,-0.46 v -2.49 a 0.46,0.46 0 0 1 0.45,-0.46 z m -8.45,12.54 a 15.17,15.17 0 0 1 -10.83,4.5 16.65,16.65 0 0 1 -5.12,-0.82 14.72,14.72 0 0 1 -9.45,-9.45 15.44,15.44 0 0 1 19.63,-19.63 14.72,14.72 0 0 1 9.45,9.45 15.42,15.42 0 0 1 -3.68,15.95 z"
     id="path16"
     inkscape:connector-curvature="0" />
  <path
     d="m 103.26,46.680179 a 12.48,12.48 0 0 0 -15.91,15.92 11.93,11.93 0 0 0 7.55,7.55 13.42,13.42 0 0 0 4.22,0.69 12.26,12.26 0 0 0 8.75,-3.64 12.45,12.45 0 0 0 3,-13 11.93,11.93 0 0 0 -7.61,-7.52 z m 2.76,18.68 a 9.89,9.89 0 0 1 -10.31,2.32 9.31,9.31 0 0 1 -5.9,-5.9 9.9,9.9 0 0 1 2.32,-10.31 9.7,9.7 0 0 1 6.93,-2.88 10.76,10.76 0 0 1 3.38,0.56 9.31,9.31 0 0 1 5.9,5.9 9.9,9.9 0 0 1 -2.31,10.31 z"
     id="path18"
     inkscape:connector-curvature="0" />
</svg>
