<svg xmlns="http://www.w3.org/2000/svg" xmlns:xlink="http://www.w3.org/1999/xlink" version="1.1" x="0px" y="0px" viewBox="0 0 25 31.25" enable-background="new 0 0 25 25" xml:space="preserve"><g><g><path d="M16,12.5H6c-0.276,0-0.5,0.224-0.5,0.5s0.224,0.5,0.5,0.5h10c0.276,0,0.5-0.224,0.5-0.5S16.276,12.5,16,12.5z"/><path d="M14,16.5H6c-0.276,0-0.5,0.224-0.5,0.5s0.224,0.5,0.5,0.5h8c0.276,0,0.5-0.224,0.5-0.5S14.276,16.5,14,16.5z"/><path d="M20,2.5H5C3.622,2.5,2.5,3.621,2.5,5v15c0,1.379,1.122,2.5,2.5,2.5h15c1.378,0,2.5-1.121,2.5-2.5V5    C22.5,3.621,21.378,2.5,20,2.5z M5,3.5h15c0.827,0,1.5,0.673,1.5,1.5v3.5h-18V5C3.5,4.173,4.173,3.5,5,3.5z M20,21.5H5    c-0.827,0-1.5-0.673-1.5-1.5V9.5h18V20C21.5,20.827,20.827,21.5,20,21.5z"/><path d="M6,6.5h2c0.276,0,0.5-0.224,0.5-0.5S8.276,5.5,8,5.5H6C5.724,5.5,5.5,5.724,5.5,6S5.724,6.5,6,6.5z"/><path d="M10,6.5h2c0.276,0,0.5-0.224,0.5-0.5S12.276,5.5,12,5.5h-2C9.724,5.5,9.5,5.724,9.5,6S9.724,6.5,10,6.5z"/></g></g><text x="0" y="40" fill="#000000" font-size="5px" font-weight="bold" font-family="'Helvetica Neue', Helvetica, Arial-Unicode, Arial, Sans-serif">Created by Ralf Schmitzer</text><text x="0" y="45" fill="#000000" font-size="5px" font-weight="bold" font-family="'Helvetica Neue', Helvetica, Arial-Unicode, Arial, Sans-serif">from the Noun Project</text></svg>