<?xml version="1.0" encoding="UTF-8" standalone="no"?>
<svg
   xmlns:ns="http://ns.adobe.com/SaveForWeb/1.0/"
   xmlns:dc="http://purl.org/dc/elements/1.1/"
   xmlns:cc="http://creativecommons.org/ns#"
   xmlns:rdf="http://www.w3.org/1999/02/22-rdf-syntax-ns#"
   xmlns:svg="http://www.w3.org/2000/svg"
   xmlns="http://www.w3.org/2000/svg"
   xmlns:sodipodi="http://sodipodi.sourceforge.net/DTD/sodipodi-0.dtd"
   xmlns:inkscape="http://www.inkscape.org/namespaces/inkscape"
   version="1.1"
   x="0px"
   y="0px"
   viewBox="0 0 92.900002 75.300003"
   enable-background="new 0 0 100 100"
   xml:space="preserve"
   id="svg10"
   sodipodi:docname="control-panel.svg"
   width="92.900002"
   height="75.300003"
   inkscape:version="0.92.4 (unknown)"><defs
     id="defs14" /><sodipodi:namedview
     pagecolor="#ffffff"
     bordercolor="#666666"
     borderopacity="1"
     objecttolerance="10"
     gridtolerance="10"
     guidetolerance="10"
     inkscape:pageopacity="0"
     inkscape:pageshadow="2"
     inkscape:window-width="1920"
     inkscape:window-height="1029"
     id="namedview12"
     showgrid="false"
     fit-margin-top="0"
     fit-margin-left="0"
     fit-margin-right="0"
     fit-margin-bottom="0"
     inkscape:zoom="1.888"
     inkscape:cx="47.559322"
     inkscape:cy="25.2"
     inkscape:window-x="0"
     inkscape:window-y="25"
     inkscape:window-maximized="1"
     inkscape:current-layer="svg10" /><metadata
     id="metadata2"><ns:sfw><ns:slices /><ns:sliceSourceBounds
         width="1449"
         height="1446.4"
         y="-1446.7"
         x="0.5"
         bottomLeftOrigin="true" /></ns:sfw><rdf:RDF><cc:Work
         rdf:about=""><dc:format>image/svg+xml</dc:format><dc:type
           rdf:resource="http://purl.org/dc/dcmitype/StillImage" /><dc:title></dc:title></cc:Work></rdf:RDF></metadata><path
     d="M 85.8,0 H 7.2 C 3.2,0 0,3.2 0,7.2 v 60.9 c 0,4 3.2,7.2 7.2,7.2 h 78.5 c 4,0 7.2,-3.2 7.2,-7.2 V 7.1 C 92.9,3.2 89.7,0 85.8,0 Z M 7.2,5 h 78.5 c 1.2,0 2.2,1 2.2,2.2 V 17.6 H 5.1 V 7.1 C 5.1,5.9 6,5 7.2,5 Z M 85.8,70.2 H 7.2 C 6,70.2 5,69.2 5,68 V 22.5 H 87.9 V 68 c 0,1.3 -0.9,2.2 -2.1,2.2 z m -67.4,-59 c 0,-1.7 1.4,-3 3,-3 1.7,0 3,1.4 3,3 0,1.7 -1.4,3 -3,3 -1.6,0.1 -3,-1.3 -3,-3 z m 10,0 c 0,-1.7 1.4,-3 3,-3 1.6,0 3,1.4 3,3 0,1.7 -1.4,3 -3,3 -1.6,0 -3,-1.3 -3,-3 z m -20,0 c 0,-1.7 1.4,-3 3,-3 1.6,0 3,1.4 3,3 0,1.7 -1.4,3 -3,3 -1.6,0 -3,-1.3 -3,-3 z M 70,59.5 C 70,60.9 68.9,62 67.5,62 H 43.2 c -1.4,0 -2.5,-1.1 -2.5,-2.5 0,-1.4 1.1,-2.5 2.5,-2.5 h 24.3 c 1.4,0 2.5,1.1 2.5,2.5 z m -40,-7 c -3.9,0 -7,3.1 -7,7 0,3.9 3.1,7 7,7 3.9,0 7,-3.1 7,-7 0,-3.9 -3.1,-7 -7,-7 z m 0,9 c -1.1,0 -2,-0.9 -2,-2 0,-1.1 0.9,-2 2,-2 1.1,0 2,0.9 2,2 0,1.1 -0.9,2 -2,2 z M 23,46.8 c 0,-1.4 1.1,-2.5 2.5,-2.5 h 24 c 1.4,0 2.5,1.1 2.5,2.5 0,1.4 -1.1,2.5 -2.5,2.5 h -24 C 24.1,49.3 23,48.1 23,46.8 Z m 40,-7 c -3.9,0 -7,3.1 -7,7 0,3.9 3.1,7 7,7 3.9,0 7,-3.1 7,-7 0,-3.9 -3.2,-7 -7,-7 z m 0,9 c -1.1,0 -2,-0.9 -2,-2 0,-1.1 0.9,-2 2,-2 1.1,0 2,0.9 2,2 0,1.1 -0.9,2 -2,2 z M 70,34 c 0,1.4 -1.1,2.5 -2.5,2.5 H 43.2 c -1.4,0 -2.5,-1.1 -2.5,-2.5 0,-1.4 1.1,-2.5 2.5,-2.5 h 24.3 c 1.4,0 2.5,1.1 2.5,2.5 z m -40,7 c 3.9,0 7,-3.1 7,-7 0,-3.9 -3.1,-7 -7,-7 -3.9,0 -7,3.1 -7,7 0,3.8 3.2,7 7,7 z m 0,-9 c 1.1,0 2,0.9 2,2 0,1.1 -0.9,2 -2,2 -1.1,0 -2,-0.9 -2,-2 0,-1.1 0.9,-2 2,-2 z"
     id="path4"
     inkscape:connector-curvature="0" /></svg>