<?xml version="1.0" encoding="UTF-8" standalone="no"?>
<svg
   xmlns:dc="http://purl.org/dc/elements/1.1/"
   xmlns:cc="http://creativecommons.org/ns#"
   xmlns:rdf="http://www.w3.org/1999/02/22-rdf-syntax-ns#"
   xmlns:svg="http://www.w3.org/2000/svg"
   xmlns="http://www.w3.org/2000/svg"
   xmlns:sodipodi="http://sodipodi.sourceforge.net/DTD/sodipodi-0.dtd"
   xmlns:inkscape="http://www.inkscape.org/namespaces/inkscape"
   xml:space="preserve"
   version="1.1"
   style="clip-rule:evenodd;fill-rule:evenodd;image-rendering:optimizeQuality;shape-rendering:geometricPrecision;text-rendering:geometricPrecision"
   viewBox="0 0 7422 6796.9644"
   x="0px"
   y="0px"
   id="svg24"
   sodipodi:docname="book.svg"
   width="7422"
   height="6796.9644"
   inkscape:version="0.92.4 (unknown)"><metadata
     id="metadata28"><rdf:RDF><cc:Work
         rdf:about=""><dc:format>image/svg+xml</dc:format><dc:type
           rdf:resource="http://purl.org/dc/dcmitype/StillImage" /><dc:title></dc:title></cc:Work></rdf:RDF></metadata><sodipodi:namedview
     pagecolor="#ffffff"
     bordercolor="#666666"
     borderopacity="1"
     objecttolerance="10"
     gridtolerance="10"
     guidetolerance="10"
     inkscape:pageopacity="0"
     inkscape:pageshadow="2"
     inkscape:window-width="1920"
     inkscape:window-height="1029"
     id="namedview26"
     showgrid="false"
     fit-margin-top="0"
     fit-margin-left="0"
     fit-margin-right="0"
     fit-margin-bottom="0"
     inkscape:zoom="0.027863046"
     inkscape:cx="3782.7797"
     inkscape:cy="2562.0522"
     inkscape:window-x="0"
     inkscape:window-y="25"
     inkscape:window-maximized="1"
     inkscape:current-layer="svg24" /><defs
     id="defs4"><style
       type="text/css"
       id="style2">
   
    .fil0 {fill:black;fill-rule:nonzero}
   
  </style></defs><g
     id="g18"
     transform="translate(0,-0.08795151)"><path
       class="fil0"
       d="m 409,6117 c -42,14 -76,-15 -76,-52 V 836 C 221,869 109,907 0,949 V 6427 C 1030,6048 2050,6089 3052,6518 2257,6035 1312,5822 409,6117 Z"
       id="path6"
       inkscape:connector-curvature="0"
       style="fill:#000000;fill-rule:nonzero" /><path
       class="fil0"
       d="M 3656,6776 V 1346 C 2971,584 2023,-165 932,32 v 5484 c 1100,-175 2018,498 2724,1260 z"
       id="path8"
       inkscape:connector-curvature="0"
       style="fill:#000000;fill-rule:nonzero" /><path
       class="fil0"
       d="m 444,5991 c 998,-282 1929,-42 2765,494 -620,-569 -1446,-1029 -2318,-850 -39,8 -70,-18 -70,-53 V 422 c -127,21 -253,51 -377,88 z"
       id="path10"
       inkscape:connector-curvature="0"
       style="fill:#000000;fill-rule:nonzero" /><path
       class="fil0"
       d="M 6490,5516 V 32 C 5399,-165 4452,584 3767,1346 V 6776 C 4474,6012 5392,5341 6490,5516 Z"
       id="path12"
       inkscape:connector-curvature="0"
       style="fill:#000000;fill-rule:nonzero" /><path
       class="fil0"
       d="m 6978,510 c -123,-37 -250,-67 -377,-88 v 5160 c 0,35 -31,61 -70,53 -873,-179 -1697,281 -2318,850 850,-545 1783,-771 2765,-494 z"
       id="path14"
       inkscape:connector-curvature="0"
       style="fill:#000000;fill-rule:nonzero" /><path
       class="fil0"
       d="M 7422,949 C 7313,907 7201,869 7089,836 v 5229 c 0,37 -34,66 -76,52 -904,-295 -1845,-84 -2643,401 1003,-429 2022,-470 3052,-91 z"
       id="path16"
       inkscape:connector-curvature="0"
       style="fill:#000000;fill-rule:nonzero" /></g><text
     x="0"
     y="6790.9121"
     font-size="5px"
     font-weight="bold"
     id="text20"
     style="font-weight:bold;font-size:5px;font-family:'Helvetica Neue', Helvetica, Arial-Unicode, Arial, Sans-serif;fill:#000000">Created by joni</text>
<text
     x="0"
     y="6795.9121"
     font-size="5px"
     font-weight="bold"
     id="text22"
     style="font-weight:bold;font-size:5px;font-family:'Helvetica Neue', Helvetica, Arial-Unicode, Arial, Sans-serif;fill:#000000">from the Noun Project</text>
</svg>