<?xml version="1.0" encoding="UTF-8" standalone="no"?>
<svg
   xmlns:dc="http://purl.org/dc/elements/1.1/"
   xmlns:cc="http://creativecommons.org/ns#"
   xmlns:rdf="http://www.w3.org/1999/02/22-rdf-syntax-ns#"
   xmlns:svg="http://www.w3.org/2000/svg"
   xmlns="http://www.w3.org/2000/svg"
   xmlns:sodipodi="http://sodipodi.sourceforge.net/DTD/sodipodi-0.dtd"
   xmlns:inkscape="http://www.inkscape.org/namespaces/inkscape"
   viewBox="0 0 44 35.978874"
   version="1.1"
   x="0px"
   y="0px"
   id="svg10"
   sodipodi:docname="screen-share.svg"
   width="44"
   height="35.978874"
   inkscape:version="0.92.4 (unknown)">
  <metadata
     id="metadata16">
    <rdf:RDF>
      <cc:Work
         rdf:about="">
        <dc:format>image/svg+xml</dc:format>
        <dc:type
           rdf:resource="http://purl.org/dc/dcmitype/StillImage" />
        <dc:title></dc:title>
      </cc:Work>
    </rdf:RDF>
  </metadata>
  <defs
     id="defs14" />
  <sodipodi:namedview
     pagecolor="#ffffff"
     bordercolor="#666666"
     borderopacity="1"
     objecttolerance="10"
     gridtolerance="10"
     guidetolerance="10"
     inkscape:pageopacity="0"
     inkscape:pageshadow="2"
     inkscape:window-width="640"
     inkscape:window-height="480"
     id="namedview12"
     showgrid="false"
     fit-margin-top="0"
     fit-margin-left="0"
     fit-margin-right="0"
     fit-margin-bottom="0"
     inkscape:zoom="3.9333333"
     inkscape:cx="22"
     inkscape:cy="-32.852747"
     inkscape:window-x="0"
     inkscape:window-y="25"
     inkscape:window-maximized="0"
     inkscape:current-layer="svg10" />
  <path
     d="m 4,0 h 36 c 2.209139,0 4,1.790861 4,4 v 24 c 0,2.209139 -1.790861,4 -4,4 H 4 C 1.790861,32 0,30.209139 0,28 V 4 C 0,1.790861 1.790861,0 4,0 Z M 4,4 V 28 H 40 V 4 Z m 0,24 v 4 h 36 v -4 z"
     id="path2"
     inkscape:connector-curvature="0"
     style="fill:#000000;fill-rule:nonzero" />
  <path
     d="m 22.019066,24.83087 -6.092899,7.148004 h 12.185799 z m 10.861521,6.57627 c 2.152203,2.524899 1.212343,4.571734 -2.111846,4.571734 l -17.499349,0 c -3.318543,0 -4.272377,-2.037066 -2.111846,-4.571734 l 8.916937,-10.461079 c 1.073964,-1.259942 2.812692,-1.262888 3.889167,0 z"
     id="path4"
     inkscape:connector-curvature="0"
     style="fill:#000000;fill-rule:nonzero" />
</svg>
