<?xml version="1.0" encoding="UTF-8" standalone="no"?>
<svg
   xmlns:dc="http://purl.org/dc/elements/1.1/"
   xmlns:cc="http://creativecommons.org/ns#"
   xmlns:rdf="http://www.w3.org/1999/02/22-rdf-syntax-ns#"
   xmlns:svg="http://www.w3.org/2000/svg"
   xmlns="http://www.w3.org/2000/svg"
   xmlns:sodipodi="http://sodipodi.sourceforge.net/DTD/sodipodi-0.dtd"
   xmlns:inkscape="http://www.inkscape.org/namespaces/inkscape"
   version="1.1"
   x="0px"
   y="0px"
   viewBox="0 0 66 82.5"
   enable-background="new 0 0 66 66"
   xml:space="preserve"
   id="svg446"
   sodipodi:docname="graphics.svg"
   inkscape:version="0.92.4 (unknown)"><metadata
     id="metadata452"><rdf:RDF><cc:Work
         rdf:about=""><dc:format>image/svg+xml</dc:format><dc:type
           rdf:resource="http://purl.org/dc/dcmitype/StillImage" /></cc:Work></rdf:RDF></metadata><defs
     id="defs450" /><sodipodi:namedview
     pagecolor="#ffffff"
     bordercolor="#666666"
     borderopacity="1"
     objecttolerance="10"
     gridtolerance="10"
     guidetolerance="10"
     inkscape:pageopacity="0"
     inkscape:pageshadow="2"
     inkscape:window-width="640"
     inkscape:window-height="480"
     id="namedview448"
     showgrid="false"
     inkscape:zoom="2.8606061"
     inkscape:cx="33"
     inkscape:cy="41.25"
     inkscape:window-x="0"
     inkscape:window-y="25"
     inkscape:window-maximized="0"
     inkscape:current-layer="svg446" /><g
     id="g440"><g
       id="g418"><path
         d="M17.3,1.2c-1.5-0.6-3.1,0.1-3.7,1.6l-2.1,4.9H33L17.3,1.2z"
         id="path416" /></g><g
       id="g422"><path
         d="M48.7,64.8c1.6,0.6,3.2-0.2,3.7-1.5l2-4.9H33L48.7,64.8z"
         id="path420" /></g><g
       id="g426"><path
         d="M38.1,26c-1.9,0-3.5,1.5-3.5,3.5c0,1.9,1.5,3.5,3.5,3.5c1.9,0,3.5-1.5,3.5-3.5C41.5,27.6,40,26,38.1,26z"
         id="path424" /></g><g
       id="g430"><path
         d="M42.8,56.3L24.4,28.5L6,56.3c0,0,0,0,0,0h27.3H42.8z M17.8,48.3l-3.2,4.9c-0.3,0.5-0.9,0.6-1.4,0.3    c-0.5-0.3-0.6-0.9-0.3-1.4l3.2-4.9c0.3-0.5,0.9-0.6,1.4-0.3C18,47.2,18.1,47.9,17.8,48.3z M24.8,37.8L22.1,42    c-0.3,0.5-0.9,0.6-1.4,0.3c-0.5-0.3-0.6-0.9-0.3-1.4l2.8-4.2c0.3-0.5,0.9-0.6,1.4-0.3C25,36.7,25.1,37.3,24.8,37.8z"
         id="path428" /></g><g
       id="g434"><path
         d="M39.6,47.9l5.6,8.4H60c0,0,0,0,0,0c0,0,0,0,0,0L47.5,36.8C39.1,48.6,39.9,47.6,39.6,47.9z M50.9,48.9    c0.5-0.3,1.1-0.2,1.4,0.3l1.9,2.9c0.3,0.5,0.2,1.1-0.3,1.4c-0.5,0.3-1.1,0.2-1.4-0.3l-1.9-2.9C50.3,49.8,50.5,49.2,50.9,48.9z     M48.4,43.2l1.6,2.4c0.3,0.5,0.2,1.1-0.3,1.4c-0.5,0.3-1.1,0.2-1.4-0.3l-1.6-2.4c-0.3-0.5-0.2-1.1,0.3-1.4    C47.5,42.6,48.1,42.7,48.4,43.2z"
         id="path432" /></g><g
       id="g438"><path
         d="M60,9.7H6c-1.6,0-2.9,1.3-2.9,2.9v40.8c0,0.8,0.4,1.6,1,2.1l19.5-29.4c0.4-0.6,1.3-0.6,1.7,0l13.2,20l8.3-11.7    c0.4-0.6,1.3-0.5,1.7,0l13.5,21c0.6-0.5,0.9-1.3,0.9-2.1V12.6C62.9,11,61.6,9.7,60,9.7z M37.1,18.3c0-0.6,0.4-1,1-1    c0.6,0,1,0.4,1,1v2.2c0,0.6-0.4,1-1,1c-0.6,0-1-0.4-1-1V18.3z M32.3,18.3c0.5-0.2,1.1,0,1.3,0.5l0.9,2.1c0.2,0.5,0,1.1-0.5,1.3    c-0.5,0.2-1.1,0-1.3-0.5l-0.9-2.1C31.6,19.1,31.8,18.5,32.3,18.3z M38.1,34.9c-3,0-5.5-2.4-5.5-5.5c0-3,2.4-5.5,5.5-5.5    c3,0,5.5,2.4,5.5,5.5C43.5,32.5,41.1,34.9,38.1,34.9z M44.4,19.6l-0.9,2.1c-0.5,1.2-2.4,0.5-1.8-0.8l0.9-2.1    c0.2-0.5,0.8-0.8,1.3-0.5C44.3,18.5,44.6,19.1,44.4,19.6z"
         id="path436" /></g></g></svg>