<?xml version="1.0" encoding="UTF-8" standalone="no"?>
<svg
   xmlns:x="adobe:ns:meta/"
   xmlns:dc="http://purl.org/dc/elements/1.1/"
   xmlns:cc="http://creativecommons.org/ns#"
   xmlns:rdf="http://www.w3.org/1999/02/22-rdf-syntax-ns#"
   xmlns:svg="http://www.w3.org/2000/svg"
   xmlns="http://www.w3.org/2000/svg"
   xmlns:sodipodi="http://sodipodi.sourceforge.net/DTD/sodipodi-0.dtd"
   xmlns:inkscape="http://www.inkscape.org/namespaces/inkscape"
   version="1.1"
   x="0px"
   y="0px"
   viewBox="0 0 88.48864 88.595001"
   enable-background="new 0 0 100 100"
   xml:space="preserve"
   id="svg14"
   sodipodi:docname="phone-call.svg"
   width="88.48864"
   height="88.595001"
   inkscape:version="0.92.4 (unknown)"><defs
     id="defs18" /><sodipodi:namedview
     pagecolor="#ffffff"
     bordercolor="#666666"
     borderopacity="1"
     objecttolerance="10"
     gridtolerance="10"
     guidetolerance="10"
     inkscape:pageopacity="0"
     inkscape:pageshadow="2"
     inkscape:window-width="640"
     inkscape:window-height="480"
     id="namedview16"
     showgrid="false"
     fit-margin-top="0"
     fit-margin-left="0"
     fit-margin-right="0"
     fit-margin-bottom="0"
     inkscape:zoom="1.888"
     inkscape:cx="44.038522"
     inkscape:cy="31.798"
     inkscape:window-x="0"
     inkscape:window-y="25"
     inkscape:window-maximized="0"
     inkscape:current-layer="g8" /><metadata
     id="metadata2"><?xpacket begin="&#65279;" id="W5M0MpCehiHzreSzNTczkc9d"?><x:xmpmeta
       x:xmptk="Adobe XMP Core 5.6-c014 79.156821, 2014/08/29-03:07:50        " /><?xpacket end="w"?><rdf:RDF><cc:Work
         rdf:about=""><dc:format>image/svg+xml</dc:format><dc:type
           rdf:resource="http://purl.org/dc/dcmitype/StillImage" /><dc:title /></cc:Work></rdf:RDF></metadata><g
     id="g8"
     transform="translate(-5.9614784,-5.703)"><path
       d="M 91.455,70.566 C 90.46,69.777 82.109,63.291 76.741,59.125 l -0.044,-0.041 c -0.764,-0.763 -2.124,-1.236 -3.552,-1.236 -1.105,0 -3.204,0.282 -4.809,2.189 -0.034,0.039 -0.066,0.079 -0.095,0.123 -0.403,0.565 -2.96,4.337 -3.912,5.745 l -0.182,0.267 -0.316,-0.065 C 57.442,64.792 49.154,56.86 46.765,54.461 40.45,48.113 35.65,41.311 33.926,36.258 l -0.119,-0.351 0.307,-0.206 c 2.322,-1.559 5.005,-3.376 5.643,-3.832 0.099,-0.072 0.191,-0.153 0.276,-0.243 2.553,-2.7 2.579,-6.939 0.069,-9.67 L 40.026,21.868 C 36.173,17.021 29.693,8.866 29.377,8.471 29.368,8.461 29.362,8.452 29.354,8.442 28.248,7.118 26.264,5.703 24.011,5.703 c -1.683,0 -3.312,0.773 -4.845,2.296 L 19.092,8.068 C 15.274,11.392 9.312,16.586 8.467,17.331 8.401,17.389 8.338,17.453 8.28,17.52 4.855,21.5 5.226,28.878 9.384,39.445 c 4.237,10.773 11.528,21.664 20.53,30.668 7.47,7.469 15.988,13.693 24.635,17.995 8.016,3.992 15.397,6.19 20.782,6.19 h 10e-4 c 3.024,0 6.743,-2.215 11.056,-6.583 3.07,-3.111 5.31,-6.34 5.55,-6.689 0.064,-0.092 0.12,-0.188 0.167,-0.291 2.413,-3.296 2.242,-7.198 -0.461,-9.998 -0.059,-0.059 -0.123,-0.117 -0.189,-0.171 z"
       id="path4"
       inkscape:connector-curvature="0" /></g></svg>