<?xml version="1.0" encoding="UTF-8" standalone="no"?>
<svg
   xmlns:dc="http://purl.org/dc/elements/1.1/"
   xmlns:cc="http://creativecommons.org/ns#"
   xmlns:rdf="http://www.w3.org/1999/02/22-rdf-syntax-ns#"
   xmlns:svg="http://www.w3.org/2000/svg"
   xmlns="http://www.w3.org/2000/svg"
   xmlns:sodipodi="http://sodipodi.sourceforge.net/DTD/sodipodi-0.dtd"
   xmlns:inkscape="http://www.inkscape.org/namespaces/inkscape"
   version="1.1"
   x="0px"
   y="0px"
   viewBox="0 0 48.000317 34.263672"
   xml:space="preserve"
   id="svg12"
   sodipodi:docname="folder.svg"
   width="48.000317"
   height="34.263672"
   inkscape:version="0.92.4 (unknown)"><metadata
     id="metadata18"><rdf:RDF><cc:Work
         rdf:about=""><dc:format>image/svg+xml</dc:format><dc:type
           rdf:resource="http://purl.org/dc/dcmitype/StillImage" /><dc:title></dc:title></cc:Work></rdf:RDF></metadata><defs
     id="defs16" /><sodipodi:namedview
     pagecolor="#ffffff"
     bordercolor="#666666"
     borderopacity="1"
     objecttolerance="10"
     gridtolerance="10"
     guidetolerance="10"
     inkscape:pageopacity="0"
     inkscape:pageshadow="2"
     inkscape:window-width="640"
     inkscape:window-height="480"
     id="namedview14"
     showgrid="false"
     fit-margin-top="0"
     fit-margin-left="0"
     fit-margin-right="0"
     fit-margin-bottom="0"
     inkscape:zoom="3.6307692"
     inkscape:cx="24.000158"
     inkscape:cy="10.631836"
     inkscape:window-x="0"
     inkscape:window-y="25"
     inkscape:window-maximized="0"
     inkscape:current-layer="svg12" /><g
     id="g6"
     transform="translate(-1.9998421,-8.868164)"><path
       d="M 9.8484755,15.390625 H 44.961818 c -0.325501,-1.654785 -1.799561,-2.90918 -3.568421,-2.90918 H 19.513514 L 14.337733,8.868164 H 5.638514 c -2.0068357,0 -3.6386719,1.612305 -3.6386719,3.594727 V 38.071777 L 5.9246468,18.638672 c 0.381836,-1.882813 2.0322266,-3.248047 3.9238287,-3.248047 z"
       id="path2"
       inkscape:connector-curvature="0" /><path
       d="M 49.544765,18.146484 C 49.16293,17.666016 48.596523,17.390625 47.993008,17.390625 H 9.8484755 c -0.9443359,0 -1.7705078,0.691406 -1.9638677,1.643555 l -4.8593748,24.064453 41.061523,0.0332 5.858399,-23.200195 c 0.145509,-0.632813 -9.76e-4,-1.283204 -0.40039,-1.785157 z"
       id="path4"
       inkscape:connector-curvature="0" /></g></svg>