<svg xmlns="http://www.w3.org/2000/svg" data-name="Layer 1" viewBox="0 0 100 125" x="0px" y="0px"><title>A9</title><path d="M87.5,9.5h-75A7.5082,7.5082,0,0,0,5,17V83a7.5082,7.5082,0,0,0,7.5,7.5h75A7.5082,7.5082,0,0,0,95,83V17A7.5082,7.5082,0,0,0,87.5,9.5Zm0,76h-75A2.50263,2.50263,0,0,1,10,83V29.5H90V83A2.50263,2.50263,0,0,1,87.5,85.5ZM45.45679,56.79089a1.00289,1.00289,0,0,1,0,1.41822L24.97766,78.68787a1.0029,1.0029,0,0,1-1.41833-.00013L19.3208,74.44885a1.00288,1.00288,0,0,1,0-1.41821L34.85156,57.5,19.3208,41.96936a1.00288,1.00288,0,0,1,0-1.41821l4.23853-4.23889a1.0029,1.0029,0,0,1,1.41833-.00013Zm35.51587,13.1919v5.99756a1.00128,1.00128,0,0,1-1.00122,1.00122H50.97388a1.00128,1.00128,0,0,1-1.00122-1.00122V69.98279a1.00119,1.00119,0,0,1,1.00122-1.00122H79.97144A1.0012,1.0012,0,0,1,80.97266,69.98279Z"/><text x="0" y="115" fill="#000000" font-size="5px" font-weight="bold" font-family="'Helvetica Neue', Helvetica, Arial-Unicode, Arial, Sans-serif">Created by HrBonPro</text><text x="0" y="120" fill="#000000" font-size="5px" font-weight="bold" font-family="'Helvetica Neue', Helvetica, Arial-Unicode, Arial, Sans-serif">from the Noun Project</text></svg>