<?xml version="1.0" encoding="UTF-8" standalone="no"?>
<svg
   xmlns:dc="http://purl.org/dc/elements/1.1/"
   xmlns:cc="http://creativecommons.org/ns#"
   xmlns:rdf="http://www.w3.org/1999/02/22-rdf-syntax-ns#"
   xmlns:svg="http://www.w3.org/2000/svg"
   xmlns="http://www.w3.org/2000/svg"
   xmlns:sodipodi="http://sodipodi.sourceforge.net/DTD/sodipodi-0.dtd"
   xmlns:inkscape="http://www.inkscape.org/namespaces/inkscape"
   version="1.1"
   x="0px"
   y="0px"
   viewBox="0 0 58 58"
   xml:space="preserve"
   id="svg16"
   sodipodi:docname="hello.svg"
   width="58"
   height="58"
   inkscape:version="0.92.4 (unknown)"><metadata
     id="metadata22"><rdf:RDF><cc:Work
         rdf:about=""><dc:format>image/svg+xml</dc:format><dc:type
           rdf:resource="http://purl.org/dc/dcmitype/StillImage" /><dc:title></dc:title></cc:Work></rdf:RDF></metadata><defs
     id="defs20" /><sodipodi:namedview
     pagecolor="#ffffff"
     bordercolor="#666666"
     borderopacity="1"
     objecttolerance="10"
     gridtolerance="10"
     guidetolerance="10"
     inkscape:pageopacity="0"
     inkscape:pageshadow="2"
     inkscape:window-width="640"
     inkscape:window-height="480"
     id="namedview18"
     showgrid="false"
     fit-margin-top="0"
     fit-margin-left="0"
     fit-margin-right="0"
     fit-margin-bottom="0"
     inkscape:zoom="2.95"
     inkscape:cx="29"
     inkscape:cy="21"
     inkscape:window-x="0"
     inkscape:window-y="25"
     inkscape:window-maximized="0"
     inkscape:current-layer="svg16" /><g
     id="g10"
     transform="translate(-3,-3)"><path
       d="M 20,43 V 57 H 36 V 43 c 0,-0.266 0.105,-0.52 0.293,-0.707 L 39,39.586 V 35 c 0,-0.266 0.105,-0.52 0.293,-0.707 l 7.171,-7.172 C 46.805,26.78 47,26.31 47,25.828 47,24.82 46.18,24 45.171,24 c -0.488,0 -0.948,0.19 -1.293,0.535 l -3.171,3.172 C 40.52,27.895 40.265,28 40,28 h -1.373 c -4.007,0 -7.773,1.561 -10.607,4.394 l -0.313,0.313 -1.414,-1.414 0.313,-0.313 C 29.817,27.769 34.086,26 38.627,26 H 39 V 9 C 39,7.897 38.103,7 37,7 35.897,7 35,7.897 35,9 V 22 H 33 V 9 5 C 33,3.897 32.103,3 31,3 29.897,3 29,3.897 29,5 V 22 H 27 V 5 C 27,3.897 26.103,3 25,3 23.897,3 23,3.897 23,5 v 8 6 3 h -2 v -3 -6 c 0,-1.103 -0.897,-2 -2,-2 -1.103,0 -2,0.897 -2,2 v 26.586 l 2.707,2.707 C 19.895,42.48 20,42.734 20,43 Z"
       id="path2"
       inkscape:connector-curvature="0" /><rect
       x="3"
       y="59"
       width="58"
       height="2"
       id="rect4" /><path
       d="M 38.005,43.409 C 48.223,44.369 53,46.701 53,48 53,48.322 52.626,48.826 51.659,49.396 51.039,47.988 49.634,47 48,47 c -2.206,0 -4,1.794 -4,4 0,0.261 0.029,0.516 0.077,0.763 -1.86,0.344 -3.911,0.616 -6.077,0.82 v 2.006 c 2.516,-0.231 4.887,-0.552 7.003,-0.967 C 45.737,54.46 46.802,55 48,55 50.033,55 51.699,53.47 51.949,51.503 53.966,50.5 55,49.325 55,48 55,43.908 45.124,42.206 39.826,41.588 Z M 48,53 c -1.103,0 -2,-0.897 -2,-2 0,-1.103 0.897,-2 2,-2 1.103,0 2,0.897 2,2 0,1.103 -0.897,2 -2,2 z"
       id="path6"
       inkscape:connector-curvature="0" /><path
       d="M 18,54.388 V 52.385 C 9.445,51.359 5,49.278 5,48 5,47.628 5.493,47.027 6.788,46.361 7.516,47.35 8.68,48 10,48 c 2.129,0 3.858,-1.676 3.977,-3.775 1.252,-0.231 2.61,-0.424 4.023,-0.595 v -0.216 l -1.596,-1.596 c -0.974,0.135 -1.923,0.28 -2.817,0.445 C 12.937,40.929 11.581,40 10,40 7.794,40 6,41.794 6,44 6,44.169 6.029,44.33 6.05,44.494 4.03,45.499 3,46.674 3,48 c 0,3.257 6.575,5.407 15,6.388 z M 10,42 c 1.103,0 2,0.897 2,2 0,1.103 -0.897,2 -2,2 -1.103,0 -2,-0.897 -2,-2 0,-1.103 0.897,-2 2,-2 z"
       id="path8"
       inkscape:connector-curvature="0" /></g></svg>