<?xml version="1.0" encoding="UTF-8" standalone="no"?>
<svg
   xmlns:dc="http://purl.org/dc/elements/1.1/"
   xmlns:cc="http://creativecommons.org/ns#"
   xmlns:rdf="http://www.w3.org/1999/02/22-rdf-syntax-ns#"
   xmlns:svg="http://www.w3.org/2000/svg"
   xmlns="http://www.w3.org/2000/svg"
   xmlns:sodipodi="http://sodipodi.sourceforge.net/DTD/sodipodi-0.dtd"
   xmlns:inkscape="http://www.inkscape.org/namespaces/inkscape"
   data-name="Layer 1"
   viewBox="0 0 50 83.5"
   x="0px"
   y="0px"
   version="1.1"
   id="svg12"
   sodipodi:docname="microphone.svg"
   width="50"
   height="83.5"
   inkscape:version="0.92.4 (unknown)">
  <metadata
     id="metadata18">
    <rdf:RDF>
      <cc:Work
         rdf:about="">
        <dc:format>image/svg+xml</dc:format>
        <dc:type
           rdf:resource="http://purl.org/dc/dcmitype/StillImage" />
        <dc:title>guitar and music icon </dc:title>
      </cc:Work>
    </rdf:RDF>
  </metadata>
  <defs
     id="defs16" />
  <sodipodi:namedview
     pagecolor="#ffffff"
     bordercolor="#666666"
     borderopacity="1"
     objecttolerance="10"
     gridtolerance="10"
     guidetolerance="10"
     inkscape:pageopacity="0"
     inkscape:pageshadow="2"
     inkscape:window-width="640"
     inkscape:window-height="480"
     id="namedview14"
     showgrid="false"
     fit-margin-top="0"
     fit-margin-left="0"
     fit-margin-right="0"
     fit-margin-bottom="0"
     inkscape:zoom="1.888"
     inkscape:cx="25"
     inkscape:cy="29.25"
     inkscape:window-x="51"
     inkscape:window-y="27"
     inkscape:window-maximized="0"
     inkscape:current-layer="svg12" />
  <title
     id="title2">guitar and music icon </title>
  <path
     d="M 25,0 A 13.58,13.58 0 0 0 11.46,13.54 v 26.55 a 13.545,13.545 0 1 0 27.09,0 V 13.54 A 13.58,13.58 0 0 0 25,0 Z"
     id="path4"
     inkscape:connector-curvature="0" />
  <path
     d="M 50,40.09 V 25.7 a 3.125,3.125 0 1 0 -6.25,0 v 14.39 a 18.75,18.75 0 1 1 -37.5,0 V 25.7 A 3.125,3.125 0 1 0 0,25.7 V 40.09 A 25,25 0 0 0 21.87,64.88 V 77.25 H 8.78 a 3.125,3.125 0 1 0 0,6.25 h 32.44 a 3.125,3.125 0 1 0 0,-6.25 H 28.12 V 64.88 A 25,25 0 0 0 50,40.09 Z"
     id="path6"
     inkscape:connector-curvature="0" />
</svg>
