<?xml version="1.0" encoding="UTF-8" standalone="no"?>
<svg
   xmlns:dc="http://purl.org/dc/elements/1.1/"
   xmlns:cc="http://creativecommons.org/ns#"
   xmlns:rdf="http://www.w3.org/1999/02/22-rdf-syntax-ns#"
   xmlns:svg="http://www.w3.org/2000/svg"
   xmlns="http://www.w3.org/2000/svg"
   xmlns:sodipodi="http://sodipodi.sourceforge.net/DTD/sodipodi-0.dtd"
   xmlns:inkscape="http://www.inkscape.org/namespaces/inkscape"
   viewBox="0 0 56.009495 55.900005"
   x="0px"
   y="0px"
   version="1.1"
   id="svg114"
   sodipodi:docname="rocket-launch.svg"
   width="56.009495"
   height="55.900005"
   inkscape:version="0.92.4 (unknown)">
  <metadata
     id="metadata120">
    <rdf:RDF>
      <cc:Work
         rdf:about="">
        <dc:format>image/svg+xml</dc:format>
        <dc:type
           rdf:resource="http://purl.org/dc/dcmitype/StillImage" />
        <dc:title></dc:title>
      </cc:Work>
    </rdf:RDF>
  </metadata>
  <defs
     id="defs118" />
  <sodipodi:namedview
     pagecolor="#ffffff"
     bordercolor="#666666"
     borderopacity="1"
     objecttolerance="10"
     gridtolerance="10"
     guidetolerance="10"
     inkscape:pageopacity="0"
     inkscape:pageshadow="2"
     inkscape:window-width="1920"
     inkscape:window-height="1080"
     id="namedview116"
     showgrid="false"
     fit-margin-top="0"
     fit-margin-left="0"
     fit-margin-right="0"
     fit-margin-bottom="0"
     inkscape:zoom="10.675"
     inkscape:cx="28.009494"
     inkscape:cy="33.395113"
     inkscape:window-x="0"
     inkscape:window-y="0"
     inkscape:window-maximized="1"
     inkscape:current-layer="svg114" />
  <path
     d="m 48.009494,39.9 a 8,8 0 0 0 -6.634,3.526 l -0.525,0.779 -0.81,-0.476 a 5.982,5.982 0 0 0 -8.676,3.154 l -0.4,1.11 -1.03,-0.572 a 3.949,3.949 0 0 0 -4.723,0.624 l -1.071,1.055 -0.554,-1.4 a 5.977,5.977 0 0 0 -7.533,-3.465 l -0.768,0.265 -0.416,-0.7 A 8,8 0 1 0 8.0094944,55.9 H 48.009494 a 8,8 0 0 0 0,-16 z"
     id="path88"
     inkscape:connector-curvature="0" />
  <path
     d="m 28.009494,32.9 a 2,2 0 0 1 2,2 8.591,8.591 0 0 1 -2,5.535 8.591,8.591 0 0 1 -2,-5.535 2,2 0 0 1 2,-2 z"
     id="path90"
     inkscape:connector-curvature="0" />
  <path
     d="m 32.009494,22.9 h 2 V 9.516 a 10.537,10.537 0 0 0 -6,-9.516 10.537,10.537 0 0 0 -6,9.518 V 22.9 Z m -4,-17 a 4,4 0 1 1 -4,4 4,4 0 0 1 4,-4 z"
     id="path92"
     inkscape:connector-curvature="0" />
  <circle
     cx="28.009495"
     cy="9.8999996"
     r="2"
     id="circle94" />
  <path
     d="m 40.009494,22.224 a 7.766,7.766 0 0 0 -4,-6.8 V 22.9 h 4 z"
     id="path96"
     inkscape:connector-curvature="0" />
  <rect
     x="26.009495"
     y="24.9"
     width="4"
     height="2"
     id="rect98" />
  <rect
     x="37.009495"
     y="24.9"
     width="2"
     height="2"
     id="rect100" />
  <rect
     x="17.009495"
     y="24.9"
     width="2"
     height="2"
     id="rect102" />
  <path
     d="m 20.009494,15.426 a 7.766,7.766 0 0 0 -4,6.8 V 22.9 h 4 z"
     id="path104"
     inkscape:connector-curvature="0" />
  <path
     d="m 18.009494,32.9 a 1,1 0 0 1 1,1 3.855,3.855 0 0 1 -1,2.58 3.855,3.855 0 0 1 -1,-2.58 1,1 0 0 1 1,-1 z"
     id="path106"
     inkscape:connector-curvature="0" />
  <path
     d="m 38.009494,32.9 a 1,1 0 0 1 1,1 3.855,3.855 0 0 1 -1,2.58 3.855,3.855 0 0 1 -1,-2.58 1,1 0 0 1 1,-1 z"
     id="path108"
     inkscape:connector-curvature="0" />
</svg>
