<?xml version="1.0" encoding="UTF-8" standalone="no"?>
<svg
   xmlns:dc="http://purl.org/dc/elements/1.1/"
   xmlns:cc="http://creativecommons.org/ns#"
   xmlns:rdf="http://www.w3.org/1999/02/22-rdf-syntax-ns#"
   xmlns:svg="http://www.w3.org/2000/svg"
   xmlns="http://www.w3.org/2000/svg"
   xmlns:sodipodi="http://sodipodi.sourceforge.net/DTD/sodipodi-0.dtd"
   xmlns:inkscape="http://www.inkscape.org/namespaces/inkscape"
   version="1.1"
   x="0px"
   y="0px"
   viewBox="0 0 128 160"
   enable-background="new 0 0 128 128"
   xml:space="preserve"
   id="svg206"
   sodipodi:docname="settings.svg"
   inkscape:version="0.92.4 (unknown)"><metadata
     id="metadata212"><rdf:RDF><cc:Work
         rdf:about=""><dc:format>image/svg+xml</dc:format><dc:type
           rdf:resource="http://purl.org/dc/dcmitype/StillImage" /></cc:Work></rdf:RDF></metadata><defs
     id="defs210" /><sodipodi:namedview
     pagecolor="#ffffff"
     bordercolor="#666666"
     borderopacity="1"
     objecttolerance="10"
     gridtolerance="10"
     guidetolerance="10"
     inkscape:pageopacity="0"
     inkscape:pageshadow="2"
     inkscape:window-width="640"
     inkscape:window-height="480"
     id="namedview208"
     showgrid="false"
     inkscape:zoom="1.475"
     inkscape:cx="64"
     inkscape:cy="80"
     inkscape:window-x="0"
     inkscape:window-y="25"
     inkscape:window-maximized="0"
     inkscape:current-layer="svg206" /><g
     id="g200"><g
       id="g192"><path
         fill="#000000"
         d="M68.9,90.3c-1.2,0.5-2.5,0.9-3.7,1.2c-0.4,0.1-0.8,0.2-1.2,0.3c-0.4,0.1-0.8,0.2-1.2,0.3    c-0.4,0.1-0.8,0.2-1.2,0.2c-0.4,0.1-0.8,0.1-1.2,0.2c-0.4,0.1-0.8,0.1-1.2,0.1c-0.4,0-0.8,0.1-1.3,0.1c-0.4,0-0.8,0.1-1.2,0.1    c-0.4,0-0.8,0-1.3,0c-0.4,0-0.8,0-1.2,0c-0.4,0-0.8,0-1.3-0.1c-0.4,0-0.8-0.1-1.2-0.1c-0.4,0-0.8-0.1-1.3-0.2    c-0.4-0.1-0.8-0.1-1.2-0.2c-0.4-0.1-0.8-0.2-1.2-0.2c-0.4-0.1-0.8-0.2-1.2-0.2c-0.4-0.1-0.8-0.2-1.2-0.3    c-6.1-1.6-11.8-4.8-16.6-9.6c-4.6-4.6-7.7-10-9.4-15.8h0c-0.2-0.7-0.4-1.4-0.6-2.2c0-0.2-0.1-0.4-0.1-0.6    c-0.1-0.6-0.2-1.1-0.3-1.7c0-0.2-0.1-0.4-0.1-0.5c-0.1-0.7-0.2-1.5-0.3-2.2c0-0.1,0-0.3,0-0.4c-0.1-0.6-0.1-1.2-0.1-1.9    c0-0.2,0-0.4,0-0.6c0-0.6,0-1.2,0-1.9c0-0.1,0-0.3,0-0.4c0-0.7,0.1-1.5,0.2-2.2c0-0.2,0-0.4,0.1-0.5c0.1-0.6,0.1-1.1,0.2-1.7    c0-0.2,0.1-0.4,0.1-0.6c0.3-1.5,0.6-2.9,1.1-4.3c0.1-0.2,0.1-0.4,0.2-0.6c0.2-0.6,0.4-1.1,0.6-1.6c0.1-0.2,0.1-0.3,0.2-0.5    c0.3-0.7,0.6-1.4,0.9-2.1c0.1-0.1,0.1-0.2,0.2-0.4c0.3-0.6,0.6-1.1,0.9-1.7c0.1-0.2,0.2-0.4,0.3-0.6c0.3-0.5,0.6-1.1,1-1.6    c0.1-0.1,0.1-0.2,0.2-0.3c0.4-0.6,0.9-1.3,1.3-1.9c0.1-0.2,0.2-0.3,0.4-0.5c0.4-0.5,0.7-0.9,1.1-1.4c0.1-0.2,0.3-0.3,0.4-0.5    c0.5-0.6,1.1-1.2,1.6-1.7c3.6-3.6,7.9-6.4,12.4-8.2c13.5-5.5,29.5-2.7,40.5,8.2c0.6,0.6,1.1,1.1,1.6,1.7c0.1,0.2,0.3,0.3,0.4,0.5    c0.4,0.5,0.8,0.9,1.2,1.4c0.1,0.1,0.2,0.3,0.3,0.4c0.5,0.6,0.9,1.2,1.3,1.9c0.1,0.1,0.1,0.2,0.2,0.3c0.3,0.5,0.7,1.1,1,1.7    c0.1,0.2,0.2,0.4,0.3,0.6c0.3,0.6,0.6,1.1,0.9,1.7c0.1,0.1,0.1,0.2,0.2,0.3c0.3,0.7,0.6,1.4,0.9,2.1c0.1,0.2,0.1,0.3,0.2,0.5    c0.2,0.6,0.4,1.1,0.6,1.7c0.1,0.2,0.1,0.4,0.2,0.6c0.4,1.4,0.8,2.9,1.1,4.3c0,0.2,0.1,0.4,0.1,0.6c0.1,0.6,0.2,1.2,0.2,1.7    c0,0.2,0,0.3,0.1,0.5c0.1,0.7,0.1,1.5,0.2,2.2c0,0.1,0,0.2,0,0.4c0,0.6,0,1.3,0,1.9c0,0.2,0,0.4,0,0.6c0,0.6-0.1,1.3-0.1,1.9    c0,0.1,0,0.2,0,0.4c-0.1,0.7-0.2,1.5-0.3,2.2c0,0.2-0.1,0.3-0.1,0.5c-0.1,0.6-0.2,1.2-0.3,1.7c0,0.2-0.1,0.4-0.1,0.6    c-0.2,0.7-0.4,1.4-0.6,2.2l0,0c-0.3,1-0.6,1.9-1,2.8l9,9c0.4-0.9,0.9-1.7,1.2-2.6l0,0c0.1-0.2,0.1-0.3,0.2-0.5    c0.2-0.5,0.5-1.1,0.7-1.6c0.1-0.3,0.3-0.7,0.4-1c0.2-0.6,0.4-1.1,0.6-1.7c0.1-0.3,0.2-0.6,0.3-1c0.2-0.6,0.4-1.3,0.5-1.9    c0.1-0.3,0.1-0.5,0.2-0.8c0.2-0.9,0.4-1.8,0.6-2.7h6v0h0l0-17.3h-6c-1.2-6.9-3.9-13.6-8.1-19.5l4.2-4.2l0,0l0,0L87.9,10.8l0,0v0    L83.6,15C77.7,10.9,71,8.2,64.1,7l0-6h0H46.8v6c-6.9,1.2-13.6,3.9-19.5,8.1l-4.2-4.2l0,0l0,0L10.8,23.1l4.2,4.2    c-4.2,6-6.9,12.6-8.1,19.5H1h0v17.3h6C7.1,65,7.3,66,7.5,66.9c0.1,0.3,0.1,0.6,0.2,0.8c0.2,0.6,0.3,1.3,0.5,1.9    c0.1,0.3,0.2,0.7,0.3,1c0.2,0.6,0.4,1.1,0.6,1.7c0.1,0.3,0.3,0.7,0.4,1c0.2,0.5,0.4,1.1,0.7,1.6c0.1,0.2,0.1,0.3,0.2,0.5l0,0    c1.3,2.9,2.8,5.6,4.6,8.3l-4.2,4.2l12.3,12.3l4.2-4.2c2.6,1.8,5.4,3.4,8.3,4.6l0,0c0.2,0.1,0.3,0.1,0.5,0.2    c0.5,0.2,1.1,0.5,1.6,0.7c0.3,0.1,0.7,0.3,1,0.4c0.6,0.2,1.1,0.4,1.7,0.6c0.3,0.1,0.6,0.2,1,0.3c0.6,0.2,1.3,0.4,1.9,0.5    c0.3,0.1,0.5,0.1,0.8,0.2c0.9,0.2,1.8,0.4,2.7,0.6v2l0,4h17.3v0h0l0-6c0,0,0.1,0,0.1,0c0.9-0.2,1.7-0.3,2.6-0.5    c0.3-0.1,0.6-0.2,0.9-0.2c0.6-0.2,1.2-0.3,1.8-0.5c0.3-0.1,0.7-0.2,1-0.3c0.6-0.2,1.1-0.4,1.7-0.6c0.4-0.1,0.7-0.3,1-0.4    c0.5-0.2,1.1-0.4,1.6-0.6c0.2-0.1,0.3-0.1,0.5-0.2l0,0c0.9-0.4,1.7-0.8,2.6-1.2L68.9,90.3z"
         id="path190" /></g><g
       id="g198"><g
         id="g196"><path
           fill="#000000"
           d="M120.7,90.5c-5.8-5.8-14.1-7.6-21.4-5.3l-2.7-2.7L88,73.9l-11-11c3.5-9,1.7-19.5-5.6-26.8     c-6.6-6.6-16-8.7-24.4-6.4l16.4,16.4h0l-6.6,10.6l-10.6,6.6L29.8,47c-2.4,8.4-0.2,17.8,6.4,24.4c7.2,7.2,17.8,9.1,26.8,5.6l11,11     l8.7,8.7l2.7,2.7c-2.3,7.3-0.5,15.6,5.3,21.4c8.4,8.4,21.9,8.4,30.2,0C129.1,112.4,129.1,98.8,120.7,90.5z M112.9,112.9     c-4,4-10.5,4-14.5,0c-4-4-4-10.5,0-14.5c4-4,10.5-4,14.5,0C116.8,102.4,116.8,108.9,112.9,112.9z"
           id="path194" /></g></g></g></svg>