<?xml version="1.0" encoding="UTF-8" standalone="no"?>
<svg
   xmlns:dc="http://purl.org/dc/elements/1.1/"
   xmlns:cc="http://creativecommons.org/ns#"
   xmlns:rdf="http://www.w3.org/1999/02/22-rdf-syntax-ns#"
   xmlns:svg="http://www.w3.org/2000/svg"
   xmlns="http://www.w3.org/2000/svg"
   xmlns:sodipodi="http://sodipodi.sourceforge.net/DTD/sodipodi-0.dtd"
   xmlns:inkscape="http://www.inkscape.org/namespaces/inkscape"
   version="1.1"
   x="0px"
   y="0px"
   viewBox="0 0 126.02522 126.1"
   enable-background="new 0 0 128 128"
   xml:space="preserve"
   id="svg206"
   sodipodi:docname="settings.svg"
   inkscape:version="0.92.4 (unknown)"
   width="126.02522"
   height="126.1"><metadata
     id="metadata212"><rdf:RDF><cc:Work
         rdf:about=""><dc:format>image/svg+xml</dc:format><dc:type
           rdf:resource="http://purl.org/dc/dcmitype/StillImage" /><dc:title></dc:title></cc:Work></rdf:RDF></metadata><defs
     id="defs210" /><sodipodi:namedview
     pagecolor="#ffffff"
     bordercolor="#666666"
     borderopacity="1"
     objecttolerance="10"
     gridtolerance="10"
     guidetolerance="10"
     inkscape:pageopacity="0"
     inkscape:pageshadow="2"
     inkscape:window-width="640"
     inkscape:window-height="480"
     id="namedview208"
     showgrid="false"
     inkscape:zoom="1.475"
     inkscape:cx="63"
     inkscape:cy="47.1"
     inkscape:window-x="0"
     inkscape:window-y="25"
     inkscape:window-maximized="0"
     inkscape:current-layer="svg206"
     fit-margin-top="0"
     fit-margin-left="0"
     fit-margin-right="0"
     fit-margin-bottom="0" /><g
     id="g200"
     transform="translate(-1,-1)"><g
       id="g192"><path
         d="m 68.9,90.3 c -1.2,0.5 -2.5,0.9 -3.7,1.2 -0.4,0.1 -0.8,0.2 -1.2,0.3 -0.4,0.1 -0.8,0.2 -1.2,0.3 -0.4,0.1 -0.8,0.2 -1.2,0.2 -0.4,0.1 -0.8,0.1 -1.2,0.2 -0.4,0.1 -0.8,0.1 -1.2,0.1 -0.4,0 -0.8,0.1 -1.3,0.1 -0.4,0 -0.8,0.1 -1.2,0.1 -0.4,0 -0.8,0 -1.3,0 -0.4,0 -0.8,0 -1.2,0 -0.4,0 -0.8,0 -1.3,-0.1 -0.4,0 -0.8,-0.1 -1.2,-0.1 -0.4,0 -0.8,-0.1 -1.3,-0.2 C 50,92.3 49.6,92.3 49.2,92.2 48.8,92.1 48.4,92 48,92 47.6,91.9 47.2,91.8 46.8,91.8 46.4,91.7 46,91.6 45.6,91.5 39.5,89.9 33.8,86.7 29,81.9 24.4,77.3 21.3,71.9 19.6,66.1 v 0 c -0.2,-0.7 -0.4,-1.4 -0.6,-2.2 0,-0.2 -0.1,-0.4 -0.1,-0.6 -0.1,-0.6 -0.2,-1.1 -0.3,-1.7 0,-0.2 -0.1,-0.4 -0.1,-0.5 -0.1,-0.7 -0.2,-1.5 -0.3,-2.2 0,-0.1 0,-0.3 0,-0.4 -0.1,-0.6 -0.1,-1.2 -0.1,-1.9 0,-0.2 0,-0.4 0,-0.6 0,-0.6 0,-1.2 0,-1.9 0,-0.1 0,-0.3 0,-0.4 0,-0.7 0.1,-1.5 0.2,-2.2 0,-0.2 0,-0.4 0.1,-0.5 0.1,-0.6 0.1,-1.1 0.2,-1.7 0,-0.2 0.1,-0.4 0.1,-0.6 0.3,-1.5 0.6,-2.9 1.1,-4.3 0.1,-0.2 0.1,-0.4 0.2,-0.6 0.2,-0.6 0.4,-1.1 0.6,-1.6 0.1,-0.2 0.1,-0.3 0.2,-0.5 0.3,-0.7 0.6,-1.4 0.9,-2.1 0.1,-0.1 0.1,-0.2 0.2,-0.4 0.3,-0.6 0.6,-1.1 0.9,-1.7 0.1,-0.2 0.2,-0.4 0.3,-0.6 0.3,-0.5 0.6,-1.1 1,-1.6 0.1,-0.1 0.1,-0.2 0.2,-0.3 0.4,-0.6 0.9,-1.3 1.3,-1.9 0.1,-0.2 0.2,-0.3 0.4,-0.5 0.4,-0.5 0.7,-0.9 1.1,-1.4 0.1,-0.2 0.3,-0.3 0.4,-0.5 C 28,30.1 28.6,29.5 29.1,29 32.7,25.4 37,22.6 41.5,20.8 55,15.3 71,18.1 82,29 c 0.6,0.6 1.1,1.1 1.6,1.7 0.1,0.2 0.3,0.3 0.4,0.5 0.4,0.5 0.8,0.9 1.2,1.4 0.1,0.1 0.2,0.3 0.3,0.4 0.5,0.6 0.9,1.2 1.3,1.9 0.1,0.1 0.1,0.2 0.2,0.3 0.3,0.5 0.7,1.1 1,1.7 0.1,0.2 0.2,0.4 0.3,0.6 0.3,0.6 0.6,1.1 0.9,1.7 0.1,0.1 0.1,0.2 0.2,0.3 0.3,0.7 0.6,1.4 0.9,2.1 0.1,0.2 0.1,0.3 0.2,0.5 0.2,0.6 0.4,1.1 0.6,1.7 0.1,0.2 0.1,0.4 0.2,0.6 0.4,1.4 0.8,2.9 1.1,4.3 0,0.2 0.1,0.4 0.1,0.6 0.1,0.6 0.2,1.2 0.2,1.7 0,0.2 0,0.3 0.1,0.5 0.1,0.7 0.1,1.5 0.2,2.2 0,0.1 0,0.2 0,0.4 0,0.6 0,1.3 0,1.9 0,0.2 0,0.4 0,0.6 0,0.6 -0.1,1.3 -0.1,1.9 0,0.1 0,0.2 0,0.4 -0.1,0.7 -0.2,1.5 -0.3,2.2 0,0.2 -0.1,0.3 -0.1,0.5 -0.1,0.6 -0.2,1.2 -0.3,1.7 0,0.2 -0.1,0.4 -0.1,0.6 -0.2,0.7 -0.4,1.4 -0.6,2.2 v 0 c -0.3,1 -0.6,1.9 -1,2.8 l 9,9 c 0.4,-0.9 0.9,-1.7 1.2,-2.6 v 0 c 0.1,-0.2 0.1,-0.3 0.2,-0.5 0.2,-0.5 0.5,-1.1 0.7,-1.6 0.1,-0.3 0.3,-0.7 0.4,-1 0.2,-0.6 0.4,-1.1 0.6,-1.7 0.1,-0.3 0.2,-0.6 0.3,-1 0.2,-0.6 0.4,-1.3 0.5,-1.9 0.1,-0.3 0.1,-0.5 0.2,-0.8 0.2,-0.9 0.4,-1.8 0.6,-2.7 h 6 v 0 0 -17.3 h -6 C 103,39.9 100.3,33.2 96.1,27.3 l 4.2,-4.2 v 0 0 L 87.9,10.8 v 0 0 L 83.6,15 C 77.7,10.9 71,8.2 64.1,7 V 1 1 H 46.8 v 6 c -6.9,1.2 -13.6,3.9 -19.5,8.1 l -4.2,-4.2 v 0 0 L 10.8,23.1 15,27.3 c -4.2,6 -6.9,12.6 -8.1,19.5 H 1 v 0 17.3 h 6 c 0.1,0.9 0.3,1.9 0.5,2.8 0.1,0.3 0.1,0.6 0.2,0.8 0.2,0.6 0.3,1.3 0.5,1.9 0.1,0.3 0.2,0.7 0.3,1 0.2,0.6 0.4,1.1 0.6,1.7 0.1,0.3 0.3,0.7 0.4,1 0.2,0.5 0.4,1.1 0.7,1.6 0.1,0.2 0.1,0.3 0.2,0.5 v 0 c 1.3,2.9 2.8,5.6 4.6,8.3 l -4.2,4.2 12.3,12.3 4.2,-4.2 c 2.6,1.8 5.4,3.4 8.3,4.6 v 0 c 0.2,0.1 0.3,0.1 0.5,0.2 0.5,0.2 1.1,0.5 1.6,0.7 0.3,0.1 0.7,0.3 1,0.4 0.6,0.2 1.1,0.4 1.7,0.6 0.3,0.1 0.6,0.2 1,0.3 0.6,0.2 1.3,0.4 1.9,0.5 0.3,0.1 0.5,0.1 0.8,0.2 0.9,0.2 1.8,0.4 2.7,0.6 v 2 4 h 17.3 v 0 0 -6 c 0,0 0.1,0 0.1,0 0.9,-0.2 1.7,-0.3 2.6,-0.5 0.3,-0.1 0.6,-0.2 0.9,-0.2 0.6,-0.2 1.2,-0.3 1.8,-0.5 0.3,-0.1 0.7,-0.2 1,-0.3 0.6,-0.2 1.1,-0.4 1.7,-0.6 0.4,-0.1 0.7,-0.3 1,-0.4 0.5,-0.2 1.1,-0.4 1.6,-0.6 0.2,-0.1 0.3,-0.1 0.5,-0.2 v 0 c 0.9,-0.4 1.7,-0.8 2.6,-1.2 z"
         id="path190"
         inkscape:connector-curvature="0"
         style="fill:#000000" /></g><g
       id="g198"><g
         id="g196"><path
           d="M 120.7,90.5 C 114.9,84.7 106.6,82.9 99.3,85.2 L 96.6,82.5 88,73.9 77,62.9 c 3.5,-9 1.7,-19.5 -5.6,-26.8 -6.6,-6.6 -16,-8.7 -24.4,-6.4 l 16.4,16.4 v 0 L 56.8,56.7 46.2,63.3 29.8,47 c -2.4,8.4 -0.2,17.8 6.4,24.4 7.2,7.2 17.8,9.1 26.8,5.6 l 11,11 8.7,8.7 2.7,2.7 c -2.3,7.3 -0.5,15.6 5.3,21.4 8.4,8.4 21.9,8.4 30.2,0 8.2,-8.4 8.2,-22 -0.2,-30.3 z m -7.8,22.4 c -4,4 -10.5,4 -14.5,0 -4,-4 -4,-10.5 0,-14.5 4,-4 10.5,-4 14.5,0 3.9,4 3.9,10.5 0,14.5 z"
           id="path194"
           inkscape:connector-curvature="0"
           style="fill:#000000" /></g></g></g></svg>