<svg xmlns="http://www.w3.org/2000/svg" xmlns:xlink="http://www.w3.org/1999/xlink" version="1.1" x="0px" y="0px" viewBox="0 0 1024 1280" style="enable-background:new 0 0 1024 1024;" xml:space="preserve"><path d="M945.3,230.6c-2.9-43.9-39.4-79-83.9-79.4c-5.5,0-10.9-0.2-16.4-0.2H171.5c-11.5,0-22.8,0.3-34,3.8  c-36,11.2-59.6,44.7-59.7,82.1c-0.1,33.7,0.1,67.5,0.1,101.2v286.7c0,2.8-0.1,5.7,0,8.5c1,23.4,11.5,46.5,29.9,61.4  c15.6,12.6,34,19.9,54.2,20c1.7,0,3.3,0.2,5,0.2h253v108h-42.9c-14.5,0-29.1-0.1-43.6,0.2c-0.2,0-0.4,0.1-0.6,0.1  c-15.7,0-30.7,13.6-30,29.8c0.7,16.3,13.2,29.8,30,29.8h313.4c14.5,0,29.1,0.5,43.6,0.2c0.2,0,0.4,0.1,0.6,0.1  c15.7,0,30.7-14,30-30.2c-0.7-16.3-13.2-30.2-30-30.2H603V715h234.8c7.4,0,14.8-0.2,22.3-0.2c32.7-0.1,64.3-18.5,77.8-48.8  c7.2-16.1,8.1-32.3,8.1-49.4V235.5C946,233.8,945.8,232.2,945.3,230.6z M400.2,505.9c11.9,11.9,11,30.5,0,42.4  c-11,11.9-31.3,11.1-42.4,0l-11.4-11.4c-26.5-26.5-53-53-79.6-79.5c-11.5-11.5-11.5-31,0-42.4c3.8-3.8,7.6-7.6,11.4-11.4  c26.5-26.5,53-53,79.5-79.6c11.9-11.9,30.4-11,42.4,0c11.9,11,11.1,31.3,0,42.4c-3.8,3.8-7.7,7.6-11.5,11.4  c-19.5,19.5-38.7,38.9-58.3,58.4C353.7,459.4,377,482.6,400.2,505.9z M585,308.1c-3.6,11.1-7.3,22.3-10.9,33.4  c-15.9,48.7-31.8,97.3-47.7,146c-10.1,30.8-20.1,61.6-30.2,92.4c-5.2,16-20.4,24.7-36.9,21c-15.3-3.5-25.8-22-21-36.9  c3.6-11.1,7.3-22.3,10.9-33.4c15.9-48.7,31.8-97.3,47.7-146c10.1-30.8,20.1-61.6,30.2-92.4c5.2-16,20.4-24.7,36.9-21  C579.3,274.7,589.9,293.2,585,308.1z M756.6,457.3c-3.8,3.8-7.6,7.6-11.4,11.4c-26.5,26.5-53,53-79.6,79.6  c-11.9,11.9-30.5,11-42.4,0c-11.9-11-11.1-31.3,0-42.4c3.8-3.8,7.6-7.6,11.4-11.4c19.4-19.4,39.1-38.8,58.4-58.3  c-23.3-23.3-46.5-46.6-69.8-69.9c-11.9-11.9-11-30.5,0-42.4c11-11.9,31.3-11.1,42.4,0c3.8,3.8,7.6,7.6,11.4,11.4  c26.5,26.5,53,53,79.6,79.6C768,426.4,768,445.8,756.6,457.3z"/><text x="0" y="1039" fill="#000000" font-size="5px" font-weight="bold" font-family="'Helvetica Neue', Helvetica, Arial-Unicode, Arial, Sans-serif">Created by shashank singh</text><text x="0" y="1044" fill="#000000" font-size="5px" font-weight="bold" font-family="'Helvetica Neue', Helvetica, Arial-Unicode, Arial, Sans-serif">from the Noun Project</text></svg>