<?xml version="1.0" encoding="UTF-8" standalone="no"?>
<svg
   xmlns:dc="http://purl.org/dc/elements/1.1/"
   xmlns:cc="http://creativecommons.org/ns#"
   xmlns:rdf="http://www.w3.org/1999/02/22-rdf-syntax-ns#"
   xmlns:svg="http://www.w3.org/2000/svg"
   xmlns="http://www.w3.org/2000/svg"
   xmlns:sodipodi="http://sodipodi.sourceforge.net/DTD/sodipodi-0.dtd"
   xmlns:inkscape="http://www.inkscape.org/namespaces/inkscape"
   version="1.1"
   x="0px"
   y="0px"
   viewBox="0 0 46 53.099998"
   xml:space="preserve"
   id="svg36"
   sodipodi:docname="cube.svg"
   width="46"
   height="53.099998"
   inkscape:version="0.92.4 (unknown)"><metadata
     id="metadata42"><rdf:RDF><cc:Work
         rdf:about=""><dc:format>image/svg+xml</dc:format><dc:type
           rdf:resource="http://purl.org/dc/dcmitype/StillImage" /><dc:title>75 -Cube- (Solid)</dc:title></cc:Work></rdf:RDF></metadata><defs
     id="defs40" /><sodipodi:namedview
     pagecolor="#ffffff"
     bordercolor="#666666"
     borderopacity="1"
     objecttolerance="10"
     gridtolerance="10"
     guidetolerance="10"
     inkscape:pageopacity="0"
     inkscape:pageshadow="2"
     inkscape:window-width="1869"
     inkscape:window-height="1016"
     id="namedview38"
     showgrid="false"
     fit-margin-top="0"
     fit-margin-left="0"
     fit-margin-right="0"
     fit-margin-bottom="0"
     inkscape:zoom="3.4962963"
     inkscape:cx="23"
     inkscape:cy="19.55"
     inkscape:window-x="51"
     inkscape:window-y="27"
     inkscape:window-maximized="1"
     inkscape:current-layer="svg36" /><title
     id="title2">75 -Cube- (Solid)</title><desc
     id="desc4">Created with Sketch.</desc><g
     id="g30"
     transform="translate(0,-0.2)"><g
       transform="translate(-602,-1172)"
       id="g28"><g
         transform="translate(602,1172)"
         id="g26"><path
           d="M 24,27.6 V 53.3 L 46,41.4 V 14.7 Z"
           id="path6"
           inkscape:connector-curvature="0" /><polygon
           points="7.5,45.5 10.2,46.9 22,35.1 22,31.4 "
           id="polygon8" /><path
           d="M 1,13 23.1,25.9 45,13 23,0.2 Z"
           id="path10"
           inkscape:connector-curvature="0" /><polygon
           points="16.6,50.4 22,53.3 22,45 "
           id="polygon12" /><polygon
           points="19.8,26.3 3,43 5.6,44.5 22,28.6 22,27.6 "
           id="polygon14" /><polygon
           points="14.8,49.4 22,42.2 22,38 12,47.9 "
           id="polygon16" /><polygon
           points="0,29.1 9.3,20.2 6.4,18.5 0,24.8 "
           id="polygon18" /><polygon
           points="0,22 4.6,17.4 0,14.7 "
           id="polygon20" /><path
           d="M 11.1,21.2 0,31.9 v 0 4.2 L 13.5,22.6 Z"
           id="path22"
           inkscape:connector-curvature="0" /><polygon
           points="0,39 0,41.4 1.2,42 18,25.2 15.3,23.7 "
           id="polygon24" /></g></g></g></svg>