<?xml version="1.0" encoding="UTF-8" standalone="no"?>
<svg
   xmlns:dc="http://purl.org/dc/elements/1.1/"
   xmlns:cc="http://creativecommons.org/ns#"
   xmlns:rdf="http://www.w3.org/1999/02/22-rdf-syntax-ns#"
   xmlns:svg="http://www.w3.org/2000/svg"
   xmlns="http://www.w3.org/2000/svg"
   xmlns:sodipodi="http://sodipodi.sourceforge.net/DTD/sodipodi-0.dtd"
   xmlns:inkscape="http://www.inkscape.org/namespaces/inkscape"
   version="1.1"
   x="0px"
   y="0px"
   viewBox="0 0 874.04034 677.48669"
   xml:space="preserve"
   id="svg207"
   sodipodi:docname="up.svg"
   width="874.04034"
   height="677.48669"
   inkscape:version="0.92.4 (unknown)"><metadata
     id="metadata213"><rdf:RDF><cc:Work
         rdf:about=""><dc:format>image/svg+xml</dc:format><dc:type
           rdf:resource="http://purl.org/dc/dcmitype/StillImage" /><dc:title></dc:title></cc:Work></rdf:RDF></metadata><defs
     id="defs211" /><sodipodi:namedview
     pagecolor="#ffffff"
     bordercolor="#666666"
     borderopacity="1"
     objecttolerance="10"
     gridtolerance="10"
     guidetolerance="10"
     inkscape:pageopacity="0"
     inkscape:pageshadow="2"
     inkscape:window-width="640"
     inkscape:window-height="480"
     id="namedview209"
     showgrid="false"
     fit-margin-top="0"
     fit-margin-left="0"
     fit-margin-right="0"
     fit-margin-bottom="0"
     inkscape:zoom="0.184375"
     inkscape:cx="437.06494"
     inkscape:cy="74.683897"
     inkscape:window-x="0"
     inkscape:window-y="25"
     inkscape:window-maximized="0"
     inkscape:current-layer="svg207" /><g
     id="g201"
     transform="translate(-74.935058,-173.31328)"><path
       d="M 885,840.7 H 139 c -43.3,0 -68.9,-48.4 -44.6,-84.2 l 373,-549.6 c 21.4,-31.5 67.9,-31.5 89.3,0 l 373,549.6 c 24.3,35.8 -1.4,84.2 -44.7,84.2 z"
       id="path195"
       inkscape:connector-curvature="0" /><g
       id="g199"><path
         d="m 885,830.7 c -14.6,0 -29.2,0 -43.8,0 -37.3,0 -74.6,0 -111.9,0 -50.6,0 -101.1,0 -151.7,0 -54.3,0 -108.7,0 -163,0 -48.7,0 -97.4,0 -146.1,0 -33.6,0 -67.3,0 -100.9,0 -8.1,0 -16.2,0 -24.3,0 -13.7,0 -25.8,-3.1 -35.4,-12.8 C 98,808 93.1,793 95.4,779.8 c 1.3,-7.2 4.1,-13.1 8.2,-19.2 3.8,-5.6 7.5,-11.1 11.3,-16.7 18.6,-27.4 37.2,-54.7 55.7,-82.1 28,-41.2 55.9,-82.4 83.9,-123.6 30.4,-44.9 60.9,-89.7 91.3,-134.6 26.3,-38.7 52.6,-77.5 78.9,-116.2 15.5,-22.8 30.9,-45.5 46.4,-68.3 4.8,-7.1 9.4,-13.9 16.7,-18.7 19.8,-12.7 46.7,-8.1 60.6,12.2 11.2,16.3 22.2,32.7 33.3,49.1 23.8,35 47.6,70.1 71.4,105.1 30,44.2 60.1,88.5 90.1,132.7 29.2,43.1 58.5,86.1 87.7,129.2 22.1,32.5 44.1,65 66.2,97.5 6.1,9 12.3,18.1 18.4,27.1 4.1,6 8.8,12.2 11.1,18.8 9.7,28.1 -11.1,58.3 -41.6,58.6 -12.9,0.1 -12.9,20.1 0,20 37.4,-0.4 68.2,-33.5 63.5,-71.2 C 946.9,766.7 941.3,756 934.2,745.6 919,723.2 903.8,700.8 888.6,678.4 862,639.3 835.5,600.2 808.9,561 778,515.5 747.1,470 716.2,424.4 688,382.8 659.7,341.2 631.5,299.6 c -18.6,-27.3 -37.1,-54.7 -55.7,-82 -3.4,-5.1 -6.9,-10.2 -10.3,-15.2 -17.3,-25.1 -49.3,-36.2 -77.9,-24.3 -14.2,5.9 -24,16.4 -32.4,28.8 -5.5,8.1 -11,16.2 -16.5,24.3 -21.4,31.5 -42.8,63.1 -64.2,94.6 -29.4,43.3 -58.8,86.6 -88.1,129.8 -30.5,45 -61.1,89.9 -91.6,134.9 -24.6,36.2 -49.2,72.4 -73.8,108.7 -11.6,17.1 -23.3,34.2 -34.9,51.4 -15,22.2 -15.1,52 1,73.8 13,17.6 32.6,26.4 54.2,26.4 21.1,0 42.2,0 63.3,0 42.1,0 84.3,0 126.4,0 53.3,0 106.5,0 159.8,0 54.4,0 108.7,0 163.1,0 45.9,0 91.8,0 137.7,0 27.4,0 54.7,0 82.1,0 3.7,0 7.4,0 11.1,0 13.1,-0.1 13.1,-20.1 0.2,-20.1 z"
         id="path197"
         inkscape:connector-curvature="0" /></g></g></svg>