<?xml version="1.0" encoding="UTF-8" standalone="no"?>
<svg
   xmlns:dc="http://purl.org/dc/elements/1.1/"
   xmlns:cc="http://creativecommons.org/ns#"
   xmlns:rdf="http://www.w3.org/1999/02/22-rdf-syntax-ns#"
   xmlns:svg="http://www.w3.org/2000/svg"
   xmlns="http://www.w3.org/2000/svg"
   xmlns:sodipodi="http://sodipodi.sourceforge.net/DTD/sodipodi-0.dtd"
   xmlns:inkscape="http://www.inkscape.org/namespaces/inkscape"
   version="1.1"
   x="0px"
   y="0px"
   viewBox="0 0 487.60001 860.18201"
   xml:space="preserve"
   id="svg8"
   sodipodi:docname="mobile.svg"
   width="487.60001"
   height="860.18201"
   inkscape:version="0.92.4 (unknown)"><metadata
     id="metadata14"><rdf:RDF><cc:Work
         rdf:about=""><dc:format>image/svg+xml</dc:format><dc:type
           rdf:resource="http://purl.org/dc/dcmitype/StillImage" /><dc:title></dc:title></cc:Work></rdf:RDF></metadata><defs
     id="defs12" /><sodipodi:namedview
     pagecolor="#ffffff"
     bordercolor="#666666"
     borderopacity="1"
     objecttolerance="10"
     gridtolerance="10"
     guidetolerance="10"
     inkscape:pageopacity="0"
     inkscape:pageshadow="2"
     inkscape:window-width="640"
     inkscape:window-height="480"
     id="namedview10"
     showgrid="false"
     fit-margin-top="0"
     fit-margin-left="0"
     fit-margin-right="0"
     fit-margin-bottom="0"
     inkscape:zoom="0.184375"
     inkscape:cx="244"
     inkscape:cy="302.17778"
     inkscape:window-x="0"
     inkscape:window-y="25"
     inkscape:window-maximized="0"
     inkscape:current-layer="svg8" /><path
     d="M 487,796.20421 V 67.904208 c 0,-13 -0.9,-25.6 -7.5,-37.4 -10.5,-18.8 -30.8,-30.30000024 -52.1,-30.50000024 -2.5,0 -4.9,0 -7.4,0 H 76.8 c -15.1,0 -29.4,-0.4 -43.7,6.60000004 C 11.2,17.304208 0,40.104208 0,63.604208 V 779.70421 c 0,6.5 0.2,12.9 0.3,19.4 0.1,33.3 26.8,60.5 60.2,60.9 30.3,0.4 60.8,0 91.1,0 h 273.8 c 10.3,0 20.1,-2 29.4,-6.6 20.2,-9.8 32.5,-31.4 32.8,-53.4 -0.1,-1.3 -0.3,-2.6 -0.6,-3.8 z m -243,-7.6 c -29.3,0 -53,-23.7 -53,-53 0,-29.3 23.7,-53 53,-53 29.3,0 53,23.7 53,53 0,29.2 -23.7,53 -53,53 z M 351,64.404208 c -0.3,1.1 -0.5,2.3 -0.8,3.3 -0.1,0.3 -0.4,1 -0.6,1.5 -0.1,0.1 -0.1,0.2 -0.2,0.3 -0.1,0.3 -0.2,0.5 -0.2,0.5 -0.3,0.5 -0.6,1.1 -0.9,1.6 -0.3,0.6 -0.7,1.2 -1.1,1.8 -0.1,0 -1.4,1.7 -1.7,2 -0.8,0.8 -1.5,1.5 -2.3,2.2 -0.1,0.1 -0.2,0.2 -0.2,0.2 2.7,-1.6 -1,1 0,0 -0.1,0.1 -0.2,0.1 -0.3,0.2 -1.1,0.7 -2.3,1.3 -3.3,2 -0.2,0.1 -0.7,0.4 -1,0.5 0.2,-0.1 0.5,-0.2 0.7,-0.3 -0.6,0.2 -0.8,0.3 -0.9,0.4 0,0 0.1,-0.1 0.2,-0.1 -1.3,0.5 -2.6,0.8 -4,1.2 -0.4,0.1 -0.6,0.2 -0.8,0.2 0.3,0 0.6,0 0.9,-0.1 -0.4,0.1 -1.3,0.3 -1.4,0.3 0,0 0.2,-0.1 0.5,-0.2 -1.1,0.1 -2.1,0.1 -3.2,0.1 H 330 c -0.6,0 -1.1,0 -1.7,0 -2.7,0 -5.4,0 -8.2,0 h -30 c -44.1,0 -88.2,0.7 -132.2,0 -0.5,0 -1,0 -1.6,0 -0.5,0 -1,0 -1.6,-0.1 0.3,-0.1 -3.2,-0.8 -3.7,-0.9 0,0 -1.2,-0.5 -1.9,-0.7 0.5,0.3 0.6,0.3 0,0.1 -0.9,-0.4 -0.6,-0.3 0,-0.1 -0.8,-0.5 -2.5,-1.4 -2.8,-1.5 0,0 -1,-0.7 -1.6,-1.1 0.3,0.3 0.4,0.4 0,0.1 -0.8,-0.6 -0.5,-0.4 0,-0.1 -0.6,-0.6 -2.1,-1.9 -2.3,-2.2 0,0 -0.9,-1 -1.3,-1.6 0.3,0.5 0.4,0.6 0,0.2 -0.6,-0.7 -0.4,-0.6 0,-0.2 -0.5,-0.8 -1.6,-2.3 -1.7,-2.6 -0.1,-0.2 -0.4,-0.9 -0.7,-1.5 l -0.2,-0.4 c 0,-0.1 -0.1,-0.2 -0.2,-0.3 0,-0.1 -0.1,-0.1 -0.1,-0.2 0,0 0,0 0,0 -0.3,-0.8 -0.5,-1.7 -0.8,-2.5 -0.1,-0.3 -0.5,-2.6 -0.6,-2.6 0,0.3 0,0.6 0.1,0.9 -0.1,-0.6 -0.1,-0.9 -0.1,-0.9 -0.1,-0.9 -0.1,-1.8 -0.1,-2.7 0,-0.4 0,-0.8 0,-1.2 0,-6.6 0,-13.3 0,-19.9 H 351 v 17 c 0,1.4 0.1,2.7 0.1,4 0,0.8 -0.7,5.5 -0.1,3.4 z"
     id="path2"
     inkscape:connector-curvature="0" /></svg>