<?xml version="1.0" encoding="UTF-8" standalone="no"?>
<svg
   xmlns:x="adobe:ns:meta/"
   xmlns:dc="http://purl.org/dc/elements/1.1/"
   xmlns:cc="http://creativecommons.org/ns#"
   xmlns:rdf="http://www.w3.org/1999/02/22-rdf-syntax-ns#"
   xmlns:svg="http://www.w3.org/2000/svg"
   xmlns="http://www.w3.org/2000/svg"
   xmlns:sodipodi="http://sodipodi.sourceforge.net/DTD/sodipodi-0.dtd"
   xmlns:inkscape="http://www.inkscape.org/namespaces/inkscape"
   version="1.1"
   x="0px"
   y="0px"
   viewBox="0 0 104.87297 104.87297"
   enable-background="new 0 0 100 100"
   xml:space="preserve"
   id="svg14"
   sodipodi:docname="phone-hangup.svg"
   width="104.87297"
   height="104.87297"
   inkscape:version="0.92.4 (unknown)"><defs
     id="defs18" /><sodipodi:namedview
     pagecolor="#ffffff"
     bordercolor="#666666"
     borderopacity="1"
     objecttolerance="10"
     gridtolerance="10"
     guidetolerance="10"
     inkscape:pageopacity="0"
     inkscape:pageshadow="2"
     inkscape:window-width="1428"
     inkscape:window-height="789"
     id="namedview16"
     showgrid="true"
     fit-margin-top="0"
     fit-margin-left="0"
     fit-margin-right="0"
     fit-margin-bottom="0"
     inkscape:zoom="3.776"
     inkscape:cx="90.093261"
     inkscape:cy="46.862135"
     inkscape:window-x="0"
     inkscape:window-y="25"
     inkscape:window-maximized="0"
     inkscape:current-layer="g8"
     showguides="false"><inkscape:grid
       type="xygrid"
       id="grid70" /></sodipodi:namedview><metadata
     id="metadata2"><?xpacket begin="&#65279;" id="W5M0MpCehiHzreSzNTczkc9d"?><x:xmpmeta
       x:xmptk="Adobe XMP Core 5.6-c014 79.156821, 2014/08/29-03:07:50        " /><?xpacket end="w"?><rdf:RDF><cc:Work
         rdf:about=""><dc:format>image/svg+xml</dc:format><dc:type
           rdf:resource="http://purl.org/dc/dcmitype/StillImage" /><dc:title></dc:title></cc:Work></rdf:RDF></metadata><g
     id="g8"
     transform="translate(0.9641751,42.514299)"><path
       d="M 7.7649271,33.614306 C 9.0264059,33.468644 19.51775,32.149886 26.259305,31.299946 l 0.06011,-0.0021 c 1.079753,-7.06e-4 2.375878,-0.627912 3.385629,-1.637655 0.781354,-0.781354 2.066166,-2.464972 1.852618,-4.948333 -0.0036,-0.05163 -0.0092,-0.102534 -0.01976,-0.154153 -0.114586,-0.684475 -0.973686,-5.159759 -1.296125,-6.828531 l -0.06011,-0.317488 0.269405,-0.177482 c 5.447512,-3.587853 16.916785,-3.839583 20.302411,-3.832514 8.954093,0.02334 17.157946,1.438963 21.950008,3.792925 l 0.332334,0.164057 -0.07141,0.362747 c -0.539525,2.74428 -1.151877,5.926262 -1.28057,6.699835 -0.01915,0.120919 -0.02687,0.243249 -0.02337,0.366986 0.103948,3.714433 3.082984,6.730244 6.788933,6.886515 l 0.115973,0.0084 c 6.15183,0.702858 16.500336,1.887265 17.00309,1.943127 0.01344,7.1e-4 0.02409,0.0029 0.03676,0.0042 1.718269,0.154149 4.121719,-0.248197 5.714829,-1.841308 1.19007,-1.19006 1.79535,-2.888531 1.80242,-5.049449 l 0.004,-0.101086 c 0.3493,-5.050157 0.89237,-12.93864 0.96308,-14.062942 0.006,-0.08764 0.005,-0.177489 -0.001,-0.265874 C 103.69526,7.0737605 98.215888,2.1190625 87.803741,-2.4127845 77.190078,-7.0344388 64.333464,-9.5800248 51.601301,-9.5814388 41.037833,-9.5807328 30.613664,-7.9586298 21.45734,-4.8862484 12.966402,-2.0408485 6.1930258,1.6240855 2.3852557,5.4318564 l -7.084e-4,7.06e-4 c -2.1382882,2.1382891 -3.2017784,6.3342636 -3.1628931,12.4726566 0.028996,4.370632 0.7283243,8.237795 0.8053954,8.654283 0.019792,0.110289 0.048122,0.217797 0.087681,0.323852 0.6243732,4.036877 3.5043908,6.675108 7.3956324,6.74368 0.083434,4.6e-5 0.1697077,-0.0043 0.2545548,-0.01273 z"
       id="path4"
       inkscape:connector-curvature="0" /></g></svg>