<?xml version="1.0" encoding="UTF-8" standalone="no"?>
<svg
   xmlns:dc="http://purl.org/dc/elements/1.1/"
   xmlns:cc="http://creativecommons.org/ns#"
   xmlns:rdf="http://www.w3.org/1999/02/22-rdf-syntax-ns#"
   xmlns:svg="http://www.w3.org/2000/svg"
   xmlns="http://www.w3.org/2000/svg"
   xmlns:sodipodi="http://sodipodi.sourceforge.net/DTD/sodipodi-0.dtd"
   xmlns:inkscape="http://www.inkscape.org/namespaces/inkscape"
   version="1.1"
   x="0px"
   y="0px"
   viewBox="0 0 48 48.000126"
   enable-background="new 0 0 50 50"
   xml:space="preserve"
   id="svg24"
   sodipodi:docname="people-connection.svg"
   width="48"
   height="48.000126"
   inkscape:version="0.92.4 (5da689c313, 2019-01-14)"><metadata
     id="metadata30"><rdf:RDF><cc:Work
         rdf:about=""><dc:format>image/svg+xml</dc:format><dc:type
           rdf:resource="http://purl.org/dc/dcmitype/StillImage" /><dc:title></dc:title></cc:Work></rdf:RDF></metadata><defs
     id="defs28" /><sodipodi:namedview
     pagecolor="#ffffff"
     bordercolor="#666666"
     borderopacity="1"
     objecttolerance="10"
     gridtolerance="10"
     guidetolerance="10"
     inkscape:pageopacity="0"
     inkscape:pageshadow="2"
     inkscape:window-width="1137"
     inkscape:window-height="862"
     id="namedview26"
     showgrid="false"
     fit-margin-top="0"
     fit-margin-left="0"
     fit-margin-right="0"
     fit-margin-bottom="0"
     inkscape:zoom="3.776"
     inkscape:cx="24"
     inkscape:cy="17.7501"
     inkscape:window-x="0"
     inkscape:window-y="30"
     inkscape:window-maximized="0"
     inkscape:current-layer="svg24" /><g
     id="g18"
     transform="translate(-1,-0.99997273)"><path
       d="m 29.78,12.0406 c 1.1083,1.4514 1.2475,3.9274 1.28,4.06 l -1.22,0.48 5.38,3.62 1.65,-6.33 -1.25,0.48 c -0.5327,-0.7101 -2.0969,-3.2285 -4.36,-4.28 -2.062,-1.0095 -4.1885,-0.7169 -5.61,0.4 l 0.01,0.02 c 1.5,-0.2999 3.12,0.1842 4.12,1.55 z"
       id="path2"
       inkscape:connector-curvature="0" /><path
       d="m 17.0249,39.6147 c -1.0877,-1.4243 -1.2565,-3.9515 -1.28,-4.06 l 1.22,-0.48 -5.38,-3.62 -1.6501,6.33 1.25,-0.4799 c 0.1124,0.1352 1.8945,3.1345 4.36,4.28 2.062,1.0095 4.1885,0.717 5.61,-0.4 l -0.01,-0.02 c -1.4999,0.2999 -3.1199,-0.1842 -4.1199,-1.5501 z"
       id="path4"
       inkscape:connector-curvature="0" /><path
       d="m 47.01,42.9501 c -0.7852,-2.3302 -3.5821,-1.3042 -5.59,-1.54 -0.736,4.2726 -6.8739,4.2736 -7.61,0 -1.9928,0.234 -4.8049,-0.79 -5.59,1.54 l -1.99,6.05 H 49 Z"
       id="path6"
       inkscape:connector-curvature="0" /><path
       d="m 33.36,26.7901 c -0.27,-0.53 -1.03,-0.48 -1.28,0.05 -0.7761,1.6627 -0.5348,3.5952 -0.14,5.37 -1.1689,0.6252 -0.7245,2.899 0.51,2.98 1.9402,5.663 8.2243,5.6787 10.17,0 1.0917,-0.0528 1.6304,-1.8889 0.8,-2.75 2.7923,-8.1347 -7.2141,-10.623 -10.06,-5.65 z"
       id="path8"
       inkscape:connector-curvature="0" /><path
       d="m 6.21,17.1301 c 0.04,0.02 0.48,0.03 1.53,0.03 C 6.7437,16.4078 6.2192,15.598 6.1,15.4601 5.9136,8.3069 5.9464,6.873 6.8,5.6401 c 0.7546,-1.0449 2.0758,-1.6008 3.27,-1.43 3.5003,0.462 2.1249,3.94 4.61,3.94 0.6074,0 1.347,-0.0965 2.87,-0.25 v 7.11 c -0.2363,0.3018 -0.7718,1.2595 -1.92,2.13 0.4757,-0.1135 2.85,0.5096 2.85,-1.39 0.01,-1.96 0.04,-3.92 0.02,-5.87 -0.01,-1.25 -0.02,-2.51 -0.37,-3.7 -0.8,-2.76 -3.54,-5.15 -6.41,-5.18 -2.87,-0.02 -5.65,2.32 -6.5,5.06 -0.6335,2.0363 -0.32,4.1632 -0.32,9.69 0,0.75 0.58,1.35 1.31,1.38 z"
       id="path10"
       inkscape:connector-curvature="0" /><path
       d="m 17.43,18.5701 c -0.1353,-0.0151 -0.4728,-0.01 -2.4,-0.01 0.6325,2.0553 -1.1717,3.82 -3.37,3.82 -2.2081,0 -3.9893,-1.775 -3.36,-3.82 -2.316,0 -2.2759,-0.0043 -2.39,0.01 -2.38,0.13 -4.43,2.01 -4.65,4.4 l -0.26,2.8 h 21.32 l -0.25,-2.8 c -0.22,-2.39 -2.26,-4.27 -4.64,-4.4 z"
       id="path12"
       inkscape:connector-curvature="0" /><path
       d="m 9.88,5.7001 c -0.7,-0.09 -1.44,0.23 -1.85,0.8 -0.7007,1.0056 -0.46,2.813 -0.46,7.47 0,0.32 0,0.63 0.01,0.95 2.3192,2.9332 6.3113,2.7542 8.47,-0.3799 v -4.98 C 10.1336,10.167 12.7786,6.0782 9.88,5.7001 Z"
       id="path14"
       inkscape:connector-curvature="0" /><path
       d="m 17.15,17.1301 c -0.05,0 -0.1,0.01 -0.15,0.01 h 0.1 c 0.02,0 0.03,0 0.05,-0.01 z"
       id="path16"
       inkscape:connector-curvature="0" /></g></svg>