<?xml version="1.0" encoding="UTF-8" standalone="no"?>
<svg
   xmlns:dc="http://purl.org/dc/elements/1.1/"
   xmlns:cc="http://creativecommons.org/ns#"
   xmlns:rdf="http://www.w3.org/1999/02/22-rdf-syntax-ns#"
   xmlns:svg="http://www.w3.org/2000/svg"
   xmlns="http://www.w3.org/2000/svg"
   xmlns:sodipodi="http://sodipodi.sourceforge.net/DTD/sodipodi-0.dtd"
   xmlns:inkscape="http://www.inkscape.org/namespaces/inkscape"
   xml:space="preserve"
   version="1.1"
   style="clip-rule:evenodd;fill-rule:evenodd;image-rendering:optimizeQuality;shape-rendering:geometricPrecision;text-rendering:geometricPrecision"
   viewBox="0 0 383.75 295.75"
   x="0px"
   y="0px"
   id="svg20"
   sodipodi:docname="wifi.svg"
   width="383.75"
   height="295.75"
   inkscape:version="0.92.4 (unknown)"><metadata
     id="metadata24"><rdf:RDF><cc:Work
         rdf:about=""><dc:format>image/svg+xml</dc:format><dc:type
           rdf:resource="http://purl.org/dc/dcmitype/StillImage" /><dc:title></dc:title></cc:Work></rdf:RDF></metadata><sodipodi:namedview
     pagecolor="#ffffff"
     bordercolor="#666666"
     borderopacity="1"
     objecttolerance="10"
     gridtolerance="10"
     guidetolerance="10"
     inkscape:pageopacity="0"
     inkscape:pageshadow="2"
     inkscape:window-width="640"
     inkscape:window-height="480"
     id="namedview22"
     showgrid="false"
     fit-margin-top="0"
     fit-margin-left="0"
     fit-margin-right="0"
     fit-margin-bottom="0"
     inkscape:zoom="0.64"
     inkscape:cx="192.25"
     inkscape:cy="111.375"
     inkscape:window-x="51"
     inkscape:window-y="27"
     inkscape:window-maximized="0"
     inkscape:current-layer="svg20" /><defs
     id="defs4"><style
       type="text/css"
       id="style2">
   
    .fil1 {fill:black}
    .fil0 {fill:black;fill-rule:nonzero}
   
  </style></defs><g
     id="g14"
     transform="translate(0.25)"><path
       class="fil0"
       d="m 29,101 c -7,7 -17,7 -24,0 C -2,95 -2,84 5,77 55,28 122,0 192,0 c 68,0 135,26 187,77 6,7 6,18 0,24 -7,7 -17,7 -24,0 C 312,58 253,34 192,34 131,34 72,58 29,101 Z"
       id="path6"
       inkscape:connector-curvature="0"
       style="fill:#000000;fill-rule:nonzero" /><path
       class="fil0"
       d="m 82,155 c -6,6 -17,6 -24,0 -6,-7 -6,-18 0,-24 37,-37 86,-55 134,-55 48,0 97,18 133,55 7,6 7,17 0,24 -6,6 -17,6 -24,0 -30,-30 -69,-46 -109,-46 -40,0 -79,16 -110,46 z"
       id="path8"
       inkscape:connector-curvature="0"
       style="fill:#000000;fill-rule:nonzero" /><path
       class="fil0"
       d="m 136,208 c -7,7 -18,7 -24,0 -7,-6 -7,-17 0,-24 21,-21 50,-33 80,-33 29,0 58,11 80,33 7,7 7,18 0,24 -7,7 -17,7 -24,0 -15,-15 -35,-23 -56,-23 -21,0 -41,8 -56,23 z"
       id="path10"
       inkscape:connector-curvature="0"
       style="fill:#000000;fill-rule:nonzero" /><path
       class="fil1"
       d="m 170,242 c 12,-12 32,-12 44,0 12,13 12,32 0,44 -12,13 -32,13 -44,0 -12,-12 -12,-31 0,-44 z"
       id="path12"
       inkscape:connector-curvature="0"
       style="fill:#000000" /></g></svg>