<?xml version="1.0" encoding="UTF-8" standalone="no"?>
<svg
   xmlns:dc="http://purl.org/dc/elements/1.1/"
   xmlns:cc="http://creativecommons.org/ns#"
   xmlns:rdf="http://www.w3.org/1999/02/22-rdf-syntax-ns#"
   xmlns:svg="http://www.w3.org/2000/svg"
   xmlns="http://www.w3.org/2000/svg"
   xmlns:sodipodi="http://sodipodi.sourceforge.net/DTD/sodipodi-0.dtd"
   xmlns:inkscape="http://www.inkscape.org/namespaces/inkscape"
   viewBox="0 0 58 53"
   x="0px"
   y="0px"
   version="1.1"
   id="svg14"
   sodipodi:docname="record-screen.svg"
   width="58"
   height="53"
   inkscape:version="0.92.4 (unknown)">
  <metadata
     id="metadata20">
    <rdf:RDF>
      <cc:Work
         rdf:about="">
        <dc:format>image/svg+xml</dc:format>
        <dc:type
           rdf:resource="http://purl.org/dc/dcmitype/StillImage" />
        <dc:title>06 screen capture record desktop mojave MacOs</dc:title>
      </cc:Work>
    </rdf:RDF>
  </metadata>
  <defs
     id="defs18" />
  <sodipodi:namedview
     pagecolor="#ffffff"
     bordercolor="#666666"
     borderopacity="1"
     objecttolerance="10"
     gridtolerance="10"
     guidetolerance="10"
     inkscape:pageopacity="0"
     inkscape:pageshadow="2"
     inkscape:window-width="640"
     inkscape:window-height="480"
     id="namedview16"
     showgrid="false"
     fit-margin-top="0"
     fit-margin-left="0"
     fit-margin-right="0"
     fit-margin-bottom="0"
     inkscape:zoom="2.95"
     inkscape:cx="29"
     inkscape:cy="21"
     inkscape:window-x="51"
     inkscape:window-y="27"
     inkscape:window-maximized="0"
     inkscape:current-layer="svg14" />
  <title
     id="title2">06 screen capture record desktop mojave MacOs</title>
  <path
     d="M 57,0 H 1 A 1,1 0 0 0 0,1 V 31 H 58 V 1 A 1,1 0 0 0 57,0 Z M 34,4 h 2 v 2 h -2 z m -4,0 h 2 v 2 h -2 z m -4,0 h 2 v 2 h -2 z m -4,0 h 2 V 6 H 22 Z M 14.17,29 H 5 A 1,1 0 0 1 4,28 V 19.67 H 6 V 27 h 8.17 z m 0,-23 H 6 v 7.33 H 4 V 5 A 1,1 0 0 1 5,4 h 9.17 z M 20,29 h -2 v -2 h 2 z M 20,6 H 18 V 4 h 2 z m 4,23 h -2 v -2 h 2 z m 4,0 h -2 v -2 h 2 z m 4,0 h -2 v -2 h 2 z m 4,0 h -2 v -2 h 2 z m 0.5,-12.14 -12,7 A 1,1 0 0 1 23,23 V 10 a 1,1 0 0 1 1.45,-0.89 l 12,6 a 1,1 0 0 1 0.06,1.76 z M 40,29 h -2 v -2 h 2 z M 40,6 H 38 V 4 h 2 z m 14,22 a 1,1 0 0 1 -1,1 h -9 v -2 h 8 v -7 h 2 z M 54,13 H 52 V 6 H 44 V 4 h 9 a 1,1 0 0 1 1,1 z"
     id="path4"
     inkscape:connector-curvature="0" />
  <path
     d="m 0,43 a 1,1 0 0 0 1,1 h 56 a 1,1 0 0 0 1,-1 V 33 H 0 Z m 29,-7 a 2,2 0 1 1 -2,2 2,2 0 0 1 2,-2 z"
     id="path6"
     inkscape:connector-curvature="0" />
  <polygon
     points="26,59 18.5,59 18.5,61 27,61 37,61 45.5,61 45.5,59 38,59 38,54 26,54 "
     id="polygon8"
     transform="translate(-3,-8)" />
</svg>
