<svg height="512pt" viewBox="0 -77 512 512" width="512pt" xmlns="http://www.w3.org/2000/svg"><path d="m401.066406 170.667969c0 9.425781-7.640625 17.066406-17.066406 17.066406s-17.066406-7.640625-17.066406-17.066406 7.640625-17.066407 17.066406-17.066407 17.066406 7.640626 17.066406 17.066407zm0 0"/><path d="m417.175781 178.363281c-.699219 2.988281-1.851562 5.777344-3.273437 8.40625 5.527344 2.832031 12.578125 3.96875 20.351562 3.011719 9.8125-1.1875 19.300782-5.460938 26.144532-11.417969.257812-2.535156.394531-5.101562.394531-7.707031 0-9.648438-1.863281-18.847656-5.128907-27.363281-7.152343 17.023437-21.257812 31.648437-38.488281 35.070312zm0 0"/><path d="m416.570312 161c14.371094-4.609375 25.78125-22.625 27.027344-38.691406-7.542968-9.285156-17.230468-16.742188-28.273437-21.699219 6.980469 17.109375 7.347656 37.460937-2.429688 52.070313 1.59375 2.566406 2.796875 5.367187 3.675781 8.320312zm0 0"/><path d="m391.695312 137.488281c3.023438.699219 5.828126 1.871094 8.484376 3.3125 6.9375-13.492187 2.132812-34.332031-8.472657-46.542969-2.535156-.253906-5.105469-.390624-7.707031-.390624-9.652344 0-18.851562 1.867187-27.367188 5.128906 17.015626 7.160156 31.640626 21.265625 35.0625 38.492187zm0 0"/><path d="m350.824219 162.96875c.6875-2.984375 1.839843-5.769531 3.265625-8.40625-5.527344-2.824219-12.578125-3.957031-20.351563-3.019531-9.8125 1.1875-19.3125 5.460937-26.144531 11.417969-.257812 2.535156-.394531 5.101562-.394531 7.707031 0 9.648437 1.871093 18.847656 5.128906 27.363281 7.160156-17.011719 21.265625-31.640625 38.496094-35.0625zm0 0"/><path d="m428.628906 207.207031c-10.171875 0-19.269531-2.671875-26.648437-7.648437-2.5625 1.605468-5.359375 2.800781-8.320313 3.679687 4.609375 14.371094 22.613282 25.789063 38.691406 27.023438 9.324219-7.585938 16.808594-17.3125 21.765626-28.421875-5.699219 2.355468-11.707032 4.144531-17.808594 4.890625-2.609375.324219-5.179688.476562-7.679688.476562zm0 0"/><path d="m469.324219 42.667969h-150.058594l-82.832031 82.832031c-1.605469 1.605469-3.773438 2.5-6.035156 2.5h-162.132813v-17.066406h158.601563l68.265624-68.265625h-226.867187v-34.132813c0-4.710937-3.820313-8.535156-8.53125-8.535156h-51.199219c-4.710937 0-8.535156 3.824219-8.535156 8.535156 0 4.707032 3.824219 8.53125 8.535156 8.53125h42.664063v25.601563h-25.597657c-4.710937 0-8.535156 3.820312-8.535156 8.53125 0 4.710937 3.824219 8.535156 8.535156 8.535156h25.597657v17.066406h-25.597657c-4.710937 0-8.535156 3.820313-8.535156 8.53125v51.203125c0 4.707032 3.824219 8.53125 8.535156 8.53125h25.597657v17.066406h-25.597657c-4.710937 0-8.535156 3.824219-8.535156 8.535157 0 4.710937 3.824219 8.53125 8.535156 8.53125h25.597657v17.066406h-25.597657c-4.710937 0-8.535156 3.824219-8.535156 8.535156v34.132813c0 4.710937 3.824219 8.53125 8.535156 8.53125h25.597657v8.535156c0 23.527344 19.140625 42.667969 42.667969 42.667969h17.066406v51.199219c0 4.710937 3.824218 8.53125 8.53125 8.53125h68.269531c4.710937 0 8.53125-3.820313 8.53125-8.53125v-51.199219h34.132813v51.199219c0 4.710937 3.824218 8.53125 8.535156 8.53125h187.734375c4.710937 0 8.53125-3.820313 8.53125-8.53125v-51.199219h34.132812c23.527344 0 42.667969-19.140625 42.667969-42.667969v-170.667969c0-23.523437-19.140625-42.664062-42.675781-42.664062zm-273.058594 119.464843h34.132813c4.710937 0 8.535156 3.824219 8.535156 8.535157 0 4.710937-3.824219 8.53125-8.535156 8.53125h-34.132813c-4.710937 0-8.53125-3.820313-8.53125-8.53125 0-4.710938 3.820313-8.535157 8.53125-8.535157zm-42.664063 0c4.707032 0 8.53125 3.824219 8.53125 8.535157 0 4.710937-3.824218 8.53125-8.53125 8.53125h-85.335937v-17.066407zm-119.46875-34.132812v-34.132812h17.066407v34.132812zm0 102.398438v-17.066407h17.066407v17.066407zm145.066407 110.933593h-17.066407v-17.066406c0-4.710937-3.824218-8.53125-8.53125-8.53125-4.710937 0-8.535156 3.820313-8.535156 8.53125v17.066406h-17.066406v-42.664062h51.199219zm-110.933594-110.933593v-17.066407h162.132813c2.261718 0 4.4375.898438 6.035156 2.5l65.765625 65.769531h-24.132813l-51.199218-51.203124zm349.867187 110.933593h-25.597656v-17.066406c0-4.710937-3.824218-8.53125-8.535156-8.53125s-8.535156 3.820313-8.535156 8.53125v17.066406h-17.066406v-17.066406c0-4.710937-3.820313-8.53125-8.53125-8.53125-4.710938 0-8.535157 3.820313-8.535157 8.53125v17.066406h-17.066406v-17.066406c0-4.710937-3.820313-8.53125-8.53125-8.53125s-8.535156 3.820313-8.535156 8.53125v17.066406h-17.066407v-17.066406c0-4.710937-3.824218-8.53125-8.53125-8.53125-4.710937 0-8.535156 3.820313-8.535156 8.53125v17.066406h-25.601562v-42.664062h170.667968zm58.835938-158.421875c0 12.09375-6.601562 26.148438-12.730469 36.242188-16.851562 27.777344-47.71875 45.382812-80.246093 45.382812-4.089844 0-8.089844-.351562-12.246094-.898437-34.644532-4.503907-64.527344-28.953125-76.238282-61.789063-3.558593-9.992187-5.382812-20.574218-5.382812-31.179687 0-4.089844.359375-8.089844.886719-12.230469 3.292969-25.121094 16.53125-47.113281 35.644531-61.925781.308594-.316407.691406-.511719 1.039062-.777344 15.695313-11.824219 35.167969-18.933594 56.296876-18.933594 4.085937 0 8.097656.347657 12.253906.894531 25.113281 3.292969 47.09375 16.53125 61.910156 35.644532.3125.296875.511719.691406.773438 1.03125 11.828124 15.710937 18.929687 35.167968 18.929687 56.296875.007813 4.085937-.34375 8.089843-.890625 12.242187zm0 0"/><path d="m366.027344 141.773438c2.5625-1.597657 5.351562-2.800782 8.304687-3.679688-4.609375-14.367188-22.613281-25.785156-38.691406-27.023438-9.324219 7.585938-16.808594 17.3125-21.765625 28.425782 5.699219-2.355469 11.707031-4.148438 17.808594-4.890625 13.257812-1.640625 25.144531.945312 34.34375 7.167969zm0 0"/><path d="m351.429688 180.335938c-14.371094 4.605468-25.789063 22.621093-27.027344 38.6875 7.554687 9.285156 17.230468 16.742187 28.273437 21.703124-6.980469-17.109374-7.347656-37.460937 2.429688-52.070312-1.59375-2.570312-2.796875-5.367188-3.675781-8.320312zm0 0"/><path d="m376.292969 203.84375c-3.019531-.699219-5.828125-1.867188-8.480469-3.308594-6.9375 13.488282-2.132812 34.328125 8.472656 46.539063 2.535156.257812 5.113282.390625 7.707032.390625 9.652343 0 18.847656-1.867188 27.367187-5.125-17.007813-7.160156-31.632813-21.265625-35.066406-38.496094zm0 0"/></svg>