<?xml version="1.0" encoding="UTF-8" standalone="no"?>
<svg
   xmlns:dc="http://purl.org/dc/elements/1.1/"
   xmlns:cc="http://creativecommons.org/ns#"
   xmlns:rdf="http://www.w3.org/1999/02/22-rdf-syntax-ns#"
   xmlns:svg="http://www.w3.org/2000/svg"
   xmlns="http://www.w3.org/2000/svg"
   xmlns:sodipodi="http://sodipodi.sourceforge.net/DTD/sodipodi-0.dtd"
   xmlns:inkscape="http://www.inkscape.org/namespaces/inkscape"
   viewBox="0 0 60 75"
   version="1.1"
   x="0px"
   y="0px"
   id="svg656"
   sodipodi:docname="television.svg"
   inkscape:version="0.92.4 (unknown)">
  <metadata
     id="metadata662">
    <rdf:RDF>
      <cc:Work
         rdf:about="">
        <dc:format>image/svg+xml</dc:format>
        <dc:type
           rdf:resource="http://purl.org/dc/dcmitype/StillImage" />
      </cc:Work>
    </rdf:RDF>
  </metadata>
  <defs
     id="defs660" />
  <sodipodi:namedview
     pagecolor="#ffffff"
     bordercolor="#666666"
     borderopacity="1"
     objecttolerance="10"
     gridtolerance="10"
     guidetolerance="10"
     inkscape:pageopacity="0"
     inkscape:pageshadow="2"
     inkscape:window-width="640"
     inkscape:window-height="480"
     id="namedview658"
     showgrid="false"
     inkscape:zoom="3.1466667"
     inkscape:cx="30"
     inkscape:cy="37.5"
     inkscape:window-x="0"
     inkscape:window-y="25"
     inkscape:window-maximized="0"
     inkscape:current-layer="svg656" />
  <title
     id="title632">17 -Television- (Solid)</title>
  <desc
     id="desc634">Created with Sketch.</desc>
  <g
     stroke="none"
     stroke-width="1"
     fill="none"
     fill-rule="evenodd"
     id="g650">
    <g
       transform="translate(-825.000000, -496.000000)"
       fill="#000000"
       id="g648">
      <g
         transform="translate(825.000000, 496.000000)"
         id="g646">
        <polygon
           points="47 53 53 53 53 50 47 50"
           id="polygon636" />
        <path
           d="M50,37 C48.346,37 47,38.346 47,40 C47,41.302 47.839,42.402 49,42.816 L49,40 C49,39.448 49.447,39 50,39 C50.553,39 51,39.448 51,40 L51,42.816 C52.161,42.402 53,41.302 53,40 C53,38.346 51.654,37 50,37"
           id="path638" />
        <path
           d="M9.293,40.293 L18.293,31.293 C18.684,30.902 19.316,30.902 19.707,31.293 C20.098,31.684 20.098,32.316 19.707,32.707 L10.707,41.707 C10.512,41.902 10.256,42 10,42 C9.744,42 9.488,41.902 9.293,41.707 C8.902,41.316 8.902,40.684 9.293,40.293 L9.293,40.293 Z M9.293,35.293 L11.293,33.293 C11.684,32.902 12.316,32.902 12.707,33.293 C13.098,33.684 13.098,34.316 12.707,34.707 L10.707,36.707 C10.512,36.902 10.256,37 10,37 C9.744,37 9.488,36.902 9.293,36.707 C8.902,36.316 8.902,35.684 9.293,35.293 L9.293,35.293 Z M15,31.987 C15,32.54 14.552,32.987 14,32.987 C13.448,32.987 13,32.54 13,31.987 C13,31.435 13.448,30.987 14,30.987 C14.552,30.987 15,31.435 15,31.987 L15,31.987 Z M9.293,30.293 L13.293,26.293 C13.684,25.902 14.316,25.902 14.707,26.293 C15.098,26.684 15.098,27.316 14.707,27.707 L10.707,31.707 C10.512,31.902 10.256,32 10,32 C9.744,32 9.488,31.902 9.293,31.707 C8.902,31.316 8.902,30.684 9.293,30.293 L9.293,30.293 Z M18.293,26.293 C18.684,25.902 19.316,25.902 19.707,26.293 C20.098,26.684 20.098,27.316 19.707,27.707 L16.707,30.707 C16.512,30.902 16.256,31 16,31 C15.744,31 15.488,30.902 15.293,30.707 C14.902,30.316 14.902,29.684 15.293,29.293 L18.293,26.293 Z M21,29 C21.552,29 22,29.448 22,30 C22,30.552 21.552,31 21,31 C20.448,31 20,30.552 20,30 C20,29.448 20.448,29 21,29 L21,29 Z M22.293,27.293 L23.293,26.293 C23.684,25.902 24.316,25.902 24.707,26.293 C25.098,26.684 25.098,27.316 24.707,27.707 L23.707,28.707 C23.512,28.902 23.256,29 23,29 C22.744,29 22.488,28.902 22.293,28.707 C21.902,28.316 21.902,27.684 22.293,27.293 L22.293,27.293 Z M7,53 L40,53 L40,24 L7,24 L7,53 Z"
           id="path640" />
        <path
           d="M50,32 C47.243,32 45,29.757 45,27 C45,24.243 47.243,22 50,22 C52.757,22 55,24.243 55,27 C55,29.757 52.757,32 50,32 L50,32 Z M50,45 C47.243,45 45,42.757 45,40 C45,37.243 47.243,35 50,35 C52.757,35 55,37.243 55,40 C55,42.757 52.757,45 50,45 L50,45 Z M55,53.361 C55,54.265 54.265,55 53.36,55 L46.64,55 C45.735,55 45,54.265 45,53.361 L45,49.639 C45,48.735 45.735,48 46.64,48 L53.36,48 C54.265,48 55,48.735 55,49.639 L55,53.361 Z M42,54 C42,54.552 41.553,55 41,55 L6,55 C5.447,55 5,54.552 5,54 L5,23 C5,22.448 5.447,22 6,22 L41,22 C41.553,22 42,22.448 42,23 L42,54 Z M21.535,13 L38.465,13 L41.132,17 L18.868,17 L21.535,13 Z M55.971,17 L43.535,17 L39.832,11.445 C39.646,11.167 39.334,11 39,11 L32.111,11 L39.774,1.633 C40.124,1.206 40.061,0.576 39.633,0.226 C39.206,-0.124 38.576,-0.061 38.226,0.367 L30,10.42 L21.774,0.367 C21.423,-0.061 20.793,-0.124 20.367,0.226 C19.939,0.576 19.876,1.206 20.226,1.633 L27.889,11 L21,11 C20.666,11 20.354,11.167 20.168,11.445 L16.465,17 L4.029,17 C1.808,17 0,18.794 0,21 L0,55.971 C0,58.192 1.808,60 4.029,60 L55.971,60 C58.192,60 60,58.192 60,55.971 L60,21 C60,18.794 58.192,17 55.971,17 L55.971,17 Z"
           id="path642" />
        <path
           d="M50.707,27.707 C50.512,27.902 50.256,28 50,28 C49.744,28 49.488,27.902 49.293,27.707 C48.902,27.317 48.902,26.684 49.293,26.293 L51.285,24.3 C50.894,24.113 50.462,24 50,24 C48.346,24 47,25.346 47,27 C47,28.654 48.346,30 50,30 C51.654,30 53,28.654 53,27 C53,26.538 52.886,26.106 52.699,25.714 L50.707,27.707 Z"
           id="path644" />
      </g>
    </g>
  </g>
</svg>
