<?xml version="1.0" encoding="UTF-8" standalone="no"?>
<svg
   xmlns:dc="http://purl.org/dc/elements/1.1/"
   xmlns:cc="http://creativecommons.org/ns#"
   xmlns:rdf="http://www.w3.org/1999/02/22-rdf-syntax-ns#"
   xmlns:svg="http://www.w3.org/2000/svg"
   xmlns="http://www.w3.org/2000/svg"
   xmlns:sodipodi="http://sodipodi.sourceforge.net/DTD/sodipodi-0.dtd"
   xmlns:inkscape="http://www.inkscape.org/namespaces/inkscape"
   viewBox="0 0 55 56"
   x="0px"
   y="0px"
   version="1.1"
   id="svg22"
   sodipodi:docname="html.svg"
   width="55"
   height="56"
   inkscape:version="0.92.4 (unknown)">
  <metadata
     id="metadata28">
    <rdf:RDF>
      <cc:Work
         rdf:about="">
        <dc:format>image/svg+xml</dc:format>
        <dc:type
           rdf:resource="http://purl.org/dc/dcmitype/StillImage" />
        <dc:title></dc:title>
      </cc:Work>
    </rdf:RDF>
  </metadata>
  <defs
     id="defs26" />
  <sodipodi:namedview
     pagecolor="#ffffff"
     bordercolor="#666666"
     borderopacity="1"
     objecttolerance="10"
     gridtolerance="10"
     guidetolerance="10"
     inkscape:pageopacity="0"
     inkscape:pageshadow="2"
     inkscape:window-width="640"
     inkscape:window-height="480"
     id="namedview24"
     showgrid="false"
     fit-margin-top="0"
     fit-margin-left="0"
     fit-margin-right="0"
     fit-margin-bottom="0"
     inkscape:zoom="2.95"
     inkscape:cx="28"
     inkscape:cy="20"
     inkscape:window-x="0"
     inkscape:window-y="25"
     inkscape:window-maximized="0"
     inkscape:current-layer="svg22" />
  <g
     id="g16"
     transform="translate(-4,-4)">
    <path
       d="M 39.707,33.707 37.414,36 39,37.586 43.586,33 39,28.414 37.414,30 l 2.293,2.293 a 1,1 0 0 1 0,1.414 z"
       id="path2"
       inkscape:connector-curvature="0" />
    <path
       d="M 20,6 H 48 V 4 H 18 v 9 a 1,1 0 0 1 -1,1 H 8 v 38 h 33 a 1,1 0 0 1 1,1 v 4 a 3,3 0 0 0 6,0 V 22 H 20 Z m -6,13 h 2 v 2 h -2 z m -4,-3 h 2 v 2 H 10 Z M 21,50 H 11 V 48 H 21 Z M 11,46 v -2 h 14 v 2 z m 16,4 h -4 v -2 h 4 z m 14,0 H 29 V 48 H 41 Z M 27,46 v -2 h 12 v 2 z m 19,6 h -2 v -2 h 2 z m -6.293,-25.707 6,6 a 1,1 0 0 1 0,1.414 l -6,6 a 1,1 0 0 1 -1.414,0 l -3,-3 a 1,1 0 0 1 0,-1.414 L 37.586,33 35.293,30.707 a 1,1 0 0 1 0,-1.414 l 3,-3 a 1,1 0 0 1 1.414,0 z M 30,24 h 5 a 1,1 0 0 1 0.871,1.49 l -9,16 A 1,1 0 0 1 26,42 h -5 a 1,1 0 0 1 -0.871,-1.49 l 9,-16 A 1,1 0 0 1 30,24 Z m -9.293,5.293 a 1,1 0 0 1 0,1.414 L 18.414,33 l 2.293,2.293 a 1,1 0 0 1 0,1.414 l -3,3 a 1,1 0 0 1 -1.414,0 l -6,-6 a 1,1 0 0 1 0,-1.414 l 6,-6 a 1,1 0 0 1 1.414,0 z"
       id="path4"
       inkscape:connector-curvature="0" />
    <polygon
       points="22.71,40 25.415,40 33.29,26 30.585,26 "
       id="polygon6" />
    <path
       d="M 12.414,33 17,37.586 18.586,36 16.293,33.707 a 1,1 0 0 1 0,-1.414 L 18.586,30 17,28.414 Z"
       id="path8"
       inkscape:connector-curvature="0" />
    <polygon
       points="16,12 16,5.414 9.414,12 "
       id="polygon10" />
    <path
       d="M 22,8 V 20 H 59 V 8 Z m 8,10 h -2 v -3 h -2 v 3 h -2 v -8 h 2 v 3 h 2 v -3 h 2 z m 8,-6 h -2 v 6 h -2 v -6 h -2 v -2 h 6 z m 12,6 H 48 V 12 H 47.618 L 45.9,15.447 a 1.042,1.042 0 0 1 -1.79,0 L 42.382,12 H 42 v 6 h -2 v -7 a 1,1 0 0 1 1,-1 h 2 a 1,1 0 0 1 0.9,0.553 l 1.1,2.211 1.1,-2.211 A 1,1 0 0 1 47,10 h 2 a 1,1 0 0 1 1,1 z m 7,0 h -4 a 1,1 0 0 1 -1,-1 v -7 h 2 v 6 h 3 z"
       id="path12"
       inkscape:connector-curvature="0" />
    <path
       d="M 40,54 H 4 v 3 a 3,3 0 0 0 3,3 H 41.026 A 4.948,4.948 0 0 1 40,57 Z"
       id="path14"
       inkscape:connector-curvature="0" />
  </g>
</svg>
