<?xml version="1.0" encoding="UTF-8" standalone="no"?>
<svg
   xmlns:dc="http://purl.org/dc/elements/1.1/"
   xmlns:cc="http://creativecommons.org/ns#"
   xmlns:rdf="http://www.w3.org/1999/02/22-rdf-syntax-ns#"
   xmlns:svg="http://www.w3.org/2000/svg"
   xmlns="http://www.w3.org/2000/svg"
   xmlns:sodipodi="http://sodipodi.sourceforge.net/DTD/sodipodi-0.dtd"
   xmlns:inkscape="http://www.inkscape.org/namespaces/inkscape"
   data-name="Layer 1"
   viewBox="0 0 128.00002 103"
   x="0px"
   y="0px"
   version="1.1"
   id="svg26"
   sodipodi:docname="about-us.svg"
   inkscape:version="0.92.4 (unknown)"
   width="128.00002"
   height="103">
  <metadata
     id="metadata32">
    <rdf:RDF>
      <cc:Work
         rdf:about="">
        <dc:format>image/svg+xml</dc:format>
        <dc:type
           rdf:resource="http://purl.org/dc/dcmitype/StillImage" />
        <dc:title>miscellaneous 53 solid</dc:title>
      </cc:Work>
    </rdf:RDF>
  </metadata>
  <defs
     id="defs30" />
  <sodipodi:namedview
     pagecolor="#ffffff"
     bordercolor="#666666"
     borderopacity="1"
     objecttolerance="10"
     gridtolerance="10"
     guidetolerance="10"
     inkscape:pageopacity="0"
     inkscape:pageshadow="2"
     inkscape:window-width="640"
     inkscape:window-height="480"
     id="namedview28"
     showgrid="false"
     inkscape:zoom="1.475"
     inkscape:cx="64"
     inkscape:cy="35.5"
     inkscape:window-x="0"
     inkscape:window-y="25"
     inkscape:window-maximized="0"
     inkscape:current-layer="svg26"
     fit-margin-top="0"
     fit-margin-left="0"
     fit-margin-right="0"
     fit-margin-bottom="0" />
  <title
     id="title2">miscellaneous 53 solid</title>
  <path
     d="M 28.47662,37.06592 A 17.29668,17.29668 0 0 1 25.691,34.07959 25.49485,25.49485 0 0 0 14,55.5 24.26319,24.26319 0 0 0 14.21069,58.49817 4.00007,4.00007 0 0 0 18.17957,62 H 35.76184 A 7.94071,7.94071 0 0 1 34.74213,58.99664 C 34.69837,58.64813 34.66162,58.31836 34.63019,58 H 18.17957 A 19.9931,19.9931 0 0 1 18,55.5 21.467,21.467 0 0 1 28.47662,37.06592 Z"
     id="path4"
     inkscape:connector-curvature="0" />
  <path
     d="M 52.98828,37.05884 A 17.40955,17.40955 0 0 1 50.1911,34.07965 25.50716,25.50716 0 0 0 38.62787,57.76807 c 0.02441,0.2348 0.051,0.47467 0.08307,0.73 A 3.99968,3.99968 0 0 0 42.67969,62 h 9.98773 a 28.19917,28.19917 0 0 1 -0.5755,-4 H 42.67957 A 19.9931,19.9931 0 0 1 42.5,55.5 21.46711,21.46711 0 0 1 52.98828,37.05884 Z"
     id="path6"
     inkscape:connector-curvature="0" />
  <path
     d="m 107.90979,58 a 28.1061,28.1061 0 0 1 -0.57343,4 h 2.48407 A 4,4 0 0 0 113.7893,58.49817 24.26319,24.26319 0 0 0 114,55.5 25.495,25.495 0 0 0 102.309,34.07953 17.54463,17.54463 0 0 1 100.10417,36.51294 27.94784,27.94784 0 0 1 102.25761,39.021 21.39928,21.39928 0 0 1 110,55.5 19.99311,19.99311 0 0 1 109.82043,58 Z"
     id="path8"
     inkscape:connector-curvature="0" />
  <path
     d="m 41.06873,36.9884 a 29.76005,29.76005 0 0 1 7.122,-6.37531 l -6e-5,-1.2e-4 C 48.16858,30.56091 48.1524,30.50604 48.13079,30.45379 q -0.208,-0.50867 -0.37946,-1.03461 a 16.96492,16.96492 0 0 1 1.52759,-14.28052 v -6e-5 a 13.18727,13.18727 0 1 0 -8.21019,21.8498 z"
     id="path10"
     inkscape:connector-curvature="0" />
  <path
     d="m 88.5,10.75751 a 13.12211,13.12211 0 0 0 -9.77893,4.38123 v 6e-5 a 16.86587,16.86587 0 0 1 1.9295,12.88788 27.88223,27.88223 0 0 1 16.47375,5.823 A 13.15054,13.15054 0 0 0 88.5,10.75751 Z"
     id="path12"
     inkscape:connector-curvature="0" />
  <path
     d="m 59.96564,36.4527 q 0.90536,-0.92725 1.88617,-1.76282 c 0.01648,-0.0141 0.03339,-0.02747 0.04987,-0.04144 0.65118,-0.5509 1.32288,-1.07422 2.01868,-1.5614 l 2.4e-4,-1.8e-4 1.2e-4,-6e-5 a 28.15845,28.15845 0 0 1 8.42487,-4.0047 c 0.09711,-0.02759 0.19318,-0.05847 0.29065,-0.085 0.3645,-0.09973 0.732,-0.18854 1.10071,-0.27356 0.05237,-0.012 0.10425,-0.02551 0.15668,-0.03723 0.40326,-0.09058 0.809,-0.17047 1.21655,-0.24323 l 0.03821,-0.007 q 0.63528,-0.11252 1.27655,-0.19507 h 6e-5 A 13.15986,13.15986 0 1 0 59.96564,36.4527 Z"
     id="path14"
     inkscape:connector-curvature="0" />
  <path
     d="m 63.47363,73.36884 a 23.9658,23.9658 0 0 0 28.79572,3.23151 l 4.20123,4.00073 a 3.99118,3.99118 0 0 0 0.76691,4.74695 l 17.325,16.5448 A 4.00026,4.00026 0 0 0 117.32483,103 q 0.0782,0 0.15649,-0.003 a 4.00018,4.00018 0 0 0 2.82373,-1.32874 l 6.675,-7.4552 a 4,4 0 0 0 -0.21747,-5.561 l -17.325,-16.5448 A 3.99987,3.99987 0 0 0 106.67517,71 q -0.0781,0 -0.15649,0.0031 a 3.98308,3.98308 0 0 0 -1.70526,0.47247 L 100.9267,67.77429 A 24.00861,24.00861 0 0 0 80.359,31.98132 l -0.0021,-6e-5 A 24.00011,24.00011 0 0 0 63.4736,73.36883 Z m 38.4801,0.90765 -2.91027,3.25051 -3.45465,-3.28979 a 23.80377,23.80377 0 0 0 1.81531,-1.71765 C 97.8357,72.06582 98.2414,71.59445 98.633,71.11423 Z m -36.431,-32.08142 a 20,20 0 1 1 0.70764,28.27539 19.95,19.95 0 0 1 -0.70766,-28.27539 z"
     id="path16"
     inkscape:connector-curvature="0" />
  <path
     d="M 89.28931,58.49817 A 24.26319,24.26319 0 0 0 89.5,55.5 25.35174,25.35174 0 0 0 84.77277,40.73785 15.97555,15.97555 0 0 0 80.00537,40 c -0.35815,0 -0.71259,0.03192 -1.068,0.05591 A 21.42157,21.42157 0 0 1 85.5,55.5 19.9931,19.9931 0 0 1 85.32043,58 H 64.1394 a 16.02955,16.02955 0 0 0 1.04932,4 h 20.13171 a 4,4 0 0 0 3.96888,-3.50183 z"
     id="path18"
     inkscape:connector-curvature="0" />
  <path
     d="M 120,0 H 8 A 8.009,8.009 0 0 0 0,8 v 66 a 8.00909,8.00909 0 0 0 8,8 h 43 v 8 h -5 a 2,2 0 0 0 0,4 h 36 a 2,2 0 0 0 0,-4 H 77 V 83.83453 A 27.9449,27.9449 0 0 1 73.00006,83.10888 H 73 V 90 H 55 v -8 h 14.60138 c -0.5946,-0.23785 -1.17975,-0.499 -1.75708,-0.77753 -0.03479,-0.01678 -0.07,-0.03271 -0.10474,-0.04968 q -0.87708,-0.42764 -1.72467,-0.91656 l -0.0054,-0.0032 A 27.942,27.942 0 0 1 55.20483,69.00037 L 55.20465,69 H 4 V 8 A 4,4 0 0 1 8,4 h 112 a 4,4 0 0 1 4,4 v 61 h -12.047 c 0.082,0.0722 0.16772,0.13879 0.24707,0.2146 l 8.98993,8.585 h -6e-5 l 3.088,2.94891 A 7.99408,7.99408 0 0 0 128,74 V 8 a 8.009,8.009 0 0 0 -8,-8 z"
     id="path20"
     inkscape:connector-curvature="0" />
</svg>
