<?xml version="1.0" encoding="UTF-8" standalone="no"?>
<svg
   xmlns:dc="http://purl.org/dc/elements/1.1/"
   xmlns:cc="http://creativecommons.org/ns#"
   xmlns:rdf="http://www.w3.org/1999/02/22-rdf-syntax-ns#"
   xmlns:svg="http://www.w3.org/2000/svg"
   xmlns="http://www.w3.org/2000/svg"
   xmlns:sodipodi="http://sodipodi.sourceforge.net/DTD/sodipodi-0.dtd"
   xmlns:inkscape="http://www.inkscape.org/namespaces/inkscape"
   data-name="Layer 1"
   viewBox="0 0 95 79.160004"
   x="0px"
   y="0px"
   version="1.1"
   id="svg10"
   sodipodi:docname="terminal.svg"
   width="95"
   height="79.160004"
   inkscape:version="0.92.4 (5da689c313, 2019-01-14)">
  <metadata
     id="metadata16">
    <rdf:RDF>
      <cc:Work
         rdf:about="">
        <dc:format>image/svg+xml</dc:format>
        <dc:type
           rdf:resource="http://purl.org/dc/dcmitype/StillImage" />
        <dc:title>Artboard 83</dc:title>
      </cc:Work>
    </rdf:RDF>
  </metadata>
  <defs
     id="defs14" />
  <sodipodi:namedview
     pagecolor="#ffffff"
     bordercolor="#666666"
     borderopacity="1"
     objecttolerance="10"
     gridtolerance="10"
     guidetolerance="10"
     inkscape:pageopacity="0"
     inkscape:pageshadow="2"
     inkscape:window-width="640"
     inkscape:window-height="480"
     id="namedview12"
     showgrid="false"
     fit-margin-top="0"
     fit-margin-left="0"
     fit-margin-right="0"
     fit-margin-bottom="0"
     inkscape:zoom="1.888"
     inkscape:cx="47.5"
     inkscape:cy="27.08"
     inkscape:window-x="0"
     inkscape:window-y="0"
     inkscape:window-maximized="0"
     inkscape:current-layer="svg10" />
  <title
     id="title2">Artboard 83</title>
  <path
     d="M 79.17,0 H 15.83 A 15.88,15.88 0 0 0 0,15.83 v 47.5 A 15.88,15.88 0 0 0 15.83,79.16 H 79.17 A 15.88,15.88 0 0 0 95,63.33 V 15.83 A 15.88,15.88 0 0 0 79.17,0 Z M 63.33,9.89 a 2,2 0 0 1 2,-2 h 4 a 2,2 0 0 1 2,2 v 4 a 2,2 0 0 1 -2,2 h -4 a 2,2 0 0 1 -2,-2 z m -49.48,5.94 h -4 a 2,2 0 0 1 -2,-2 v -4 a 2,2 0 0 1 2,-2 h 4 a 2,2 0 0 1 2,2 v 4 a 2,2 0 0 1 -2,2 z m 2,39.58 11.88,-7.91 -11.9,-7.92 V 23.75 L 47.5,47.5 15.83,71.25 Z m 55.4,15.84 H 47.5 v -7.92 h 23.75 z m 15.83,-57.4 a 2,2 0 0 1 -2,2 h -3.93 a 2,2 0 0 1 -2,-2 v -4 a 2,2 0 0 1 2,-2 h 3.95 a 2,2 0 0 1 2,2 z"
     id="path4"
     inkscape:connector-curvature="0" />
</svg>
