<?xml version="1.0" encoding="UTF-8" standalone="no"?>
<svg
   xmlns:dc="http://purl.org/dc/elements/1.1/"
   xmlns:cc="http://creativecommons.org/ns#"
   xmlns:rdf="http://www.w3.org/1999/02/22-rdf-syntax-ns#"
   xmlns:svg="http://www.w3.org/2000/svg"
   xmlns="http://www.w3.org/2000/svg"
   xmlns:sodipodi="http://sodipodi.sourceforge.net/DTD/sodipodi-0.dtd"
   xmlns:inkscape="http://www.inkscape.org/namespaces/inkscape"
   version="1.1"
   x="0px"
   y="0px"
   viewBox="0 0 73.932999 89.999001"
   enable-background="new 0 0 100 100"
   xml:space="preserve"
   id="svg8"
   sodipodi:docname="calculator.svg"
   width="73.932999"
   height="89.999001"
   inkscape:version="0.92.4 (5da689c313, 2019-01-14)"><metadata
     id="metadata14"><rdf:RDF><cc:Work
         rdf:about=""><dc:format>image/svg+xml</dc:format><dc:type
           rdf:resource="http://purl.org/dc/dcmitype/StillImage" /><dc:title></dc:title></cc:Work></rdf:RDF></metadata><defs
     id="defs12" /><sodipodi:namedview
     pagecolor="#ffffff"
     bordercolor="#666666"
     borderopacity="1"
     objecttolerance="10"
     gridtolerance="10"
     guidetolerance="10"
     inkscape:pageopacity="0"
     inkscape:pageshadow="2"
     inkscape:window-width="640"
     inkscape:window-height="480"
     id="namedview10"
     showgrid="false"
     fit-margin-top="0"
     fit-margin-left="0"
     fit-margin-right="0"
     fit-margin-bottom="0"
     inkscape:zoom="1.888"
     inkscape:cx="36.967"
     inkscape:cy="32.498999"
     inkscape:window-x="0"
     inkscape:window-y="0"
     inkscape:window-maximized="0"
     inkscape:current-layer="svg8" /><path
     d="M 69.821,0 H 4.114 C 1.85,0 0,1.852 0,4.113 v 81.773 c 0,2.263 1.851,4.113 4.114,4.113 h 65.705 c 2.265,0 4.114,-1.853 4.114,-4.113 V 4.113 C 73.934,1.852 72.083,0 69.821,0 Z M 18.348,80.025 c 0,0.565 -0.464,1.029 -1.029,1.029 H 9.091 c -0.565,0 -1.027,-0.464 -1.027,-1.029 V 71.8 c 0,-0.565 0.462,-1.026 1.027,-1.026 h 8.228 c 0.565,0 1.029,0.461 1.029,1.026 z m 0,-15.837 c 0,0.565 -0.464,1.028 -1.029,1.028 H 9.091 c -0.565,0 -1.027,-0.463 -1.027,-1.028 V 55.96 c 0,-0.565 0.462,-1.028 1.027,-1.028 h 8.228 c 0.565,0 1.029,0.463 1.029,1.028 z m 0,-15.84 c 0,0.564 -0.464,1.028 -1.029,1.028 H 9.091 c -0.565,0 -1.027,-0.464 -1.027,-1.028 V 40.12 c 0,-0.565 0.462,-1.028 1.027,-1.028 h 8.228 c 0.565,0 1.029,0.463 1.029,1.028 z m 15.841,31.677 c 0,0.565 -0.462,1.029 -1.028,1.029 h -8.227 c -0.566,0 -1.029,-0.464 -1.029,-1.029 V 71.8 c 0,-0.565 0.463,-1.026 1.029,-1.026 h 8.227 c 0.566,0 1.028,0.461 1.028,1.026 z m 0,-15.837 c 0,0.565 -0.462,1.028 -1.028,1.028 h -8.227 c -0.566,0 -1.029,-0.463 -1.029,-1.028 V 55.96 c 0,-0.565 0.463,-1.028 1.029,-1.028 h 8.227 c 0.566,0 1.028,0.463 1.028,1.028 z m 0,-15.84 c 0,0.564 -0.462,1.028 -1.028,1.028 h -8.227 c -0.566,0 -1.029,-0.464 -1.029,-1.028 V 40.12 c 0,-0.565 0.463,-1.028 1.029,-1.028 h 8.227 c 0.566,0 1.028,0.463 1.028,1.028 z M 50.03,80.025 c 0,0.565 -0.463,1.029 -1.028,1.029 h -8.228 c -0.565,0 -1.027,-0.464 -1.027,-1.029 V 71.8 c 0,-0.565 0.462,-1.026 1.027,-1.026 h 8.228 c 0.565,0 1.028,0.461 1.028,1.026 z m 0,-15.837 c 0,0.565 -0.463,1.028 -1.028,1.028 h -8.228 c -0.565,0 -1.027,-0.463 -1.027,-1.028 v -8.229 c 0,-0.564 0.462,-1.029 1.027,-1.029 h 8.228 c 0.565,0 1.028,0.465 1.028,1.029 z m 0,-15.84 c 0,0.565 -0.463,1.029 -1.028,1.029 h -8.228 c -0.565,0 -1.027,-0.464 -1.027,-1.029 V 40.12 c 0,-0.565 0.462,-1.028 1.027,-1.028 h 8.228 c 0.565,0 1.028,0.463 1.028,1.028 z m 15.839,31.677 c 0,0.565 -0.461,1.029 -1.026,1.029 h -8.228 c -0.565,0 -1.029,-0.464 -1.029,-1.029 V 55.959 c 0,-0.564 0.464,-1.029 1.029,-1.029 h 8.228 c 0.565,0 1.026,0.465 1.026,1.029 z m 0,-31.677 c 0,0.564 -0.461,1.028 -1.026,1.028 h -8.228 c -0.565,0 -1.029,-0.464 -1.029,-1.028 V 40.12 c 0,-0.565 0.464,-1.028 1.029,-1.028 h 8.228 c 0.565,0 1.026,0.463 1.026,1.028 z m 0.077,-20.69 c 0,0.566 -0.463,1.029 -1.028,1.029 h -55.9 c -0.565,0 -1.029,-0.463 -1.029,-1.029 V 13.874 c 0,-0.564 0.464,-1.028 1.029,-1.028 h 55.898 c 0.564,0 1.029,0.464 1.029,1.028 v 13.784 z"
     id="path2"
     inkscape:connector-curvature="0" /></svg>