<?xml version="1.0" encoding="UTF-8" standalone="no"?>
<svg
   xmlns:dc="http://purl.org/dc/elements/1.1/"
   xmlns:cc="http://creativecommons.org/ns#"
   xmlns:rdf="http://www.w3.org/1999/02/22-rdf-syntax-ns#"
   xmlns:svg="http://www.w3.org/2000/svg"
   xmlns="http://www.w3.org/2000/svg"
   xmlns:sodipodi="http://sodipodi.sourceforge.net/DTD/sodipodi-0.dtd"
   xmlns:inkscape="http://www.inkscape.org/namespaces/inkscape"
   version="1.1"
   x="0px"
   y="0px"
   viewBox="500 0 233.39999 200"
   enable-background="new 500 0 400 400"
   xml:space="preserve"
   id="svg12"
   sodipodi:docname="sidebar.svg"
   width="233.39999"
   height="200"
   inkscape:version="0.92.4 (unknown)"><metadata
     id="metadata18"><rdf:RDF><cc:Work
         rdf:about=""><dc:format>image/svg+xml</dc:format><dc:type
           rdf:resource="http://purl.org/dc/dcmitype/StillImage" /><dc:title></dc:title></cc:Work></rdf:RDF></metadata><defs
     id="defs16" /><sodipodi:namedview
     pagecolor="#ffffff"
     bordercolor="#666666"
     borderopacity="1"
     objecttolerance="10"
     gridtolerance="10"
     guidetolerance="10"
     inkscape:pageopacity="0"
     inkscape:pageshadow="2"
     inkscape:window-width="640"
     inkscape:window-height="480"
     id="namedview14"
     showgrid="false"
     fit-margin-top="0"
     fit-margin-left="0"
     fit-margin-right="0"
     fit-margin-bottom="0"
     inkscape:zoom="0.472"
     inkscape:cx="116.7"
     inkscape:cy="50"
     inkscape:window-x="51"
     inkscape:window-y="27"
     inkscape:window-maximized="0"
     inkscape:current-layer="svg12" /><path
     d="M 616.7,0 C 607.5,0 600,7.5 600,16.7 c 0,9.2 7.5,16.7 16.7,16.7 h 100 c 9.2,0 16.7,-7.5 16.7,-16.7 C 733.4,7.5 725.9,0 716.7,0 Z"
     id="path2"
     inkscape:connector-curvature="0" /><path
     d="m 502.8,90.8 c -0.3,0.4 -0.4,1 -0.6,1.5 -0.5,0.9 -0.9,1.9 -1.2,2.9 -0.2,0.6 -0.5,1.1 -0.7,1.7 -0.1,0.6 0,1.1 0,1.7 0,0.5 -0.3,1 -0.3,1.5 0,0.5 0.3,1 0.3,1.5 0.1,0.6 -0.1,1.1 0,1.7 0.1,0.6 0.5,1.1 0.7,1.7 0.3,1 0.7,2 1.2,2.9 0.3,0.5 0.3,1 0.6,1.5 0,0 0,0 0,0 l 33.3,50 c 3.2,4.8 8.5,7.4 13.9,7.4 3.2,0 6.4,-0.9 9.2,-2.8 7.7,-5.1 9.7,-15.5 4.6,-23.1 l -16.1,-24.1 h 169 c 9.2,0 16.7,-7.5 16.7,-16.7 0,-9.2 -7.5,-16.7 -16.7,-16.7 H 547.8 l 16.1,-24.1 c 5.1,-7.7 3,-18 -4.6,-23.1 -7.7,-5.1 -18,-3 -23.1,4.6 l -33.4,50 c 0,0 0,0 0,0 z"
     id="path4"
     inkscape:connector-curvature="0" /><path
     d="m 716.7,166.7 h -100 c -9.2,0 -16.7,7.5 -16.7,16.7 0,9.2 7.5,16.6 16.7,16.6 h 100 c 9.2,0 16.7,-7.5 16.7,-16.7 0,-9.2 -7.5,-16.6 -16.7,-16.6 z"
     id="path6"
     inkscape:connector-curvature="0" /></svg>