<svg xmlns="http://www.w3.org/2000/svg" xmlns:xlink="http://www.w3.org/1999/xlink" version="1.1" x="0px" y="0px" viewBox="0 0 90 90" enable-background="new 0 0 90 90" xml:space="preserve"><circle cx="60.6" cy="19.1" r="5.6"></circle><path d="M85,47.6c0,1.2-1,2.2-2.2,2.2H7.1c-1.2,0-2.2-1-2.2-2.2l0,0c0-1.2,1-2.2,2.2-2.2h75.7C84,45.4,85,46.4,85,47.6L85,47.6z"></path><path d="M81.4,79c0,1.3-1.1,2.4-2.4,2.4H10.3c-1.3,0-2.4-1.1-2.4-2.4V52.8c0-1.3,1.1-2.4,2.4-2.4h68.6c1.3,0,2.4,1.1,2.4,2.4V79z"></path><path d="M40,25.6c0-0.9-0.7-1.6-1.6-1.6H16.6c-0.9,0-1.6,0.7-1.6,1.6v13.8c0,0.9,0.7,1.6,1.6,1.6h21.8c0.9,0,1.6-0.7,1.6-1.6V25.6z"></path><path d="M33.8,42H21.1c-0.9,0-1.7,0.1-1.7,1c0,0.9,0.8,1,1.7,1h12.7c0.9,0,1.7-0.1,1.7-1C35.5,42.1,34.7,42,33.8,42z"></path><path d="M66.1,26.4H54.9c-0.1,0-0.3,0-0.4,0c-0.1,0-0.4,0-0.1,0c0,0-0.1,0-0.2,0c-0.2,0-0.4,0.1-0.7,0.1c0,0-0.1,0-0.1,0  c-0.1,0-0.1,0-0.2,0c-0.1,0-0.1,0-0.2,0.1v0c-2.1,0.6-4,2.4-4.8,4.9l-4.1,13.2h5.3l3.5-11.4l0,0v11.4h14v-12h0.8v12h5.1V34.1  C72.9,29.8,69.9,26.4,66.1,26.4z"></path></svg>