<?xml version="1.0" encoding="UTF-8" standalone="no"?>
<svg
   xmlns:dc="http://purl.org/dc/elements/1.1/"
   xmlns:cc="http://creativecommons.org/ns#"
   xmlns:rdf="http://www.w3.org/1999/02/22-rdf-syntax-ns#"
   xmlns:svg="http://www.w3.org/2000/svg"
   xmlns="http://www.w3.org/2000/svg"
   xmlns:sodipodi="http://sodipodi.sourceforge.net/DTD/sodipodi-0.dtd"
   xmlns:inkscape="http://www.inkscape.org/namespaces/inkscape"
   version="1.1"
   x="0px"
   y="0px"
   viewBox="0 0 62 62"
   xml:space="preserve"
   id="svg8"
   sodipodi:docname="icons.svg"
   width="62"
   height="62"
   inkscape:version="0.92.4 (unknown)"><metadata
     id="metadata14"><rdf:RDF><cc:Work
         rdf:about=""><dc:format>image/svg+xml</dc:format><dc:type
           rdf:resource="http://purl.org/dc/dcmitype/StillImage" /><dc:title></dc:title></cc:Work></rdf:RDF></metadata><defs
     id="defs12" /><sodipodi:namedview
     pagecolor="#ffffff"
     bordercolor="#666666"
     borderopacity="1"
     objecttolerance="10"
     gridtolerance="10"
     guidetolerance="10"
     inkscape:pageopacity="0"
     inkscape:pageshadow="2"
     inkscape:window-width="640"
     inkscape:window-height="480"
     id="namedview10"
     showgrid="false"
     fit-margin-top="0"
     fit-margin-left="0"
     fit-margin-right="0"
     fit-margin-bottom="0"
     inkscape:zoom="1.888"
     inkscape:cx="31"
     inkscape:cy="18.5"
     inkscape:window-x="0"
     inkscape:window-y="25"
     inkscape:window-maximized="0"
     inkscape:current-layer="svg8" /><path
     d="M 23,0 H 5 C 2.243,0 0,2.243 0,5 v 18 c 0,2.757 2.243,5 5,5 h 18 c 2.757,0 5,-2.243 5,-5 V 5 C 28,2.243 25.757,0 23,0 Z m -9,20 c -1.017,0 -1.981,-0.19 -2.853,-0.524 L 8,20 8.402,17.591 C 7.525,16.589 7,15.349 7,14 c 0,-3.314 3.134,-6 7,-6 3.866,0 7,2.686 7,6 0,3.314 -3.134,6 -7,6 z M 57,34 H 39 c -2.757,0 -5,2.243 -5,5 v 18 c 0,2.757 2.243,5 5,5 h 18 c 2.757,0 5,-2.243 5,-5 V 39 c 0,-2.757 -2.243,-5 -5,-5 z m -3.624,14.416 -7.599,5.066 C 45.445,53.703 45,53.465 45,53.066 V 42.934 c 0,-0.399 0.445,-0.638 0.777,-0.416 l 7.599,5.066 c 0.297,0.198 0.297,0.634 0,0.832 z M 23,34 H 5 c -2.757,0 -5,2.243 -5,5 v 18 c 0,2.757 2.243,5 5,5 h 18 c 2.757,0 5,-2.243 5,-5 V 39 c 0,-2.757 -2.243,-5 -5,-5 z m -3,18 c 0,1.105 -0.895,2 -2,2 H 10 C 8.895,54 8,53.105 8,52 v -6 h 12 z m 0,-7 H 8 v -1 c 0,-1.105 0.895,-2 2,-2 h 8 c 1.105,0 2,0.895 2,2 z M 57,0 H 39 c -2.757,0 -5,2.243 -5,5 v 18 c 0,2.757 2.243,5 5,5 h 18 c 2.757,0 5,-2.243 5,-5 V 5 C 62,2.243 59.757,0 57,0 Z m -2,18.5 c 0,0.276 -0.224,0.5 -0.5,0.5 h -13 C 41.224,19 41,18.776 41,18.5 v -6.517 l 7,3.063 7,-3.063 z m 0,-7.608 -7,3.062 -7,-3.062 V 9.5 C 41,9.224 41.224,9 41.5,9 h 13 C 54.776,9 55,9.224 55,9.5 Z"
     id="path2"
     inkscape:connector-curvature="0" /></svg>