<?xml version="1.0" encoding="UTF-8" standalone="no"?>
<svg
   xmlns:dc="http://purl.org/dc/elements/1.1/"
   xmlns:cc="http://creativecommons.org/ns#"
   xmlns:rdf="http://www.w3.org/1999/02/22-rdf-syntax-ns#"
   xmlns:svg="http://www.w3.org/2000/svg"
   xmlns="http://www.w3.org/2000/svg"
   xmlns:sodipodi="http://sodipodi.sourceforge.net/DTD/sodipodi-0.dtd"
   xmlns:inkscape="http://www.inkscape.org/namespaces/inkscape"
   viewBox="0 0 56 75"
   version="1.1"
   x="0px"
   y="0px"
   id="svg107"
   sodipodi:docname="utility.svg"
   inkscape:version="0.92.4 (unknown)">
  <metadata
     id="metadata113">
    <rdf:RDF>
      <cc:Work
         rdf:about="">
        <dc:format>image/svg+xml</dc:format>
        <dc:type
           rdf:resource="http://purl.org/dc/dcmitype/StillImage" />
      </cc:Work>
    </rdf:RDF>
  </metadata>
  <defs
     id="defs111" />
  <sodipodi:namedview
     pagecolor="#ffffff"
     bordercolor="#666666"
     borderopacity="1"
     objecttolerance="10"
     gridtolerance="10"
     guidetolerance="10"
     inkscape:pageopacity="0"
     inkscape:pageshadow="2"
     inkscape:window-width="1920"
     inkscape:window-height="1029"
     id="namedview109"
     showgrid="false"
     inkscape:zoom="11.386667"
     inkscape:cx="28"
     inkscape:cy="23.448478"
     inkscape:window-x="0"
     inkscape:window-y="25"
     inkscape:window-maximized="1"
     inkscape:current-layer="svg107" />
  <title
     id="title85">19 -House Utilities- (house, home, property, real, estate)</title>
  <desc
     id="desc87">Created with Sketch.</desc>
  <g
     stroke="none"
     stroke-width="1"
     fill="none"
     fill-rule="evenodd"
     id="g101">
    <g
       transform="translate(-1065.000000, -482.000000)"
       fill="#000000"
       id="g99">
      <g
         transform="translate(1064.000000, 482.000000)"
         id="g97">
        <path
           d="M36,34.8701 C36,39.7341 31.613,44.0001 26.612,44.0001 L19,44.0001 L19,49.0001 L26.612,49.0001 C34.546,49.0001 41,42.6621 41,34.8701 L41,29.0001 L36,29.0001 L36,34.8701 Z"
           id="path89" />
        <polygon
           points="34 27.0005 35 27.0005 42 27.0005 43 27.0005 43 25.0005 34 25.0005"
           id="polygon91" />
        <polygon
           points="17 42.0005 15 42.0005 15 51.0005 17 51.0005 17 50.0005 17 43.0005"
           id="polygon93" />
        <path
           d="M45,28.0005 C45,28.5525 44.553,29.0005 44,29.0005 L43,29.0005 L43,34.8705 C43,43.7645 35.648,51.0005 26.612,51.0005 L19,51.0005 L19,52.0005 C19,52.5525 18.553,53.0005 18,53.0005 L14,53.0005 C13.447,53.0005 13,52.5525 13,52.0005 L13,41.0005 C13,40.4485 13.447,40.0005 14,40.0005 L18,40.0005 C18.553,40.0005 19,40.4485 19,41.0005 L19,42.0005 L26.612,42.0005 C30.479,42.0005 34,38.6025 34,34.8705 L34,29.0005 L33,29.0005 C32.447,29.0005 32,28.5525 32,28.0005 L32,24.0005 C32,23.4485 32.447,23.0005 33,23.0005 L44,23.0005 C44.553,23.0005 45,23.4485 45,24.0005 L45,28.0005 Z M56.253,22.1275 L33.278,1.7485 C30.868,-0.5725 27.095,-0.5715 24.71,1.7285 L17,8.7395 L17,6.0005 L18,6.0005 C18.553,6.0005 19,5.5525 19,5.0005 L19,1.0005 C19,0.4485 18.553,0.0005 18,0.0005 L6,0.0005 C5.447,0.0005 5,0.4485 5,1.0005 L5,5.0005 C5,5.5525 5.447,6.0005 6,6.0005 L7,6.0005 L7,17.5435 L1.745,22.1015 C1.045,22.7215 0.808,23.6875 1.14,24.5615 C1.472,25.4355 2.29,26.0005 3.225,26.0005 L7,26.0005 L7,54.0005 L6,54.0005 C5.447,54.0005 5,54.4485 5,55.0005 L5,59.0005 C5,59.5525 5.447,60.0005 6,60.0005 L51.992,60.0005 C52.544,60.0005 52.991,59.5545 52.992,59.0025 L53,55.0025 C53.001,54.7365 52.896,54.4815 52.708,54.2935 C52.521,54.1055 52.266,54.0005 52,54.0005 L51,54.0005 L51,26.0005 L54.782,26.0005 C55.711,26.0005 56.523,25.4395 56.854,24.5715 C57.183,23.7045 56.947,22.7445 56.253,22.1275 L56.253,22.1275 Z"
           id="path95" />
      </g>
    </g>
  </g>
</svg>
