<?xml version="1.0" encoding="UTF-8" standalone="no"?>
<svg
   xmlns:dc="http://purl.org/dc/elements/1.1/"
   xmlns:cc="http://creativecommons.org/ns#"
   xmlns:rdf="http://www.w3.org/1999/02/22-rdf-syntax-ns#"
   xmlns:svg="http://www.w3.org/2000/svg"
   xmlns="http://www.w3.org/2000/svg"
   xmlns:sodipodi="http://sodipodi.sourceforge.net/DTD/sodipodi-0.dtd"
   xmlns:inkscape="http://www.inkscape.org/namespaces/inkscape"
   version="1.1"
   x="0px"
   y="0px"
   viewBox="0 0 58 58.000999"
   xml:space="preserve"
   id="svg16"
   sodipodi:docname="code.svg"
   width="58"
   height="58.000999"
   inkscape:version="0.92.4 (unknown)"><metadata
     id="metadata22"><rdf:RDF><cc:Work
         rdf:about=""><dc:format>image/svg+xml</dc:format><dc:type
           rdf:resource="http://purl.org/dc/dcmitype/StillImage" /><dc:title></dc:title></cc:Work></rdf:RDF></metadata><defs
     id="defs20" /><sodipodi:namedview
     pagecolor="#ffffff"
     bordercolor="#666666"
     borderopacity="1"
     objecttolerance="10"
     gridtolerance="10"
     guidetolerance="10"
     inkscape:pageopacity="0"
     inkscape:pageshadow="2"
     inkscape:window-width="640"
     inkscape:window-height="480"
     id="namedview18"
     showgrid="false"
     fit-margin-top="0"
     fit-margin-left="0"
     fit-margin-right="0"
     fit-margin-bottom="0"
     inkscape:zoom="2.95"
     inkscape:cx="29"
     inkscape:cy="21.008"
     inkscape:window-x="0"
     inkscape:window-y="25"
     inkscape:window-maximized="0"
     inkscape:current-layer="svg16" /><g
     id="g10"
     transform="translate(-3,-3.007)"><path
       d="M 41.711,46.662 C 41.469,45.654 41.069,44.691 40.524,43.8 l -0.316,-0.517 1.14,-1.898 -1.725,-1.725 -1.898,1.14 -0.517,-0.316 c -0.89,-0.544 -1.853,-0.943 -2.863,-1.188 l -0.589,-0.142 -0.537,-2.146 h -2.438 l -0.537,2.146 -0.589,0.142 c -1.011,0.244 -1.974,0.644 -2.863,1.188 l -0.517,0.316 -1.898,-1.14 -1.725,1.725 1.14,1.898 -0.316,0.517 c -0.545,0.892 -0.944,1.854 -1.187,2.862 L 22.146,47.252 20,47.789 v 2.438 l 2.146,0.537 0.143,0.59 c 0.242,1.008 0.642,1.971 1.187,2.862 l 0.316,0.517 -1.14,1.898 1.725,1.725 1.898,-1.14 0.517,0.316 c 0.892,0.545 1.854,0.944 2.862,1.187 l 0.59,0.143 0.537,2.146 h 2.438 l 0.537,-2.146 0.59,-0.143 c 1.008,-0.242 1.971,-0.642 2.862,-1.187 l 0.517,-0.316 1.898,1.14 1.725,-1.725 -1.14,-1.898 0.316,-0.517 c 0.545,-0.892 0.944,-1.854 1.187,-2.862 L 41.854,50.764 44,50.226 V 47.788 L 41.854,47.251 Z M 32,57.007 c -4.411,0 -8,-3.589 -8,-8 0,-1.329 0.333,-2.646 0.963,-3.807 l 1.758,0.953 C 26.249,47.023 26,48.01 26,49.007 c 0,3.309 2.691,6 6,6 0.997,0 1.984,-0.249 2.854,-0.721 l 0.953,1.758 c -1.161,0.63 -2.478,0.963 -3.807,0.963 z m 0,-4 c -2.206,0 -4,-1.794 -4,-4 0,-2.206 1.794,-4 4,-4 2.206,0 4,1.794 4,4 0,2.206 -1.794,4 -4,4 z m 7.037,-0.193 -1.758,-0.953 C 37.751,50.992 38,50.004 38,49.007 c 0,-3.309 -2.691,-6 -6,-6 -0.997,0 -1.984,0.249 -2.854,0.721 L 28.193,41.97 c 1.161,-0.63 2.478,-0.963 3.807,-0.963 4.411,0 8,3.589 8,8 0,1.329 -0.333,2.646 -0.963,3.807 z"
       id="path2"
       inkscape:connector-curvature="0" /><path
       d="m 3,48.007 h 15 v -1.781 l 2.503,-0.625 c 0.237,-0.802 0.559,-1.576 0.96,-2.313 l -1.328,-2.214 3.932,-3.932 2.214,1.328 c 0.736,-0.4 1.511,-0.722 2.313,-0.959 l 0.625,-2.504 h 5.562 l 0.625,2.504 c 0.803,0.237 1.577,0.559 2.313,0.959 l 2.214,-1.328 3.932,3.932 -1.328,2.214 c 0.401,0.737 0.723,1.512 0.96,2.313 L 46,46.226 v 1.781 h 15 v -37 H 3 Z m 26,-15 H 16 v -2 h 13 z m -13,-4 v -2 h 32 v 2 z m 0,-4 v -2 h 13 v 2 z m 19,0 v -2 h 13 v 2 z m 0,8 v -2 h 13 v 2 z m 13,-20 c 3.309,0 6,2.691 6,6 v 5.172 c 0,1.534 0.622,3.036 1.707,4.121 l 0.707,0.707 -0.707,0.707 C 54.622,30.799 54,32.301 54,33.835 v 5.172 c 0,3.309 -2.691,6 -6,6 v -2 c 2.206,0 4,-1.794 4,-4 V 33.835 C 52,32.09 52.6,30.376 53.668,29.007 52.6,27.638 52,25.924 52,24.179 v -5.172 c 0,-2.206 -1.794,-4 -4,-4 z m 0,8 H 16 v -2 H 48 Z M 8.293,28.3 C 9.378,27.215 10,25.713 10,24.179 v -5.172 c 0,-3.309 2.691,-6 6,-6 v 2 c -2.206,0 -4,1.794 -4,4 v 5.172 c 0,1.745 -0.6,3.459 -1.668,4.828 C 11.4,30.376 12,32.09 12,33.835 v 5.172 c 0,2.206 1.794,4 4,4 v 2 c -3.309,0 -6,-2.691 -6,-6 V 33.835 C 10,32.301 9.378,30.799 8.293,29.714 L 7.586,29.007 Z"
       id="path4"
       inkscape:connector-curvature="0" /><circle
       cx="32"
       cy="49.007"
       r="2"
       id="circle6" /><path
       d="M 60,3.007 H 4 c -0.552,0 -1,0.448 -1,1 v 5 h 58 v -5 c 0,-0.551 -0.448,-1 -1,-1 z m -53,4 H 5 v -2 h 2 z m 4,0 H 9 v -2 h 2 z m 4,0 h -2 v -2 h 2 z"
       id="path8"
       inkscape:connector-curvature="0" /></g></svg>