<?xml version="1.0" encoding="UTF-8" standalone="no"?>
<svg
   xmlns:dc="http://purl.org/dc/elements/1.1/"
   xmlns:cc="http://creativecommons.org/ns#"
   xmlns:rdf="http://www.w3.org/1999/02/22-rdf-syntax-ns#"
   xmlns:svg="http://www.w3.org/2000/svg"
   xmlns="http://www.w3.org/2000/svg"
   xmlns:sodipodi="http://sodipodi.sourceforge.net/DTD/sodipodi-0.dtd"
   xmlns:inkscape="http://www.inkscape.org/namespaces/inkscape"
   version="1.1"
   x="0px"
   y="0px"
   viewBox="0 0 58 58"
   xml:space="preserve"
   id="svg22"
   sodipodi:docname="system.svg"
   width="58"
   height="58"
   inkscape:version="0.92.4 (unknown)"><metadata
     id="metadata28"><rdf:RDF><cc:Work
         rdf:about=""><dc:format>image/svg+xml</dc:format><dc:type
           rdf:resource="http://purl.org/dc/dcmitype/StillImage" /><dc:title></dc:title></cc:Work></rdf:RDF></metadata><defs
     id="defs26" /><sodipodi:namedview
     pagecolor="#ffffff"
     bordercolor="#666666"
     borderopacity="1"
     objecttolerance="10"
     gridtolerance="10"
     guidetolerance="10"
     inkscape:pageopacity="0"
     inkscape:pageshadow="2"
     inkscape:window-width="640"
     inkscape:window-height="480"
     id="namedview24"
     showgrid="false"
     fit-margin-top="0"
     fit-margin-left="0"
     fit-margin-right="0"
     fit-margin-bottom="0"
     inkscape:zoom="2.95"
     inkscape:cx="16.20578"
     inkscape:cy="21.007"
     inkscape:window-x="0"
     inkscape:window-y="25"
     inkscape:window-maximized="0"
     inkscape:current-layer="svg22" /><g
     id="g16"
     transform="translate(-3,-3.007)"><path
       d="m 7,21.007 v 22 h 16 v -7.94 l -1.765,1.046 -5.341,-5.341 1.961,-3.31 C 17.399,26.597 17.021,25.684 16.729,24.738 L 13,23.784 V 21.008 H 7 Z m 2,2 h 2 v 2 H 9 Z m 0,4 h 4 v 2 H 9 Z m 0,4 h 4 v 2 H 9 Z m 12,10 H 9 v -2 h 12 z m -4,-6 v 2 H 9 v -2 z"
       id="path2"
       inkscape:connector-curvature="0" /><path
       d="m 18.497,23.651 c 0.316,1.175 0.779,2.295 1.376,3.331 l 0.292,0.506 -1.759,2.968 3.146,3.146 2.968,-1.759 0.506,0.292 c 1.036,0.597 2.156,1.06 3.331,1.376 l 0.563,0.152 0.856,3.345 h 4.447 l 0.856,-3.345 0.563,-0.152 c 1.175,-0.316 2.295,-0.779 3.331,-1.376 l 0.506,-0.292 2.968,1.759 3.146,-3.146 -1.759,-2.968 0.292,-0.506 c 0.597,-1.036 1.06,-2.156 1.376,-3.331 L 45.654,23.088 49,22.231 V 17.784 L 45.655,16.928 45.503,16.365 C 45.187,15.19 44.724,14.07 44.127,13.034 L 43.835,12.528 45.594,9.56 42.448,6.414 39.48,8.172 38.975,7.88 C 37.939,7.283 36.819,6.82 35.644,6.504 L 35.08,6.352 34.224,3.007 H 29.777 L 28.92,6.352 28.357,6.504 C 27.182,6.82 26.062,7.283 25.026,7.88 l -0.506,0.292 -2.968,-1.759 -3.146,3.146 1.759,2.968 -0.292,0.506 c -0.597,1.036 -1.06,2.156 -1.376,3.331 L 18.345,16.927 15,17.784 v 4.447 l 3.345,0.856 z M 32,8.007 c 6.617,0 12,5.383 12,12 0,6.617 -5.383,12 -12,12 -6.617,0 -12,-5.383 -12,-12 0,-6.617 5.383,-12 12,-12 z"
       id="path4"
       inkscape:connector-curvature="0" /><path
       d="m 32,26.007 c 3.309,0 6,-2.691 6,-6 0,-3.309 -2.691,-6 -6,-6 -3.309,0 -6,2.691 -6,6 0,3.309 2.691,6 6,6 z m 1,-7 h 2 v 2 h -2 z m -4,0 h 2 v 2 h -2 z"
       id="path6"
       inkscape:connector-curvature="0" /><polygon
       points="21,59.007 17,59.007 17,61.007 47,61.007 47,59.007 43,59.007 43,57.007 21,57.007 "
       id="polygon8" /><path
       d="m 32,30.007 c 5.514,0 10,-4.486 10,-10 0,-5.514 -4.486,-10 -10,-10 -5.514,0 -10,4.486 -10,10 0,5.514 4.486,10 10,10 z m 0,-18 c 4.411,0 8,3.589 8,8 0,4.411 -3.589,8 -8,8 -4.411,0 -8,-3.589 -8,-8 0,-4.411 3.589,-8 8,-8 z"
       id="path10"
       inkscape:connector-curvature="0" /><path
       d="m 58,17.007 h -7 v 6.776 l -3.729,0.955 c -0.292,0.945 -0.67,1.858 -1.126,2.724 l 1.961,3.31 -5.341,5.341 -3.31,-1.961 c -0.865,0.456 -1.778,0.834 -2.724,1.126 l -0.955,3.729 H 28.223 L 27.268,35.278 C 26.484,35.036 25.73,34.721 24.999,34.365 V 45.007 H 5 v -26 h 8 v -2 H 6 c -1.654,0 -3,1.346 -3,3 v 27 h 58 v -27 c 0,-1.654 -1.346,-3 -3,-3 z m 1,28 H 45 v -2 h 14 z m 0,-4 H 45 v -2 h 14 z m 0,-4 H 47 v -2 h 12 z m 0,-4 h -8 v -2 h 8 z"
       id="path12"
       inkscape:connector-curvature="0" /><path
       d="m 3,52.007 c 0,1.654 1.346,3 3,3 h 52 c 1.654,0 3,-1.346 3,-3 v -3 H 3 Z m 54,-1 h 2 v 2 h -2 z m -4,0 h 2 v 2 h -2 z m -4,0 h 2 v 2 h -2 z"
       id="path14"
       inkscape:connector-curvature="0" /></g></svg>