<?xml version="1.0" encoding="UTF-8" standalone="no"?>
<svg
   xmlns:dc="http://purl.org/dc/elements/1.1/"
   xmlns:cc="http://creativecommons.org/ns#"
   xmlns:rdf="http://www.w3.org/1999/02/22-rdf-syntax-ns#"
   xmlns:svg="http://www.w3.org/2000/svg"
   xmlns="http://www.w3.org/2000/svg"
   xmlns:sodipodi="http://sodipodi.sourceforge.net/DTD/sodipodi-0.dtd"
   xmlns:inkscape="http://www.inkscape.org/namespaces/inkscape"
   viewBox="0 0 20.6863 20.727301"
   x="0px"
   y="0px"
   version="1.1"
   id="svg8"
   sodipodi:docname="search.svg"
   width="20.6863"
   height="20.727301"
   style="fill:none"
   inkscape:version="0.92.4 (unknown)">
  <metadata
     id="metadata14">
    <rdf:RDF>
      <cc:Work
         rdf:about="">
        <dc:format>image/svg+xml</dc:format>
        <dc:type
           rdf:resource="http://purl.org/dc/dcmitype/StillImage" />
        <dc:title></dc:title>
      </cc:Work>
    </rdf:RDF>
  </metadata>
  <defs
     id="defs12" />
  <sodipodi:namedview
     pagecolor="#ffffff"
     bordercolor="#666666"
     borderopacity="1"
     objecttolerance="10"
     gridtolerance="10"
     guidetolerance="10"
     inkscape:pageopacity="0"
     inkscape:pageshadow="2"
     inkscape:window-width="1116"
     inkscape:window-height="699"
     id="namedview10"
     showgrid="false"
     fit-margin-top="0"
     fit-margin-left="0"
     fit-margin-right="0"
     fit-margin-bottom="0"
     inkscape:zoom="7.8666667"
     inkscape:cx="10"
     inkscape:cy="7.7273"
     inkscape:window-x="100"
     inkscape:window-y="58"
     inkscape:window-maximized="0"
     inkscape:current-layer="svg8" />
  <path
     d="M 8.9999998,2 C 5.13401,2 2.0000001,5.13401 2.0000001,9 c 0,3.866 3.1340099,7 6.9999997,7 C 10.8646,16 12.557,15.2723 13.8124,14.0834 15.1609,12.8063 16,11.002 16,9 16,5.13401 12.866,2 8.9999998,2 Z M 0,9 C 0,4.02944 4.02944,0 8.9999998,0 13.9706,0 18,4.02944 18,9 c 0,2.1936 -0.7857,4.2048 -2.0893,5.7658 l 4.7756,4.5069 -1.3726,1.4546 -4.8488,-4.5759 C 12.9501,17.3104 11.0548,18 8.9999998,18 4.02944,18 0,13.9706 0,9 Z"
     id="path2"
     inkscape:connector-curvature="0"
     style="clip-rule:evenodd;fill:#000000;fill-rule:evenodd" />
</svg>
