<?xml version="1.0" encoding="UTF-8" standalone="no"?>
<svg
   xmlns:dc="http://purl.org/dc/elements/1.1/"
   xmlns:cc="http://creativecommons.org/ns#"
   xmlns:rdf="http://www.w3.org/1999/02/22-rdf-syntax-ns#"
   xmlns:svg="http://www.w3.org/2000/svg"
   xmlns="http://www.w3.org/2000/svg"
   height="780.11694"
   width="863.9895"
   id="svg4"
   version="1.1">
  <metadata
     id="metadata10">
    <rdf:RDF>
      <cc:Work
         rdf:about="">
        <dc:format>image/svg+xml</dc:format>
        <dc:type
           rdf:resource="http://purl.org/dc/dcmitype/StillImage" />
        <dc:title></dc:title>
      </cc:Work>
    </rdf:RDF>
  </metadata>
  <defs
     id="defs8" />
  <path
     id="path2"
     d="m 808.30626,571.2 c -42.5,-24.6 -94.3,-18 -129.2,12.8 l -53,-30.7 V 401.6 c 0,-15.7 -8.4,-30.3 -22,-38.1 l -136,-78.3 v -67.1 c 44.2,-15 76,-56.8 76,-106.1 0,-61.9 -50.1,-112 -112,-112 -61.9,0 -112,50.1 -112,112 0,49.3 31.8,91.1 76,106.1 v 67.1 l -136,78.3 c -13.6,7.8 -22,22.4 -22,38.1 v 151.6 l -53,30.7 c -34.9,-30.8 -86.800001,-37.4 -129.200001,-12.8 -53.4999999,31 -71.7,99.4 -41,152.9 30.8,53.5 98.900001,71.9 152.200001,41 42.5,-24.6 62.7,-73 53.6,-118.8 l 48.7,-28.3 140.6,81 c 6.8,3.9 14.4,5.9 22,5.9 7.6,0 15.2,-2 22,-5.9 l 140.5,-80.9 48.7,28.3 c -9.1,45.7 11.2,94.2 53.6,118.8 53.3,30.9 121.5,12.6 152.2,-41 30.8,-53.6 12.6,-122 -40.7,-152.9 z m -673,138.4 A 47.6,47.6 0 0 1 70.106259,692 c -13.2,-22.9 -5.4,-52.3 17.5,-65.5 a 47.6,47.6 0 0 1 65.200001,17.6 c 13.2,22.9 5.4,52.3 -17.5,65.5 z m 306.7,-367.8 z m -58,-229.8 a 48.01,48.01 0 0 1 96,0 48.01,48.01 0 0 1 -96,0 z m 170,446.2 -122,70.3 -122,-70.3 V 417.8 l 122,-70.3 122,70.3 z m 239.9,133.9 c -13.2,22.9 -42.4,30.8 -65.2,17.6 -22.8,-13.2 -30.7,-42.6 -17.5,-65.5 13.2,-22.9 42.4,-30.8 65.2,-17.6 22.9,13.2 30.7,42.5 17.5,65.5 z" />
</svg>
