<svg xmlns="http://www.w3.org/2000/svg" viewBox="0 0 32 40" x="0px" y="0px"><title>interconnected connected networks0</title><g data-name="22"><rect x="18" y="17" width="12" height="9" rx="1" ry="1"/><rect x="19" y="27" width="10" height="4" rx="1" ry="1"/><rect x="2" y="2" width="12" height="9" rx="1" ry="1"/><rect x="3" y="12" width="10" height="4" rx="1" ry="1"/><path d="M21,11a1,1,0,0,0-.94.65L16.71,8.29a1,1,0,0,0-1.41,1.41L18.59,13H18a1,1,0,0,0,0,2h3a1,1,0,0,0,.38-.08h0a1,1,0,0,0,.27-.18l.07-.08a1,1,0,0,0,.14-.21l0-.1A1,1,0,0,0,22,14V12A1,1,0,0,0,21,11Z"/><path d="M16.71,22.29,13.41,19H14a1,1,0,0,0,0-2H11a1,1,0,0,0-.35.07h0a1,1,0,0,0-.27.18l-.07.08a1,1,0,0,0-.14.21l0,.1A1,1,0,0,0,10,18v2a1,1,0,0,0,1.94.35l3.36,3.36a1,1,0,0,0,1.41-1.41Z"/></g><text x="0" y="47" fill="#000000" font-size="5px" font-weight="bold" font-family="'Helvetica Neue', Helvetica, Arial-Unicode, Arial, Sans-serif">Created by tedi rohmansyah</text><text x="0" y="52" fill="#000000" font-size="5px" font-weight="bold" font-family="'Helvetica Neue', Helvetica, Arial-Unicode, Arial, Sans-serif">from the Noun Project</text></svg>