<?xml version="1.0" encoding="UTF-8" standalone="no"?>
<svg
   xmlns:dc="http://purl.org/dc/elements/1.1/"
   xmlns:cc="http://creativecommons.org/ns#"
   xmlns:rdf="http://www.w3.org/1999/02/22-rdf-syntax-ns#"
   xmlns:svg="http://www.w3.org/2000/svg"
   xmlns="http://www.w3.org/2000/svg"
   xmlns:sodipodi="http://sodipodi.sourceforge.net/DTD/sodipodi-0.dtd"
   xmlns:inkscape="http://www.inkscape.org/namespaces/inkscape"
   version="1.1"
   x="0px"
   y="0px"
   viewBox="0 0 984.79297 700"
   enable-background="new 0 0 1000 720"
   xml:space="preserve"
   id="svg8"
   sodipodi:docname="laptop.svg"
   width="984.79297"
   height="700"
   inkscape:version="0.92.4 (unknown)"><metadata
     id="metadata14"><rdf:RDF><cc:Work
         rdf:about=""><dc:format>image/svg+xml</dc:format><dc:type
           rdf:resource="http://purl.org/dc/dcmitype/StillImage" /><dc:title></dc:title></cc:Work></rdf:RDF></metadata><defs
     id="defs12" /><sodipodi:namedview
     pagecolor="#ffffff"
     bordercolor="#666666"
     borderopacity="1"
     objecttolerance="10"
     gridtolerance="10"
     guidetolerance="10"
     inkscape:pageopacity="0"
     inkscape:pageshadow="2"
     inkscape:window-width="1454"
     inkscape:window-height="648"
     id="namedview10"
     showgrid="false"
     fit-margin-top="0"
     fit-margin-left="0"
     fit-margin-right="0"
     fit-margin-bottom="0"
     inkscape:zoom="0.53412242"
     inkscape:cx="814.64198"
     inkscape:cy="22.811418"
     inkscape:window-x="0"
     inkscape:window-y="25"
     inkscape:window-maximized="0"
     inkscape:current-layer="svg8" /><path
     d="M 110.63086,0 C 85.650859,0 65.33789,20.785609 65.33789,46.349609 V 589.88672 c 0,8.6 6.771547,15.41211 15.060547,15.41211 H 906.17773 c 8.29,0 15.0625,-6.81211 15.0625,-15.41211 V 46.349609 C 921.24023,20.786609 900.92726,0 875.94726,0 Z m 0,30.820312 h 765.3164 c 8.404,0 15.17578,6.929297 15.17578,15.529297 V 574.47852 H 95.457034 V 46.349609 c 0,-8.6 6.769826,-15.529297 15.173826,-15.529297 z m 19.82031,19.132813 c -4.958,0 -9.08789,4.343734 -9.08789,9.677734 V 540.79492 c 0,5.211 4.13089,9.56641 9.08789,9.56641 h 725.26562 c 4.959,0 9.10352,-4.35541 9.10352,-9.56641 V 59.630859 c -0.014,-5.334 -4.14452,-9.677734 -9.10352,-9.677734 z M 0.011719,629.99805 C 0.011719,630.13005 0,630.27588 0,630.42188 2e-7,668.84987 17.18075,700 38.34375,700 H 946.4707 c 21.166,0 38.32226,-31.15013 38.32226,-69.57812 v -0.42383 z M 362.77539,648.6582 h 259.23242 c 7.861,0 14.24609,7.31518 14.24609,16.32618 0,9.024 -6.37533,16.31835 -14.23633,16.31835 H 362.77539 c -7.876,0 -14.25977,-7.30535 -14.25977,-16.31835 0,-9.011 6.38377,-16.32618 14.25977,-16.32618 z"
     style="fill:#000000;stroke:none"
     id="path2"
     inkscape:connector-curvature="0" /></svg>