<?xml version="1.0" encoding="UTF-8" standalone="no"?>
<svg
   xmlns:dc="http://purl.org/dc/elements/1.1/"
   xmlns:cc="http://creativecommons.org/ns#"
   xmlns:rdf="http://www.w3.org/1999/02/22-rdf-syntax-ns#"
   xmlns:svg="http://www.w3.org/2000/svg"
   xmlns="http://www.w3.org/2000/svg"
   xmlns:sodipodi="http://sodipodi.sourceforge.net/DTD/sodipodi-0.dtd"
   xmlns:inkscape="http://www.inkscape.org/namespaces/inkscape"
   version="1.1"
   x="0px"
   y="0px"
   viewBox="0 0 64.938004 63.689999"
   enable-background="new 0 0 65 65"
   xml:space="preserve"
   id="svg12"
   sodipodi:docname="chat.svg"
   width="64.938004"
   height="63.689999"
   inkscape:version="0.92.4 (unknown)"><metadata
     id="metadata18"><rdf:RDF><cc:Work
         rdf:about=""><dc:format>image/svg+xml</dc:format><dc:type
           rdf:resource="http://purl.org/dc/dcmitype/StillImage" /><dc:title></dc:title></cc:Work></rdf:RDF></metadata><defs
     id="defs16" /><sodipodi:namedview
     pagecolor="#ffffff"
     bordercolor="#666666"
     borderopacity="1"
     objecttolerance="10"
     gridtolerance="10"
     guidetolerance="10"
     inkscape:pageopacity="0"
     inkscape:pageshadow="2"
     inkscape:window-width="640"
     inkscape:window-height="480"
     id="namedview14"
     showgrid="false"
     fit-margin-top="0"
     fit-margin-left="0"
     fit-margin-right="0"
     fit-margin-bottom="0"
     inkscape:zoom="2.9046154"
     inkscape:cx="32.469"
     inkscape:cy="23.719"
     inkscape:window-x="51"
     inkscape:window-y="27"
     inkscape:window-maximized="0"
     inkscape:current-layer="svg12" /><path
     d="M 33.67,0 H 7.955 C 3.569,0 0,3.569 0,7.955 c 0,3.689 2.528,6.791 5.94,7.687 l -2.079,5.992 c -0.049,0.142 -0.069,0.286 -0.075,0.428 -10e-4,0.024 -0.002,0.047 -0.002,0.071 0.001,0.17 0.031,0.336 0.088,0.494 0.008,0.023 0.016,0.045 0.025,0.068 0.067,0.163 0.163,0.312 0.283,0.442 0.008,0.009 0.011,0.021 0.02,0.031 0.011,0.012 0.025,0.02 0.036,0.03 0.04,0.039 0.083,0.073 0.127,0.107 0.038,0.029 0.074,0.059 0.113,0.083 0.04,0.025 0.082,0.046 0.125,0.067 0.049,0.025 0.098,0.05 0.149,0.069 0.013,0.005 0.023,0.013 0.037,0.017 0.015,0.005 0.03,0.003 0.044,0.008 0.144,0.044 0.291,0.074 0.44,0.075 0.002,0 0.004,0.001 0.007,0.001 0.176,0 0.345,-0.038 0.507,-0.097 0.049,-0.018 0.092,-0.046 0.139,-0.068 0.115,-0.056 0.222,-0.123 0.32,-0.207 0.024,-0.021 0.055,-0.028 0.078,-0.05 l 7.541,-7.293 h 19.808 c 4.387,0 7.955,-3.569 7.955,-7.955 C 41.626,3.569 38.057,0 33.67,0 Z M 22.094,11.596 H 9.267 c -0.829,0 -1.5,-0.671 -1.5,-1.5 0,-0.829 0.671,-1.5 1.5,-1.5 h 12.827 c 0.829,0 1.5,0.671 1.5,1.5 0,0.829 -0.671,1.5 -1.5,1.5 z m 5.625,-4.5 H 9.267 c -0.829,0 -1.5,-0.671 -1.5,-1.5 0,-0.829 0.671,-1.5 1.5,-1.5 h 18.452 c 0.829,0 1.5,0.671 1.5,1.5 0,0.829 -0.671,1.5 -1.5,1.5 z"
     id="path2"
     inkscape:connector-curvature="0" /><path
     d="m 64.938,26.623 c 0,-5.043 -4.103,-9.146 -9.145,-9.146 h -30.46 c -5.043,0 -9.146,4.103 -9.146,9.146 0,5.043 4.103,9.146 9.146,9.146 h 23.574 l 9.011,8.715 c 0.023,0.022 0.055,0.03 0.079,0.051 0.096,0.082 0.2,0.148 0.313,0.203 0.05,0.024 0.095,0.054 0.146,0.072 0.161,0.058 0.33,0.096 0.505,0.096 0.151,0 0.302,-0.03 0.447,-0.075 0.015,-0.005 0.029,-0.003 0.044,-0.008 0.013,-0.005 0.023,-0.013 0.037,-0.017 0.051,-0.02 0.1,-0.045 0.149,-0.07 0.042,-0.021 0.084,-0.041 0.124,-0.066 0.039,-0.025 0.076,-0.055 0.113,-0.084 0.044,-0.033 0.087,-0.067 0.126,-0.105 0.012,-0.012 0.025,-0.02 0.037,-0.031 0.009,-0.01 0.012,-0.021 0.021,-0.031 0.12,-0.131 0.215,-0.279 0.282,-0.441 0.01,-0.023 0.018,-0.046 0.025,-0.069 0.057,-0.157 0.087,-0.322 0.088,-0.492 0,-0.025 -10e-4,-0.048 -0.003,-0.073 -0.006,-0.143 -0.025,-0.285 -0.074,-0.427 l -2.559,-7.38 c 4.07,-0.926 7.12,-4.567 7.12,-8.914 z m -14.219,3.598 h -18.25 c -0.829,0 -1.5,-0.671 -1.5,-1.5 0,-0.829 0.671,-1.5 1.5,-1.5 h 18.25 c 0.828,0 1.5,0.671 1.5,1.5 0,0.829 -0.672,1.5 -1.5,1.5 z m 5.074,-4.375 H 29.719 c -0.829,0 -1.5,-0.671 -1.5,-1.5 0,-0.829 0.671,-1.5 1.5,-1.5 h 26.074 c 0.828,0 1.5,0.671 1.5,1.5 0,0.829 -0.672,1.5 -1.5,1.5 z"
     id="path4"
     inkscape:connector-curvature="0" /><path
     d="M 36.69,38.131 H 8.561 C 3.84,38.131 0,41.971 0,46.692 0,50.715 2.793,54.09 6.541,55.003 L 4.217,61.701 C 4.168,61.843 4.149,61.986 4.142,62.129 4.141,62.153 4.14,62.176 4.14,62.2 c 0.001,0.171 0.031,0.336 0.088,0.494 0.008,0.023 0.016,0.045 0.025,0.068 0.067,0.162 0.163,0.311 0.283,0.441 0.008,0.01 0.011,0.022 0.02,0.031 0.011,0.012 0.024,0.02 0.036,0.03 0.04,0.039 0.084,0.074 0.129,0.108 0.037,0.028 0.072,0.057 0.11,0.081 0.041,0.026 0.084,0.048 0.128,0.069 0.048,0.024 0.095,0.049 0.145,0.067 0.013,0.005 0.025,0.013 0.038,0.018 0.015,0.005 0.03,0.003 0.045,0.008 0.146,0.045 0.295,0.075 0.446,0.075 0.175,0 0.344,-0.038 0.505,-0.096 0.051,-0.019 0.095,-0.048 0.144,-0.071 0.114,-0.056 0.218,-0.121 0.315,-0.204 0.024,-0.021 0.055,-0.028 0.079,-0.051 l 8.29,-8.017 H 36.69 c 4.721,0 8.561,-3.841 8.561,-8.562 0,-4.721 -3.841,-8.558 -8.561,-8.558 z M 9.267,42.846 h 21.577 c 0.829,0 1.5,0.672 1.5,1.5 0,0.828 -0.671,1.5 -1.5,1.5 H 9.267 c -0.829,0 -1.5,-0.672 -1.5,-1.5 0,-0.828 0.671,-1.5 1.5,-1.5 z m 27.702,7.5 H 9.267 c -0.829,0 -1.5,-0.672 -1.5,-1.5 0,-0.828 0.671,-1.5 1.5,-1.5 h 27.702 c 0.828,0 1.5,0.672 1.5,1.5 0,0.828 -0.672,1.5 -1.5,1.5 z"
     id="path6"
     inkscape:connector-curvature="0" /></svg>