<?xml version="1.0" encoding="UTF-8" standalone="no"?>
<svg
   xmlns:dc="http://purl.org/dc/elements/1.1/"
   xmlns:cc="http://creativecommons.org/ns#"
   xmlns:rdf="http://www.w3.org/1999/02/22-rdf-syntax-ns#"
   xmlns:svg="http://www.w3.org/2000/svg"
   xmlns="http://www.w3.org/2000/svg"
   xmlns:sodipodi="http://sodipodi.sourceforge.net/DTD/sodipodi-0.dtd"
   xmlns:inkscape="http://www.inkscape.org/namespaces/inkscape"
   data-name="Layer 1"
   viewBox="0 0 100 125"
   x="0px"
   y="0px"
   version="1.1"
   id="svg545"
   sodipodi:docname="game.svg"
   inkscape:version="0.92.4 (unknown)">
  <metadata
     id="metadata551">
    <rdf:RDF>
      <cc:Work
         rdf:about="">
        <dc:format>image/svg+xml</dc:format>
        <dc:type
           rdf:resource="http://purl.org/dc/dcmitype/StillImage" />
      </cc:Work>
    </rdf:RDF>
  </metadata>
  <defs
     id="defs549" />
  <sodipodi:namedview
     pagecolor="#ffffff"
     bordercolor="#666666"
     borderopacity="1"
     objecttolerance="10"
     gridtolerance="10"
     guidetolerance="10"
     inkscape:pageopacity="0"
     inkscape:pageshadow="2"
     inkscape:window-width="640"
     inkscape:window-height="480"
     id="namedview547"
     showgrid="false"
     inkscape:zoom="1.888"
     inkscape:cx="47.832521"
     inkscape:cy="62.5"
     inkscape:window-x="0"
     inkscape:window-y="25"
     inkscape:window-maximized="0"
     inkscape:current-layer="svg545" />
  <title
     id="title531">A</title>
  <path
     d="M71.27612,22.8371a17.93742,17.93742,0,0,1,10.18848,0,.15363.15363,0,0,0,.19678-.14368V21.40063a2.27207,2.27207,0,0,0-1.97046-2.57428,16.06762,16.06762,0,0,0-6.64112,0,2.27207,2.27207,0,0,0-1.97045,2.57428v1.29279A.15362.15362,0,0,0,71.27612,22.8371Z"
     id="path533" />
  <path
     d="M18.5354,22.8371a17.93742,17.93742,0,0,1,10.18848,0,.15362.15362,0,0,0,.19677-.14368V21.40063a2.27207,2.27207,0,0,0-1.97045-2.57428,14.87678,14.87678,0,0,0-3.32056-.34686,14.87672,14.87672,0,0,0-3.32056.34686,2.27207,2.27207,0,0,0-1.97046,2.57428v1.29279A.15363.15363,0,0,0,18.5354,22.8371Z"
     id="path535" />
  <path
     d="M40.35059,35.03558h19.2998a.66308.66308,0,0,0,.66211-.66259V28.049H39.6875v6.324A.66392.66392,0,0,0,40.35059,35.03558Z"
     id="path537" />
  <path
     d="M13.61768,81.4801c7.26489.67041,9.28649-7.05511,14.30249-19.89526a8.77823,8.77823,0,0,0,14.67309-.15643H57.407a8.77763,8.77763,0,0,0,14.67261.15618c5.01587,12.84021,7.0376,20.56592,14.30249,19.89551,8.85156-.81689,10.66187-10.49841,6.45117-30.80481C90.07861,37.391,86.63159,29.91357,82.60132,26.4577a1.93053,1.93053,0,0,0-.73047-.38427l-1.03564-.29664c-.07813-.02233-.14893-.04083-.22486-.06213a14.821,14.821,0,0,0-8.30493-.04456c-.13013.03638-.2439.06263-.37939.1023l-.918.26868a1.91619,1.91619,0,0,0-.80786.45984A11.61225,11.61225,0,0,0,68.88135,28.049H63.3125v6.324a3.66637,3.66637,0,0,1-3.66211,3.66259H40.35059A3.6672,3.6672,0,0,1,36.6875,34.373V28.049H31.11865a11.61225,11.61225,0,0,0-1.31885-1.54809,1.917,1.917,0,0,0-.8081-.45984L28.074,25.7724c-.13549-.03967-.24951-.06592-.37939-.1023a14.821,14.821,0,0,0-8.30493.04456c-.07593.0213-.14673.0398-.22486.06213l-1.03564.29664a1.93053,1.93053,0,0,0-.73047.38427C13.36841,29.91357,9.92139,37.391,7.16675,50.67529,2.95605,70.98169,4.76636,80.66321,13.61768,81.4801ZM83.764,40.38721a3.62409,3.62409,0,1,1-3.62415,3.62408A3.62417,3.62417,0,0,1,83.764,40.38721ZM76.49475,33.118a3.62412,3.62412,0,1,1-3.62414,3.62409A3.6241,3.6241,0,0,1,76.49475,33.118Zm0,14.53845a3.62412,3.62412,0,1,1-3.62414,3.62409A3.6241,3.6241,0,0,1,76.49475,47.65643Zm-7.26916-7.26922a3.62409,3.62409,0,1,1-3.62415,3.62408A3.62407,3.62407,0,0,1,69.22559,40.38721ZM64.79077,51.684a4.991,4.991,0,1,1-4.99023,4.99072A4.99589,4.99589,0,0,1,64.79077,51.684Zm-38.3147.2497a2.97093,2.97093,0,0,1-3.12988,2.96679,3.08423,3.08423,0,0,1-2.812-3.1347V49.19092a1.041,1.041,0,0,1,.30493-.736L23.148,46.14612a.50548.50548,0,0,1,.71484,0l2.30835,2.30835a1.0403,1.0403,0,0,1,.30493.736ZM40.2,56.67474A4.99072,4.99072,0,1,1,35.20874,51.684,4.99713,4.99713,0,0,1,40.2,56.67474ZM27.949,41.34521a1.04034,1.04034,0,0,1,.73584-.3048h2.74268a2.97092,2.97092,0,0,1,2.9668,3.131,3.08407,3.08407,0,0,1-3.13452,2.81079h-2.575a1.04111,1.04111,0,0,1-.73608-.30481l-2.30859-2.30866a.5057.5057,0,0,1,0-.71484Zm-7.41479-5.25634a2.971,2.971,0,0,1,3.12988-2.96674,3.084,3.084,0,0,1,2.812,3.13446v2.57562a1.04031,1.04031,0,0,1-.30493.736l-2.30835,2.30835a.5055.5055,0,0,1-.71484,0l-2.30884-2.30884a1.041,1.041,0,0,1-.30493-.736Zm-4.95142,4.95154h2.74317a1.04062,1.04062,0,0,1,.736.3048l2.30872,2.30866a.5055.5055,0,0,1,0,.71484L19.062,46.67737a1.04084,1.04084,0,0,1-.736.30481H15.75073a3.08411,3.08411,0,0,1-3.13464-2.81079A2.97089,2.97089,0,0,1,15.58276,41.04041Z"
     id="path539" />
</svg>
