<?xml version="1.0" encoding="UTF-8" standalone="no"?>
<svg
   xmlns:dc="http://purl.org/dc/elements/1.1/"
   xmlns:cc="http://creativecommons.org/ns#"
   xmlns:rdf="http://www.w3.org/1999/02/22-rdf-syntax-ns#"
   xmlns:svg="http://www.w3.org/2000/svg"
   xmlns="http://www.w3.org/2000/svg"
   xmlns:sodipodi="http://sodipodi.sourceforge.net/DTD/sodipodi-0.dtd"
   xmlns:inkscape="http://www.inkscape.org/namespaces/inkscape"
   version="1.1"
   x="0px"
   y="0px"
   viewBox="0 0 64.19545 42.722263"
   enable-background="new 0 0 100 100"
   xml:space="preserve"
   id="svg88"
   sodipodi:docname="transcribe.svg"
   width="64.19545"
   height="42.722263"
   inkscape:version="0.92.4 (5da689c313, 2019-01-14)"><metadata
     id="metadata94"><rdf:RDF><cc:Work
         rdf:about=""><dc:format>image/svg+xml</dc:format><dc:type
           rdf:resource="http://purl.org/dc/dcmitype/StillImage" /><dc:title></dc:title></cc:Work></rdf:RDF></metadata><defs
     id="defs92" /><sodipodi:namedview
     pagecolor="#ffffff"
     bordercolor="#666666"
     borderopacity="1"
     objecttolerance="10"
     gridtolerance="10"
     guidetolerance="10"
     inkscape:pageopacity="0"
     inkscape:pageshadow="2"
     inkscape:window-width="640"
     inkscape:window-height="480"
     id="namedview90"
     showgrid="false"
     fit-margin-top="0"
     fit-margin-left="0"
     fit-margin-right="0"
     fit-margin-bottom="0"
     inkscape:zoom="1.888"
     inkscape:cx="32.097515"
     inkscape:cy="8.8632617"
     inkscape:window-x="0"
     inkscape:window-y="0"
     inkscape:window-maximized="0"
     inkscape:current-layer="svg88" /><g
     id="g82"
     transform="translate(-17.902485,-28.641)"><g
       id="g80"><path
         d="m 81.315,41.68 c -0.07,-0.634 -0.035,-1.27 0.002,-1.941 0.038,-0.685 0.077,-1.393 -0.002,-2.109 l -0.022,-0.103 c -0.067,-0.199 -0.098,-0.399 -0.131,-0.6 -0.038,-0.229 -0.078,-0.457 -0.148,-0.687 -0.015,-0.206 -0.074,-0.708 -0.298,-1.025 -0.017,-0.631 -0.119,-1.971 -0.643,-2.841 -0.996,-2.158 -4.815,-3.59 -6.904,-3.59 -1.602,0 -2.261,0.086 -3.574,0.256 -0.435,0.057 -0.943,0.122 -1.526,0.194 -0.322,0 -0.749,0.063 -1.061,0.109 -0.134,0.02 -0.243,0.037 -0.259,0.041 -1.294,-0.076 -2.589,-0.113 -3.903,-0.151 -1.275,-0.037 -2.569,-0.074 -3.927,-0.149 -0.496,0 -0.992,-0.034 -1.505,-0.069 -0.572,-0.04 -1.163,-0.08 -1.795,-0.08 h -3.655 c -0.377,-0.125 -0.842,-0.048 -1.053,0 h -1.292 c -0.314,0 -0.835,0.06 -1.254,0.107 -0.171,0.02 -0.312,0.036 -0.378,0.041 -0.064,-0.007 -0.127,-0.014 -0.191,-0.021 -0.042,-0.008 -0.088,-0.019 -0.136,-0.029 -0.177,-0.039 -0.394,-0.088 -0.659,-0.097 -0.495,-0.151 -1.313,-0.289 -1.35,-0.295 l -0.038,0.227 c -1.915,-0.122 -3.693,-0.09 -5.692,0.227 l -0.462,0.097 c -0.716,0.153 -1.608,0.344 -2.29,0.344 h -2.95 v -0.079 l -0.424,-0.065 c -2.281,-0.351 -4.021,-0.441 -5.776,-0.306 h -2.25 c -2.592,0 -3.902,1.634 -4.929,3.393 -0.407,0.678 -1.024,2.121 -1.191,2.516 -1.795,1.713 -1.769,3.608 -1.739,5.799 0.004,0.304 0.009,0.618 0.009,0.943 0,4.438 0.386,8.522 0.794,12.848 l 0.107,1.136 c 0.036,0.538 0.063,1.059 0.09,1.572 0.087,1.661 0.169,3.229 0.509,4.994 0,0.406 0.165,0.777 0.31,1.104 0.053,0.119 0.106,0.238 0.149,0.356 0.02,0.114 0.085,0.309 0.292,0.64 0.039,1.814 0.786,3.389 2.221,4.684 0.381,0.532 0.928,0.727 1.509,0.877 0.174,0.114 0.414,0.198 0.64,0.265 6.34,0.096 12.652,0.458 18.957,0.927 4.408,0 8.815,0 13.223,0 3.544,0 7.088,0 10.632,0 4.419,0 10.425,1.414 13.282,-2.875 0.307,-0.461 0.466,-1.119 0.606,-1.699 l 0.052,-0.213 c 0.164,-0.379 0.297,-1.145 0.322,-1.438 0.151,-0.605 0.304,-1.23 0.304,-1.877 v -2.85 c 0,-0.512 0.037,-0.987 0.074,-1.462 0.038,-0.5 0.076,-1 0.076,-1.538 V 55.705 C 82.218,51.207 81.779,46.312 81.315,41.68 Z M 43.23,60.791 c -0.252,0.046 -0.512,0.094 -0.782,0.174 -0.18,0.073 -0.365,0.177 -0.561,0.286 -0.204,0.114 -0.416,0.231 -0.654,0.326 -0.262,0.11 -0.559,0.261 -0.871,0.42 -0.834,0.425 -1.768,0.901 -2.614,0.901 -0.102,0 -0.203,-0.007 -0.302,-0.022 -0.37,-0.055 -0.668,-0.189 -0.885,-0.397 -0.379,-0.364 -0.455,-0.894 -0.496,-1.363 -0.131,-1.478 -0.236,-2.917 -0.092,-4.28 0.13,-1.229 0.715,-1.893 1.455,-2.733 l 0.26,-0.295 c 1.144,-1.3 2.326,-2.643 3.276,-4.101 1.313,-2.014 2.672,-4.097 4.282,-5.887 1.143,-1.344 2.498,-2.596 3.808,-3.806 0.426,-0.394 0.848,-0.784 1.261,-1.175 0.104,-0.104 0.255,-0.285 0.437,-0.501 0.912,-1.087 2.437,-2.908 3.923,-2.493 0.602,0.224 1,0.715 1.352,1.148 0.128,0.158 0.248,0.308 0.369,0.429 0.298,0.273 0.624,0.553 0.958,0.84 0.878,0.754 1.787,1.535 2.44,2.384 0.304,0.327 0.448,0.675 0.412,1.012 -0.06,0.567 -0.597,0.945 -1.071,1.279 -0.2,0.141 -0.389,0.274 -0.519,0.403 -0.901,0.9 -1.713,1.952 -2.499,2.969 -0.284,0.368 -0.566,0.732 -0.847,1.084 -0.267,0.431 -0.65,0.78 -1.02,1.117 -0.241,0.22 -0.469,0.428 -0.671,0.663 -0.553,0.608 -0.962,1.211 -1.395,1.848 -0.255,0.374 -0.514,0.756 -0.809,1.15 -0.31,0.343 -0.584,0.627 -0.848,0.901 -0.525,0.544 -1.021,1.058 -1.546,1.758 -0.36,0.515 -0.696,1.092 -1.021,1.651 -0.783,1.348 -1.593,2.741 -2.952,3.647 -0.647,0.456 -1.223,0.561 -1.778,0.663 z m 18.658,1.161 c -0.043,0.356 -0.127,0.646 -0.245,0.88 -0.917,1.818 -3.882,0.257 -5.432,0.246 -1.723,-0.012 -3.532,-0.064 -5.242,0.136 -2.142,0.251 -4.31,-0.052 -6.468,0.149 l -0.23,0.023 c -0.174,0.017 -0.338,0.034 -0.499,0.057 1.761,-0.602 3.462,-1.361 5.007,-2.417 0.539,-0.368 0.892,-0.826 1.099,-1.319 2.951,-0.515 6.396,-0.351 9.309,-0.205 0.494,0.025 1,0.06 1.453,0.26 0.824,0.364 1.356,1.297 1.248,2.19 z"
         id="path78"
         inkscape:connector-curvature="0" /></g></g></svg>